<svg width="59" height="47" viewBox="0 0 59 47" fill="none" xmlns="http://www.w3.org/2000/svg">
<path d="M51.1363 40.1482C51.087 39.3648 50.8485 38.4228 50.5739 37.6688C50.4899 37.4393 50.4132 37.5874 50.3496 37.4321C50.2247 37.1297 50.1933 36.8251 50.0498 36.5381C50.0018 36.4435 49.8735 36.6218 49.827 36.5222C49.5745 35.9833 49.4224 35.4313 49.154 34.8779C47.8479 32.1897 46.0844 29.8101 43.932 27.8021C43.2168 27.13 42.238 26.4874 41.4944 25.8204C41.4077 25.7422 41.558 25.6634 41.5484 25.6397C41.3916 25.2719 41.2911 25.5887 41.0861 25.4853C40.2776 25.0791 39.4548 24.5335 38.7594 24.0256C38.4664 23.8115 38.9392 23.7448 38.536 23.6972C38.5083 23.6938 38.4994 23.881 38.4056 23.8437C38.1934 23.7586 37.8418 23.514 37.6836 23.4372C37.379 23.2895 37.3315 23.2606 37.0522 23.1052C36.6678 22.8937 36.1753 22.7206 35.7804 22.4747C35.6961 22.4217 35.8917 22.3334 35.7637 22.2353C35.6357 22.1368 35.2522 21.9598 35.1066 21.9326C34.9612 21.9051 34.9563 22.05 34.9201 22.0659C34.6217 22.2032 34.3404 21.6767 34.2861 21.642C33.3188 21.0224 32.3363 20.8198 31.3477 20.4221C30.5978 20.1203 29.8115 19.7537 29.0837 19.504C28.2143 19.2065 27.4483 19.0457 26.6102 18.7618C26.5216 18.7321 26.688 18.578 26.5797 18.5413C25.4146 18.1479 24.2664 17.8339 23.0487 17.6372C22.9277 17.618 23.031 17.8259 22.9074 17.8167C22.149 17.755 20.9472 17.7962 20.7031 16.9584C20.2052 16.8627 19.6075 16.747 19.14 16.7906C18.8384 16.8185 19.063 17.0663 18.7402 16.9063C18.6654 16.87 18.8087 16.7345 18.6934 16.6922C18.2079 16.5143 17.6546 16.4403 17.1918 16.2467C17.0978 16.2069 17.1594 16.0693 17.1378 16.037C16.9532 15.7734 16.4882 16.0336 16.3931 16.0387C15.6815 16.0762 15.2214 15.8964 14.6217 15.769C14.4828 15.7397 14.6916 15.5822 14.5597 15.5471C13.8824 15.3689 13.1068 15.2174 12.4223 15.1577C12.2683 15.1445 12.3675 15.3395 12.292 15.3416C11.9622 15.3496 11.9619 15.0223 11.6278 15.0194C11.558 15.0184 11.5626 15.1678 11.5468 15.1806C11.2996 15.3818 11.2175 15.0011 11.1713 14.9828C10.5787 14.7414 10.1651 15.0271 9.55999 14.8334C9.49018 14.8104 9.6945 14.6697 9.49614 14.6159C8.20303 14.2598 6.88774 13.9923 5.56998 13.7101C5.38108 13.6701 5.46464 13.8439 5.44771 13.8561C5.16909 14.0419 5.18489 13.669 5.11468 13.6292C4.61645 13.3432 4.15006 13.4618 4.01161 12.9056C3.56697 12.7169 3.19489 12.3928 3.17249 12.2379C3.11316 12.1383 3.25756 11.7956 3.60967 11.4515C3.82299 11.2394 3.95065 11.1328 4.15744 10.9632C4.34607 10.8088 4.61617 10.6089 4.81542 10.4611C5.19486 10.1756 5.66015 9.83929 6.14618 9.47168C6.16641 9.45588 6.04505 9.3239 6.08597 9.29292C6.59071 8.91513 6.61475 9.20916 7.15047 9.30783C7.28444 9.33294 7.42681 8.81871 7.44508 8.77767C7.50361 8.62949 7.28316 8.44927 7.30942 8.41332C7.52023 8.14185 7.80834 8.81557 8.17931 8.75131C8.20478 8.7474 8.23059 8.73965 8.25672 8.72741C8.2682 8.72046 8.15168 8.60133 8.1775 8.57194C8.25762 8.48011 8.38332 8.49044 8.45899 8.39559C8.63126 8.17769 8.54182 7.76115 8.98315 7.82602C9.03901 7.83529 9.17107 8.30715 9.50095 8.13366C9.63286 8.06325 10.2317 7.80785 10.3849 7.70796C10.5384 7.60724 10.3636 7.51264 10.3728 7.5013C10.7399 7.11806 10.537 7.11242 10.6441 6.73415C10.7527 6.35715 10.9663 7.05629 11.0925 7.09119C11.219 7.12557 11.4962 6.82573 11.5581 6.73646C11.6199 6.64696 11.4782 6.59779 11.5403 6.53598C11.9542 6.13016 11.8907 6.78285 12.0951 6.82442C12.5747 6.92558 12.6736 6.30699 13.002 6.12336C13.0905 6.07393 13.0574 6.21829 13.1446 6.19706C13.491 6.11123 13.6194 5.88263 14.0588 5.88479C14.1316 5.8846 14.5525 6.07591 14.6753 5.77938C14.6926 5.73674 14.567 5.63885 14.7019 5.55869C14.9035 5.43855 15.2825 5.27506 15.5266 5.23951C15.7068 5.2133 15.5819 5.48963 15.7733 5.35209C15.8584 5.29096 15.6425 5.22697 15.806 5.1224C15.9688 5.01767 16.4214 4.8749 16.5929 4.82496C16.7685 4.77347 16.7234 4.96444 16.7405 4.97084C16.8472 5.0045 17.2108 4.9751 17.2405 4.96592C18.7424 4.52114 20.064 3.87207 21.5571 3.6315C21.673 3.61282 21.6337 3.80344 21.6517 3.80237C22.0565 3.78883 21.6523 3.39495 21.8942 3.18058C21.9251 3.54235 22.0813 3.44113 22.3752 3.42038C22.5168 3.41083 22.4683 3.56324 22.4836 3.57463C22.727 3.74071 22.8162 3.44437 22.8427 3.38206C22.9397 3.15301 23.1294 3.36415 23.1959 3.2115C23.2633 3.05981 23.0174 2.90007 23.2905 2.85137C23.3887 2.96422 23.2462 3.33337 23.4603 3.34911C24.2463 3.40742 25.6857 2.92363 26.3012 2.82774C26.9121 2.72757 27.1289 2.7315 27.4947 2.64995C28.1562 2.50684 27.9299 2.77821 28.3451 2.86139C28.7584 2.94741 28.5275 2.34649 28.5792 2.21018C28.6306 2.07422 28.7011 2.20623 28.7697 2.12919C28.8384 2.0522 28.6777 1.97162 28.8464 1.93422C29.011 1.89642 29.4999 2.10894 29.5646 2.24557C29.7021 2.53399 29.4993 2.84865 29.9486 2.72511C29.9744 2.71788 29.8869 2.55851 29.9864 2.53907C30.7761 2.39037 31.5826 2.3829 32.3887 2.30002C32.4982 2.2884 32.4095 2.1048 32.4736 2.09606C33.1404 2.00766 32.8882 2.30242 33.2188 2.65841C33.1738 2.20604 33.3762 1.93863 33.8957 1.97459C34.2027 1.9968 34.1313 2.1886 34.3127 2.34336C34.3668 2.38991 34.5939 2.27579 34.6221 2.3716C34.714 2.68488 34.4803 2.99902 34.9977 2.9195C35.0205 2.91561 34.9707 2.74361 35.0482 2.74221C35.5467 2.73423 35.5682 3.05501 36.0968 3.16935C36.5148 3.25948 37.2644 3.19204 37.756 3.26086C37.8512 2.76269 38.2853 2.97088 38.3835 3.35184C38.6923 3.406 39.0102 3.50272 39.3129 3.53061C39.4195 3.54105 39.3907 3.38211 39.4078 3.37012C39.6728 3.18173 39.7154 3.54586 39.7768 3.57641C40.4508 3.89615 41.0868 3.82491 41.6724 4.29586C41.693 4.31281 41.6092 4.65641 41.8724 4.47755C41.8902 4.46517 41.7296 4.23656 42.042 4.33642C42.3513 4.43468 43.0022 4.48389 43.3619 4.81518C43.4494 4.89468 43.5857 5.26512 43.8799 5.15251C43.9196 5.13705 43.9325 5.03189 43.9951 4.99841C44.1979 4.89328 44.1126 5.24633 44.3917 5.04236C44.6727 4.83956 45.0968 4.78871 45.417 5.18783C45.4277 5.20014 45.394 5.50045 45.5238 5.56361C45.7306 5.66355 46.0501 5.77017 46.2639 5.89329C46.3655 5.95191 46.2123 6.067 46.2284 6.0798C46.8555 6.55172 47.404 6.70589 48.1395 7.12113C48.2758 7.19765 48.4895 7.63853 48.8449 7.665C49.2323 7.69463 49.4817 6.79758 49.9703 7.43052C50.1682 7.68883 49.7745 8.77302 50.5552 8.69365C51.2588 9.4815 52.1748 9.95978 52.7556 10.8869C52.7817 10.9284 52.6563 11.2445 52.7324 11.3233C52.8462 11.4403 53.0123 11.413 53.0989 11.4981C53.4627 11.8513 53.65 12.2731 53.9587 12.6407C54.0759 12.7815 54.1545 12.6407 54.2929 12.8103C54.4306 12.9805 54.3596 13.2114 54.6041 13.3926C54.7862 13.5255 55.2472 13.492 55.4525 13.7168C55.1327 13.9447 55.2547 14.1105 55.3574 14.467C55.3767 14.5355 55.2226 14.5467 55.2257 14.5828C55.2344 14.7288 55.3973 14.7773 55.3975 14.9255C55.3978 14.9615 55.2842 15.0324 55.2778 15.0655C55.219 15.3486 55.6495 15.4934 55.7244 15.5205C56.0094 15.6206 55.9081 15.7987 56.0622 15.9201C56.2155 16.0412 56.1756 15.7573 56.3161 15.9207C56.608 16.2612 56.8289 16.7636 57.0156 17.1716C57.0881 17.332 56.8766 17.295 56.8832 17.3197C56.9854 17.664 57.2972 17.9327 57.0385 18.2527C57.9838 18.1553 57.0369 18.4902 57.3717 18.8984C57.399 18.9332 57.8266 18.8402 57.8362 18.6696C57.846 18.5001 57.6387 18.3224 57.6527 18.0791C57.6572 18.0232 57.9233 17.5849 57.9288 17.5342C57.9833 17.1556 57.3673 17.3736 57.3285 17.3724C56.9029 17.3536 57.1544 16.8425 57.1386 16.7379C57.0748 16.2708 56.8293 15.9874 56.7399 15.6073C56.6805 15.3601 57.0406 15.1316 56.9362 14.9705C56.5835 14.4335 55.9551 14.5441 56.0739 13.77C56.096 13.6025 56.5579 13.4536 55.9931 13.2647C55.9576 13.2523 55.4861 13.1534 55.5444 12.8691C55.552 12.8335 55.6633 12.7557 55.6536 12.7223C55.5863 12.4996 55.4123 12.4433 55.3095 12.2178C55.2072 11.993 55.085 11.7063 54.8776 11.5193C54.753 11.4064 54.4226 11.4012 54.3248 11.3801C54.0467 11.3225 54.1144 10.9504 53.859 10.9852C53.6036 11.0222 53.5311 11.441 53.1886 11.2617C53.4449 11.0189 53.6966 10.7568 53.9482 10.5058C53.4091 9.91377 52.7669 9.41357 52.1941 8.85071C52.1224 8.77991 52.328 8.71308 52.2538 8.63327C51.9349 8.29354 51.5546 8.13492 51.2295 7.78728C50.979 7.51849 50.7883 7.10397 50.5188 6.82991C50.0858 7.00254 49.7184 6.55276 49.3548 6.34112C49.231 6.2689 49.1761 6.3622 49.0729 6.33285C48.6843 6.22159 49.0349 6.03136 48.9796 5.92524C48.7343 5.47078 48.2525 6.118 47.8142 5.81638C47.7903 5.79981 47.7303 5.25719 47.7017 5.20909C47.5334 4.90359 47.5806 5.31044 47.402 5.24051C47.0747 5.11373 46.8169 5.0833 46.5196 4.77591C46.432 4.68505 46.3144 4.31716 46.0118 4.39362C45.9723 4.40368 45.9205 4.53683 45.8952 4.53307C45.4427 4.45623 45.6353 4.05579 45.4725 3.80737C45.3074 3.5581 44.814 3.66877 44.7077 3.71837C44.4239 3.84141 44.809 3.87232 44.8091 3.89774C44.8111 4.19438 44.5794 4.03513 44.375 3.96876C44.1642 4.35309 43.9059 4.21079 44.1636 3.89882C44.1924 3.86493 44.3277 3.96934 44.375 3.96876C44.3843 3.50268 44.0934 3.31487 43.5956 3.5437C43.3633 3.65229 43.4286 3.91221 42.9787 3.64854C42.7773 3.53172 42.9717 3.28403 42.808 3.1343C42.4329 2.7921 41.7383 2.84839 41.2883 2.66083C41.1252 2.59271 41.3403 2.4877 41.23 2.43573C40.9358 2.2974 40.6255 2.33457 40.3278 2.1859C40.3007 2.17221 40.4192 2.02631 40.3208 1.99678C39.5609 1.76758 38.9081 1.72498 38.1055 1.5653C37.7097 1.48565 37.0665 1.27508 36.6579 1.2327C35.9491 1.15411 35.0802 1.30374 34.4955 1.19094C34.1123 1.11799 34.213 0.955026 34.0555 0.824821C33.7418 0.571534 33.1519 0.944934 33.0733 1.00474C33.0713 1.00641 33.3967 1.06496 33.2157 1.14326C33.102 1.32109 33.0772 1.00575 33.0733 1.00474C33.0219 1.0414 32.3584 1.05302 32.2259 1.0181C32.1545 0.998176 32.2014 0.836668 32.1638 0.829381C31.2501 0.66023 30.3901 0.626687 29.4652 0.74129C29.4492 0.74526 29.4789 0.926028 29.4412 0.933098C28.9063 1.03778 28.5889 0.835104 28.1455 0.734727C27.7071 0.63476 27.361 0.71093 27.1302 1.04694C26.7919 1.04008 26.3532 1.22789 26.1002 1.34337C25.8476 1.45861 25.7697 1.11269 25.7455 1.10862C24.9953 0.981103 24.5664 1.24984 23.8354 1.40485C23.4869 1.47878 22.7737 1.55838 22.3761 1.59994C22.0624 1.63133 21.8915 1.7517 21.5956 1.76136C21.5572 1.76244 21.5629 1.60024 21.5504 1.59675C21.2059 1.47924 21.4314 1.82379 21.3825 1.90481C21.2051 2.20014 21.0946 2.36072 20.6765 2.33838C20.5809 2.3332 20.1911 1.85738 20.0145 1.86778C19.7861 1.88208 19.9149 2.05436 19.6744 2.06552C19.6538 2.06673 19.6291 1.94655 19.4882 1.98825C18.8171 2.1848 18.1647 2.43899 17.4881 2.62579C17.3963 2.65166 17.4605 2.43025 17.3267 2.46477C16.7019 2.62585 15.996 2.85616 15.4491 3.13358C15.3111 3.20358 15.4437 3.30269 15.4247 3.35152C15.3077 3.64752 14.9233 3.40381 14.8751 3.41325C13.7309 3.62626 12.9986 4.23858 11.8736 4.51607C11.8123 4.5302 11.2162 4.35836 11.1306 4.74526C11.1243 4.7712 11.0462 5.16276 10.7818 5.02533C10.7653 5.01678 10.828 4.80514 10.6132 4.91286C10.3964 5.02139 10.0008 5.06322 9.78509 5.36089C9.71531 5.4554 9.62797 5.85466 9.24747 5.73195C9.2233 5.72203 8.55483 5.3618 8.56613 5.81013C8.56837 5.88384 8.77114 6.27173 8.34797 6.21675C8.26662 6.20588 8.34277 6.06415 8.14989 6.08478C7.85366 6.1162 7.55959 6.38062 7.15804 6.35383C7.14074 6.35256 7.10578 6.34205 7.0614 6.33134C6.91574 6.30301 6.67615 6.27607 6.59708 6.50277C6.58078 6.54981 6.70265 6.65313 6.60428 6.71876C6.13841 7.03094 5.60961 7.18891 5.22245 7.50992C5.08126 7.62582 5.29211 7.78012 5.12418 7.94322C4.95658 8.10571 4.61783 8.36731 4.3842 8.38113C4.14867 8.39583 4.15442 7.95343 3.86777 8.09156C3.3308 8.33874 2.54639 8.892 2.05266 9.4051C1.68783 9.76804 1.39621 10.1193 1.12874 10.5992C0.790305 11.2085 0.551415 11.9933 0.803035 12.9125C0.973991 13.3911 0.676239 13.0877 1.01301 13.7233C2.4359 15.6631 4.33688 15.999 5.27347 16.0827C6.09533 16.092 5.20197 15.637 5.8041 15.7205C6.11712 15.7666 6.2259 16.2542 6.29441 16.2878C6.84923 16.5878 7.41368 16.5293 7.91045 16.713C8.01886 16.7523 7.8648 16.8986 7.95796 16.9302C8.27635 17.0397 8.64806 17.0458 8.97242 17.1362C9.11807 17.1771 9.05853 17.3034 9.19783 17.3247C9.52921 17.3767 9.79374 17.3778 10.1292 17.322C10.1593 17.3168 10.0131 17.1101 10.2436 17.1553C10.615 17.2286 11.1234 17.2119 11.5291 17.4343C11.6437 17.4996 11.5774 17.8043 11.8939 17.6532C11.9606 17.6218 11.9722 17.2411 12.2139 17.6251C12.254 17.6889 12.6889 18.2306 13.0198 18.015C13.1066 17.9582 13.3555 17.6991 13.5015 17.7804C13.521 17.7925 13.398 17.937 13.5242 17.9814C13.9514 18.131 14.4099 18.2136 14.8563 18.3666C14.9752 18.4078 14.7535 18.536 14.932 18.5919C15.426 18.7467 16.062 18.845 16.5503 18.9016C16.7325 18.9226 16.6438 18.7549 16.6603 18.7427C16.9284 18.5435 16.971 18.9056 17.0355 18.941C17.4384 19.1576 17.8085 19.0792 18.2019 19.2171C18.3067 19.2538 18.1904 19.3942 18.2082 19.4134C18.3952 19.6049 18.3019 19.2803 18.4506 19.2828C18.8678 19.289 19.3081 19.4104 19.707 19.5319C19.8534 19.5767 19.6382 19.7183 19.7702 19.7565C20.5587 19.9883 21.3595 20.1789 22.1508 20.2868C22.2996 20.3068 22.2497 20.1417 22.2888 20.1178C22.5598 19.9499 22.7742 20.3403 22.835 20.389C23.1134 20.6112 23.2691 20.5213 23.5376 20.6238C24.8492 21.1251 26.5244 21.5656 27.7849 21.9546C29.4254 22.4611 30.7178 22.8178 32.1914 23.5079C32.2847 23.5517 32.1089 23.6865 32.188 23.7265C33.2072 24.2328 34.2599 24.6626 35.224 25.2506C35.3041 25.299 35.0963 25.3961 35.2212 25.4792C35.4766 25.6506 35.8174 25.8314 36.1129 25.9357C36.257 25.9869 36.164 25.7489 36.3078 25.8037C36.6429 25.9313 36.9733 26.1164 37.2615 26.3332C37.3836 26.4257 37.0872 26.4618 37.2531 26.5694C38.3957 27.319 39.4269 28.1072 40.6158 28.802C40.6966 28.8492 41.0119 28.613 41.1127 28.8002C41.053 28.8898 40.9689 28.983 40.8979 29.0724C42.3112 30.405 43.6759 31.7468 44.7257 33.3547C44.7695 33.4221 44.524 33.4151 44.6071 33.5454C45.0877 34.3047 45.4421 35.09 45.9923 35.8456C46.0465 35.9217 46.3567 35.7333 46.4133 36.0092C46.4239 36.0574 46.5338 36.4619 46.4979 36.5908C46.492 36.6085 46.3099 36.5986 46.3519 36.7244C46.5929 37.4435 46.8542 38.178 47.1306 38.918C47.1753 39.0372 47.3178 38.864 47.3512 38.9493C47.5858 39.5531 47.5668 40.2312 47.8042 40.8234C47.9621 41.2209 48.2474 41.0295 48.5719 41.2209C48.618 41.248 48.6505 41.5156 48.8261 41.5124C49.2689 41.5052 49.7375 41.3197 50.2109 41.3271C50.3134 41.3283 50.2371 41.7287 50.4619 41.4744C50.4772 41.4566 50.5326 41.165 50.6077 41.0858C50.6599 41.0306 50.8464 41.099 50.9093 40.9905C50.972 40.8814 50.8118 40.7895 50.8781 40.6139C50.9448 40.4378 51.1565 40.4826 51.1363 40.1482ZM24.9596 1.87448C24.7381 2.07928 24.6144 1.46909 24.9024 1.57632C24.9165 1.58225 24.9712 1.86435 24.9596 1.87448ZM52.4275 9.76069C52.0092 9.73315 52.1359 9.29096 52.4481 9.29652C52.7618 9.3051 52.5556 9.77077 52.4275 9.76069ZM54.4561 12.3836C54.0553 12.222 54.7146 11.6211 54.8258 12.0575C54.8324 12.0828 54.4796 12.3933 54.4561 12.3836ZM48.5223 40.1622C48.5312 40.1638 48.5671 40.3497 48.5595 40.3556C48.3779 40.485 48.3069 40.1169 48.5223 40.1622ZM56.0804 15.2203C55.9206 15.1816 55.8718 14.8249 56.0732 14.8721C56.2368 14.9115 56.2812 15.2704 56.0804 15.2203ZM12.9045 5.83629C12.9043 5.84626 12.7777 5.90423 12.7617 5.85438C12.7109 5.69345 12.9085 5.66802 12.9045 5.83629ZM58.1288 20.3485C57.8997 19.5275 57.0612 19.3207 57.3669 20.1089C57.4216 20.258 57.5057 19.7194 57.6204 19.8933C57.8342 20.2304 57.4416 20.5739 57.7522 20.8737C57.811 20.9329 58.1457 20.398 58.1295 20.3469C58.1292 20.3474 58.129 20.348 58.1288 20.3485ZM24.9213 2.6355C24.9177 2.64427 24.7245 2.68178 24.7187 2.67455C24.5849 2.49536 24.9758 2.41929 24.9213 2.6355ZM5.58339 9.58794C5.57816 9.60967 5.1924 9.85179 5.17581 9.84433C4.80429 9.68772 5.59413 9.19036 5.58339 9.58794ZM37.7663 3.24916C37.9301 3.48556 38.1638 3.55967 38.3825 3.35188C38.1785 3.31998 37.9742 3.27857 37.7663 3.24916ZM38.115 39.9551C38.2063 40.0887 38.4028 40.1591 38.5733 40.1836C38.6266 40.1916 38.6728 40.0878 38.7126 40.0892C38.7902 40.0921 38.8065 40.1712 38.8884 40.167C38.9159 40.1652 38.9988 40.0078 39.0252 40.0092C39.1693 40.0175 39.2355 40.1209 39.3569 40.1627C39.9552 40.3683 40.475 40.6635 41.0175 40.9577C41.1963 41.0549 41.4892 41.0699 41.6165 41.2484C41.6313 41.2694 41.5281 41.3855 41.5243 41.3985C41.4677 41.5983 41.6327 41.3326 41.6956 41.327C41.9446 41.3053 42.1223 41.4166 42.2335 41.5708C42.2805 41.6368 42.0365 41.8391 42.2011 41.7456C42.2124 41.7394 42.2936 41.5956 42.3211 41.5939C42.3831 41.5902 42.4393 41.6672 42.477 41.6785C42.5502 41.6996 42.5588 41.7078 42.6147 41.746C42.6919 41.7971 42.8292 41.7958 42.8875 41.884C42.8996 41.9033 42.7774 42.0225 42.7878 42.0654C42.7983 42.1082 42.8791 42.1492 42.927 42.1349C42.9749 42.1206 43.0427 42.0065 43.0649 41.9852C43.2518 41.8047 43.126 42.1511 43.1315 42.1659C43.2397 42.4287 43.5275 42.3881 43.7115 42.5222C43.851 42.6244 43.9613 42.7866 44.0999 42.8758C44.2654 42.9815 44.4538 43.0055 44.5987 43.1299C44.6141 43.1429 44.478 43.2886 44.4966 43.3047C44.6941 43.4763 44.9165 43.6109 45.2057 43.6556C45.2348 43.66 45.3103 43.5002 45.3455 43.4962C45.5589 43.4746 45.9657 43.3461 45.5951 44.0113C45.6999 44.0508 45.8239 44.1031 45.9922 44.0368C46.1006 43.9942 46.1636 43.8062 46.1778 43.9162C46.1811 43.9408 46.0649 44.0612 46.0773 44.0881C46.1296 44.2009 46.2577 44.2272 46.2943 44.3595C46.3015 44.3867 46.2088 44.5029 46.198 44.5281C46.1122 44.7333 46.3942 44.4956 46.4249 44.4858C46.6563 44.414 46.6964 44.5373 46.8079 44.6123C46.8338 44.6296 46.686 44.7688 46.7068 44.7913C46.8158 44.9056 46.9563 44.9863 47.1319 45.0044C47.1713 45.008 47.2466 44.8527 47.2705 44.8474C47.3748 44.8258 47.1979 45.0938 47.2943 45.0781C47.3144 45.0751 47.3938 44.9531 47.4054 44.9418C47.587 44.7638 47.4059 45.0712 47.4098 45.0838C47.455 45.2489 47.7437 45.0001 47.8175 45.1185C47.8261 45.1329 47.6889 45.2608 47.7198 45.2924C47.9246 45.5036 48.2029 45.6429 48.5224 45.6927C48.572 45.7007 48.6279 45.5705 48.6403 45.5584C48.8348 45.3706 48.6478 45.6757 48.6516 45.6951C48.6874 45.8404 48.9512 45.6622 48.7631 46.0506C49.2441 46.2171 49.4949 46.6937 50.1106 46.6699C50.1181 46.6699 50.2132 46.5218 50.2278 46.5225C50.2429 46.5231 50.2554 46.5251 50.2655 46.5285L50.4338 46.695L50.645 46.4548C50.6761 46.3434 50.8799 46.492 51.184 46.5779C51.2675 46.6015 50.9716 46.3245 50.9506 46.3032C50.8728 46.225 50.6408 46.1079 50.6276 46.0898C50.5258 45.9454 51.2418 46.4124 51.2913 46.336C51.2917 46.3328 51.1523 46.2586 51.1432 46.2438C51.1146 46.1976 51.1801 46.2113 51.147 46.1627C51.0699 46.0509 50.7293 45.8126 50.9774 45.8738C51.0095 45.882 51.4105 46.1548 51.4352 46.0742C51.4447 46.0418 51.5293 45.9257 51.5245 45.8751C51.5198 45.8245 51.3729 45.7641 51.3687 45.758C51.2527 45.5564 51.1582 45.5451 50.9292 45.3357C50.7011 45.127 51.3069 45.5288 51.3874 45.5537C51.4677 45.5784 51.3666 45.4204 51.3271 45.3723C51.2876 45.3242 51.1906 45.2914 51.1716 45.2589C51.0486 45.045 51.5036 45.4097 51.6215 45.4397C51.9005 45.5109 51.4829 45.1639 51.4825 45.0669C51.4824 45.0407 51.5763 45.1216 51.5967 45.1112C51.6759 45.0692 51.5592 44.9397 51.7375 44.9477C51.7666 44.949 52.0791 45.0622 51.9033 44.8959C51.8779 44.872 51.7543 44.8158 51.7469 44.7717C51.7356 44.7058 51.7592 44.6149 51.826 44.5941C51.8754 44.5788 52.0379 44.7353 52.0067 44.6568C51.9927 44.6218 51.8612 44.5868 51.844 44.5269C51.8267 44.4672 51.8885 44.3818 51.914 44.3505C51.9395 44.3193 52.0694 44.4276 52.0807 44.4309C52.146 44.4492 52.2559 44.428 52.2594 44.4222C52.4619 44.1457 52.3936 43.7289 52.653 43.4991C52.6731 43.481 52.8132 43.5904 52.8178 43.5886C52.9289 43.5531 52.4932 43.3604 52.3939 43.2234C52.6925 43.4234 52.6575 43.3576 52.7249 43.3257C52.7576 43.3105 52.8662 43.3989 52.8797 43.4042C53.0825 43.4795 52.869 43.3069 52.8262 43.2703C52.6689 43.1352 52.8914 43.2379 52.7865 43.1473C52.6824 43.0573 52.4865 42.9884 52.5214 42.9389C52.6392 42.9936 52.8988 43.2112 52.9696 43.2018C53.2374 43.1666 53.1896 42.7537 53.2418 42.622C53.2939 42.4905 53.3382 42.4655 53.3428 42.3725C53.351 42.2046 53.5326 42.3832 53.6781 42.368C53.8238 42.3525 53.2816 42.0612 53.1773 41.9796C53.0729 41.8982 53.1951 41.959 53.1426 41.9068C53.09 41.8546 52.9956 41.8356 52.9929 41.7895C52.9902 41.7434 53.2438 41.7828 53.3675 41.8455C53.6295 41.9783 53.8635 42.1814 53.8262 42.0403C53.8239 42.0321 53.6776 41.9612 53.6756 41.9341C53.6647 41.7217 53.7557 41.5661 53.7568 41.3615C53.7567 41.3333 53.5936 41.2551 53.5918 41.2376C53.5731 41.0546 53.8007 41.2601 54.1275 41.3735C53.74 41.1489 53.5325 40.9656 53.5897 40.872C53.6239 40.8156 53.7827 40.9298 53.9221 40.9677C53.9641 40.9792 53.876 40.8681 53.9582 40.9102C54.227 41.0476 54.4872 41.2646 54.4353 41.0979C54.4326 41.0903 54.2852 41.0156 54.2861 40.9958C54.291 40.8678 54.5635 41.0249 54.6605 40.9446C54.7365 40.8817 54.665 40.6388 54.6966 40.5322C54.2705 40.2648 54.4224 40.2416 54.7375 40.3929C54.763 40.327 54.8201 40.2745 54.8159 40.1925C54.8146 40.1643 54.6834 40.0991 54.6717 40.0882C54.4874 39.9186 54.7887 40.0739 54.8079 40.0684C55.0044 40.0008 54.8599 39.7528 55.1548 39.7564C55.1654 39.7566 55.4653 39.9362 55.2722 39.7648C55.2588 39.7531 55.0969 39.711 55.1259 39.6432C55.155 39.5754 55.0711 39.3596 55.2626 39.3613C55.3088 39.3616 55.5818 39.4614 55.4216 39.301C55.3997 39.2793 55.3112 39.2317 55.2692 39.1938C55.1359 39.0727 55.4433 39.2476 55.2096 39.0565C54.9758 38.8653 54.8269 38.6815 55.057 38.7066C55.0638 38.7071 55.3133 38.8367 55.3269 38.8073C55.3484 38.7604 55.3385 38.6681 55.369 38.6241C55.3837 38.6031 55.5216 38.7099 55.5267 38.7079C55.7021 38.6153 55.6376 38.4294 55.6806 38.2384C55.6882 38.2032 55.9409 38.2484 55.8181 38.0931C55.6838 37.9228 54.9231 37.528 55.1842 37.498C55.2889 37.4856 56.2489 37.9943 55.84 37.5933C56.083 37.4726 55.9568 37.1384 56.2504 37.0489C56.2635 37.0448 56.5366 37.1788 56.5465 37.1559C56.5606 37.1216 56.4522 37.0291 56.4584 37.0022C56.4817 36.8875 56.6379 36.8681 56.6791 36.7694C56.695 36.7321 56.5641 36.6657 56.583 36.6212C56.6021 36.5768 56.7817 36.653 56.7382 36.5489C56.7049 36.47 56.3994 36.2185 56.3958 36.1395C56.7245 36.345 56.7419 36.3033 56.8711 36.2916C56.8961 36.2894 57.0012 36.3754 57.0189 36.3781C57.0935 36.3907 57.0137 36.3081 57.0927 36.3252C57.1117 36.3293 57.2237 36.3999 57.2455 36.4072C57.4356 36.4721 57.2261 36.2475 57.1895 36.2086C57.0508 36.0603 57.2091 36.1325 57.1648 36.0581C57.1204 35.9837 57.0069 35.9809 56.9919 35.9174C56.9609 35.7858 57.0447 35.6952 57.0915 35.6112C57.1108 35.5781 57.2459 35.6947 57.2522 35.6922C57.3329 35.6496 57.2175 35.4816 57.5386 35.6332C56.7996 35.0997 57.639 35.6403 57.5464 35.4476C57.5387 35.4322 57.1814 35.1922 57.1095 35.1872C57.0376 35.1821 57.1232 35.2978 57.0143 35.285C56.9887 35.2821 56.6132 35.1203 56.5878 35.1146C56.3892 35.0703 56.9272 35.4229 56.955 35.4448C57.2546 35.6837 56.8451 35.5173 56.8085 35.5186C56.6409 35.5247 56.6737 35.6409 56.5478 35.655C56.4662 35.6647 56.1076 35.4433 56.0964 35.4845C56.0591 35.6212 56.5299 35.9756 56.0304 35.8101C55.9238 35.7749 55.5496 35.5055 55.8024 35.7818C55.8183 35.7992 56.0586 36.0378 55.8589 35.961C55.8337 35.9513 55.7205 35.8793 55.7072 35.8791C55.6203 35.8793 55.6938 35.9627 55.623 35.9781C55.5522 35.9934 55.4547 36.004 55.4617 36.0772C55.4657 36.1212 55.6526 36.2928 55.6952 36.3396C55.8185 36.4738 55.5469 36.3617 55.7113 36.5007C55.8766 36.6404 56.1831 36.7663 56.2583 36.9057C55.9623 36.7215 55.6565 36.5354 55.3579 36.3515C55.2763 36.5009 55.281 36.7018 55.1758 36.8368C55.1625 36.8533 55.0158 36.7348 54.9975 36.75C54.9206 36.8144 54.9883 36.9561 54.8897 37.0109C54.8128 37.0529 54.5996 37.0174 54.514 37.0581C54.8244 37.3129 54.6456 37.3404 54.6296 37.4326C54.6238 37.4648 54.7149 37.5202 54.7326 37.5569C54.7972 37.694 54.5201 37.4733 54.4612 37.4623C54.2095 37.4158 54.879 37.85 54.8013 37.9342C54.7974 37.9388 54.3987 37.7724 54.3709 37.7666C54.1904 37.7278 54.4902 37.8548 54.4951 37.9052C54.5041 37.9973 54.5625 38.0943 54.4109 38.0996C54.3662 38.1008 54.1099 38.0092 54.2569 38.1598C54.2761 38.1795 54.3967 38.2519 54.4009 38.2606C54.4665 38.4122 54.0921 38.1777 53.937 38.1422C53.7819 38.1068 53.9951 38.339 54.0603 38.4001C54.2287 38.5586 54.1605 38.424 54.1806 38.434C54.4199 38.5528 54.3489 38.5786 54.3431 38.6291C54.7054 38.8666 54.6488 38.9064 54.3356 38.6804C54.3015 38.6556 54.3548 38.6474 54.3431 38.6291C53.9624 38.4352 53.8785 38.4651 54.1719 38.743C54.3094 38.8732 54.5113 38.9606 54.3845 39.0108C54.3272 39.0337 54.0857 38.8578 53.9931 38.8514C53.7818 38.8369 53.9458 39.0962 53.8524 39.1602C53.8185 39.1834 53.7005 39.0651 53.6726 39.0779C53.5981 39.1118 53.6689 39.2282 53.5786 39.2524C53.5703 39.2545 53.4342 39.1502 53.4208 39.167C53.3162 39.2928 53.3322 39.4701 53.2431 39.6141C53.2 39.6837 53.0412 39.7562 53.0113 39.8376C52.9587 39.9782 53.0707 40.2632 52.9518 40.3364C52.8749 40.3845 52.7402 40.2779 52.6229 40.245C52.3956 40.181 52.6723 40.4983 52.7164 40.5454C52.7179 40.5469 52.7901 40.5092 52.8438 40.5878C52.9864 40.7041 52.7175 40.5451 52.7164 40.5454C52.7448 40.5759 52.7014 40.715 52.6587 40.721C52.6354 40.7242 52.5032 40.6303 52.4937 40.6336C52.2694 40.7142 52.1326 40.8506 52.0933 41.0516C52.0942 41.0562 52.25 41.1489 52.2503 41.1585C52.2585 41.2945 52.0331 41.2353 51.8726 41.2415C51.7122 41.2476 51.7103 41.332 51.9438 41.5438C51.8735 41.5806 51.9363 41.7372 51.976 41.8295C52.0157 41.9219 51.7136 41.7398 51.705 41.7402C51.4323 41.7517 51.554 41.9355 51.4931 42.0881C51.4646 42.161 51.339 42.2617 51.2614 42.311C51.1996 42.3496 51.2479 42.4272 51.1705 42.4498C51.1601 42.4529 51.032 42.3619 51.0255 42.3607C50.8303 42.317 51.172 42.4952 51.2224 42.5436C51.4055 42.7197 51.5008 42.817 51.3549 42.827C51.3214 42.8294 50.8231 42.5824 50.7761 42.5957C50.7159 42.6135 50.8928 42.7046 50.8255 42.7205C50.8199 42.722 50.7171 42.6558 50.7051 42.6844C50.6481 42.8163 50.6244 42.9845 50.5342 43.1019C50.5223 43.1182 50.3725 42.9927 50.3526 43.0145C50.2592 43.1171 50.1843 43.2468 50.1889 43.4073C50.1905 43.4471 50.3162 43.5025 50.3464 43.5301C50.5287 43.6973 50.196 43.5597 50.1848 43.5647C49.9091 43.6783 50.0789 44.0068 49.8156 44.1339C49.8007 44.1404 49.4236 44.0246 49.6736 44.238C49.6901 44.2523 49.9468 44.4694 49.7323 44.3815C49.7189 44.376 49.5895 44.26 49.5772 44.3114C49.5649 44.3627 49.4247 44.369 49.5467 44.5276C49.5851 44.5777 49.8381 44.7989 49.5791 44.7115C49.5612 44.7052 49.001 44.4685 49.3308 44.7199C49.3851 44.7612 49.7579 44.9904 49.5266 44.9353C49.4819 44.9245 49.414 44.8496 49.3414 44.8498C49.2298 44.8496 49.2859 44.9789 49.0816 44.9362C49.0456 44.9285 48.7653 44.8153 48.932 44.9727C48.9581 44.9973 49.0885 45.0646 49.0898 45.0928C49.0963 45.2196 48.9673 45.2661 48.9744 45.3956L51.4486 44.9156C51.4411 44.9157 51.4333 44.9161 51.4251 44.9171C51.3722 44.9232 51.2472 45.1274 51.1764 45.1551C51.1056 45.1828 51.0029 45.1843 51.033 45.0714C51.0631 44.9584 51.3258 44.6788 51.2922 44.6168C51.1459 44.3475 50.7915 44.3663 50.5481 44.2301C50.5119 44.2099 50.62 44.1201 50.5726 44.0825C50.3979 43.9434 50.1616 43.6144 49.8337 43.7341C49.5711 43.8299 49.6248 44.0867 49.473 44.0932C49.4001 44.0959 49.6117 43.7029 49.6088 43.6835C49.5832 43.4903 49.3914 43.5933 49.3287 43.4735C49.3158 43.4488 49.4418 43.3186 49.4296 43.2991C49.389 43.2313 49.2796 43.2509 49.2319 43.1982C49.2107 43.1742 49.2964 43.0672 49.2669 43.0588C49.1972 43.0376 49.1139 43.0483 48.9836 43.1124C48.9718 43.1183 48.9044 43.2798 48.8594 43.2551C48.787 43.2146 48.6293 43.2567 48.6299 43.0956C48.6304 43.0474 48.8147 42.7944 48.6379 42.9332C48.6009 42.9622 48.3917 43.2747 48.5268 42.9715C48.5491 42.9211 48.7124 42.4985 48.4984 42.6921C48.4421 42.743 48.2285 42.9681 48.2297 42.9092C48.2306 42.9003 48.3449 42.7755 48.3319 42.7459C48.2844 42.6437 48.19 42.5974 48.1391 42.4954C48.1256 42.4679 48.2612 42.3513 48.2379 42.3148C48.174 42.2141 48.0356 42.1685 47.9155 42.1487C47.871 42.1416 47.8082 42.2741 47.7965 42.285C47.6077 42.4632 47.789 42.1693 47.7883 42.144C47.7811 41.9903 47.6258 42.0775 47.579 41.9907C47.5658 41.9671 47.677 41.845 47.6817 41.8303C47.7252 41.6852 47.5814 41.9451 47.5362 41.9524C47.4089 41.9738 47.3354 41.9043 47.2741 41.8339C47.2517 41.8079 47.3948 41.6764 47.3734 41.6548C47.249 41.5241 47.0887 41.4304 46.8863 41.4133C46.8479 41.4103 46.7779 41.5406 46.7525 41.5636C46.576 41.7249 46.7094 41.427 46.7146 41.3932C46.7386 41.2389 46.6393 41.327 46.6022 41.2703C46.4223 40.9911 46.0615 40.8355 45.793 40.7064C45.4438 40.5375 45.1216 40.4762 44.8484 40.2335C44.831 40.2182 44.9652 40.0746 44.9516 40.0595C44.771 39.8705 44.5208 39.7832 44.3454 39.5865C44.3308 39.5706 44.4648 39.4394 44.445 39.409C44.4053 39.3454 44.3279 39.3017 44.2359 39.3079C44.1913 39.3107 44.1348 39.4657 44.0918 39.4658C43.9914 39.4665 43.9137 39.4265 43.8643 39.354C43.8435 39.3229 43.9983 39.2016 43.9626 39.173C43.7213 38.975 43.4928 38.7691 43.093 38.7816C43.0656 38.7825 42.823 39.0812 42.8294 38.9949C42.8897 38.9069 42.964 38.8058 43.0302 38.713C42.6992 38.3972 42.2569 38.2411 41.8763 37.9907C41.8603 37.9801 42.0076 37.8354 41.9772 37.814C41.8014 37.6903 41.6658 37.5223 41.3681 37.5564C41.3387 37.5596 41.1359 37.855 41.1159 37.7736C41.1126 37.7589 41.0624 37.6636 41.0882 37.5862C41.0923 37.5747 41.2055 37.4503 41.1832 37.4281C41.0514 37.3012 40.875 37.2204 40.668 37.1966C40.6344 37.193 40.5543 37.3548 40.5295 37.3535C40.3541 37.3431 40.3042 37.1397 40.0944 37.1873C39.9536 37.2197 39.7998 37.4883 39.58 37.7032C39.549 37.7334 39.4977 37.7046 39.391 37.8449C39.1225 38.1978 38.8584 38.6057 38.5696 38.9798C38.5074 39.0604 38.5088 38.9261 38.4009 39.1516C38.3938 39.1668 38.3915 39.2659 38.3534 39.3413C38.3272 39.3936 38.207 39.5278 38.1794 39.599C38.1518 39.6701 38.2584 39.5618 38.2337 39.651C38.2084 39.7411 38.0761 39.8971 38.115 39.9551ZM52.1526 42.244C52.2672 42.3789 51.7392 42.0533 51.8952 42.085C51.9034 42.0869 52.1471 42.2373 52.1526 42.244ZM55.6767 36.9515C55.8706 37.1557 55.5054 36.9798 55.3532 36.826C55.2011 36.6722 55.618 36.8895 55.6767 36.9515ZM56.231 36.4595C56.3697 36.6425 55.62 36.1822 55.8167 36.2051C55.8279 36.2063 56.2229 36.4489 56.231 36.4595ZM39.7173 37.9092C39.7118 37.9155 39.673 37.8974 39.6771 37.8902C39.7768 37.7164 39.8543 37.7528 39.7173 37.9092ZM56.7973 35.9817C56.8842 36.0665 56.7291 36.0536 56.621 35.9482C56.5341 35.8634 56.6892 35.8762 56.7973 35.9817ZM51.228 44.903C51.2353 44.9086 51.2259 44.9387 51.1821 44.9102C51.0411 44.8183 51.1041 44.8081 51.228 44.903ZM57.4561 34.977C57.388 35.144 57.9434 35.6235 57.9788 35.4171C57.9852 35.3797 57.7422 35.3565 57.711 35.2839C57.6544 35.1515 58.069 35.3502 57.9075 35.1494C57.8779 35.1128 57.4587 34.9666 57.4551 34.9768C57.4554 34.9768 57.4558 34.9769 57.4561 34.977ZM52.7654 42.6684C52.7718 42.6737 52.7555 42.7133 52.7481 42.7098C52.5695 42.6235 52.6021 42.5437 52.7654 42.6684ZM50.1217 46.4661C50.1094 46.479 50.0212 46.4355 50.0283 46.4205C50.18 46.1284 50.3588 46.2155 50.1217 46.4661ZM54.6861 40.5236C54.8783 40.591 54.9278 40.5572 54.7376 40.3932C54.724 40.4387 54.7007 40.4785 54.6861 40.5236Z" fill="#EDF3FF"/>
</svg>
