<svg width="1251" height="596" viewBox="0 0 1251 596" fill="none" xmlns="http://www.w3.org/2000/svg">
<path d="M23.4691 54.75C17.2691 54.75 12.4941 52.4 9.14412 47.7C5.79412 42.95 4.11912 36.2 4.11912 27.45C4.11912 18.6 5.79412 11.875 9.14412 7.275C12.4941 2.675 17.2691 0.374997 23.4691 0.374997C29.7191 0.374997 34.4941 2.675 37.7941 7.275C41.1441 11.875 42.8191 18.575 42.8191 27.375C42.8191 36.175 41.1441 42.95 37.7941 47.7C34.4941 52.4 29.7191 54.75 23.4691 54.75ZM23.4691 46.8C26.8691 46.8 29.3941 45.25 31.0441 42.15C32.6941 39 33.5191 34.075 33.5191 27.375C33.5191 20.675 32.6941 15.825 31.0441 12.825C29.3941 9.775 26.8691 8.25 23.4691 8.25C20.1191 8.25 17.5941 9.775 15.8941 12.825C14.2441 15.825 13.4191 20.675 13.4191 27.375C13.4191 34.075 14.2441 39 15.8941 42.15C17.5941 45.25 20.1191 46.8 23.4691 46.8ZM72.6398 54V43.65H49.0148V36.9L74.1398 1.125H81.9398V36.3H89.5148V43.65H81.9398V54H72.6398ZM72.6398 36.3V12.525H74.4398L56.2148 38.55V36.3H72.6398ZM94.9605 54V43.575H105.461V54H94.9605ZM160.545 54.75C155.045 54.75 150.32 53.65 146.37 51.45C142.47 49.2 139.47 46.05 137.37 42C135.27 37.9 134.22 33.075 134.22 27.525C134.22 21.975 135.27 17.175 137.37 13.125C139.47 9.075 142.47 5.95 146.37 3.75C150.32 1.5 155.045 0.374997 160.545 0.374997C164.245 0.374997 167.57 0.899998 170.52 1.95C173.52 3 176.095 4.55 178.245 6.6L175.095 14.25C172.745 12.35 170.47 11 168.27 10.2C166.12 9.35 163.645 8.925 160.845 8.925C155.495 8.925 151.395 10.55 148.545 13.8C145.745 17 144.345 21.575 144.345 27.525C144.345 33.475 145.745 38.075 148.545 41.325C151.395 44.575 155.495 46.2 160.845 46.2C163.645 46.2 166.12 45.8 168.27 45C170.47 44.15 172.745 42.75 175.095 40.8L178.245 48.45C176.095 50.45 173.52 52 170.52 53.1C167.57 54.2 164.245 54.75 160.545 54.75ZM183.878 27.525C183.878 21.975 184.878 17.175 186.878 13.125C188.928 9.075 191.853 5.95 195.653 3.75C199.453 1.5 203.978 0.374997 209.228 0.374997C214.428 0.374997 218.928 1.5 222.728 3.75C226.528 5.95 229.453 9.075 231.503 13.125C233.603 17.175 234.653 21.95 234.653 27.45C234.653 33 233.603 37.825 231.503 41.925C229.453 45.975 226.528 49.125 222.728 51.375C218.928 53.625 214.428 54.75 209.228 54.75C203.978 54.75 199.453 53.625 195.653 51.375C191.903 49.125 189.003 45.975 186.953 41.925C184.903 37.825 183.878 33.025 183.878 27.525ZM194.003 27.525C194.003 33.475 195.278 38.125 197.828 41.475C200.378 44.825 204.178 46.5 209.228 46.5C214.128 46.5 217.903 44.825 220.553 41.475C223.203 38.125 224.528 33.475 224.528 27.525C224.528 21.525 223.203 16.875 220.553 13.575C217.953 10.275 214.178 8.625 209.228 8.625C204.178 8.625 200.378 10.275 197.828 13.575C195.278 16.875 194.003 21.525 194.003 27.525ZM266.686 54.75C259.137 54.75 253.511 52.875 249.811 49.125C246.161 45.325 244.336 39.725 244.336 32.325V1.125H254.011V32.25C254.011 36.95 255.011 40.5 257.012 42.9C259.061 45.3 262.286 46.5 266.686 46.5C270.887 46.5 274.037 45.3 276.137 42.9C278.287 40.5 279.361 36.95 279.361 32.25V1.125H288.887V32.325C288.887 39.725 287.012 45.325 283.262 49.125C279.562 52.875 274.037 54.75 266.686 54.75ZM300.154 54V1.125H309.829V45.825H334.729V54H300.154ZM342.122 54V1.125H377.747V8.7H351.422V23.325H376.022V30.975H351.422V46.35H377.747V54H342.122ZM408.776 54.75C401.226 54.75 395.601 52.875 391.901 49.125C388.251 45.325 386.426 39.725 386.426 32.325V1.125H396.101V32.25C396.101 36.95 397.101 40.5 399.101 42.9C401.151 45.3 404.376 46.5 408.776 46.5C412.976 46.5 416.126 45.3 418.226 42.9C420.376 40.5 421.451 36.95 421.451 32.25V1.125H430.976V32.325C430.976 39.725 429.101 45.325 425.351 49.125C421.651 52.875 416.126 54.75 408.776 54.75ZM442.244 54V1.125H465.344C471.144 1.125 475.619 2.5 478.769 5.25C481.969 8 483.569 11.825 483.569 16.725C483.569 19.975 482.844 22.75 481.394 25.05C479.994 27.35 477.969 29.125 475.319 30.375C472.669 31.575 469.544 32.175 465.944 32.175L466.994 30.75H469.544C471.644 30.75 473.519 31.3 475.169 32.4C476.819 33.5 478.169 35.175 479.219 37.425L486.944 54H476.294L468.494 36.825C467.794 35.075 466.719 33.925 465.269 33.375C463.869 32.825 462.169 32.55 460.169 32.55H451.919V54H442.244ZM451.919 25.425H463.769C467.169 25.425 469.744 24.725 471.494 23.325C473.294 21.875 474.194 19.775 474.194 17.025C474.194 14.275 473.294 12.2 471.494 10.8C469.744 9.4 467.169 8.7 463.769 8.7H451.919V25.425ZM513.209 54.75C508.959 54.75 505.034 54.225 501.434 53.175C497.884 52.075 494.834 50.575 492.284 48.675L495.284 41.1C496.984 42.3 498.759 43.325 500.609 44.175C502.459 44.975 504.434 45.6 506.534 46.05C508.634 46.45 510.859 46.65 513.209 46.65C517.159 46.65 520.009 46 521.759 44.7C523.509 43.4 524.384 41.7 524.384 39.6C524.384 37.75 523.784 36.35 522.584 35.4C521.384 34.4 519.234 33.575 516.134 32.925L507.659 31.2C502.809 30.2 499.184 28.525 496.784 26.175C494.384 23.825 493.184 20.675 493.184 16.725C493.184 13.425 494.059 10.55 495.809 8.1C497.559 5.65 500.009 3.75 503.159 2.4C506.309 1.05 509.984 0.374997 514.184 0.374997C517.934 0.374997 521.409 0.924998 524.609 2.025C527.809 3.075 530.484 4.6 532.634 6.6L529.634 13.8C527.484 12 525.134 10.675 522.584 9.825C520.034 8.925 517.184 8.475 514.034 8.475C510.484 8.475 507.709 9.175 505.709 10.575C503.759 11.925 502.784 13.8 502.784 16.2C502.784 18.05 503.384 19.525 504.584 20.625C505.834 21.725 507.934 22.575 510.884 23.175L519.284 24.825C524.284 25.825 527.984 27.475 530.384 29.775C532.784 32.025 533.984 35.075 533.984 38.925C533.984 42.075 533.134 44.85 531.434 47.25C529.734 49.6 527.334 51.45 524.234 52.8C521.134 54.1 517.459 54.75 513.209 54.75Z" fill="#EDF3FF"/>
<g clip-path="url(#clip0_158_605)">
<g opacity="0.4">
<path d="M1249.7 474.793L1249.3 491.944L1242.68 491.791C1240.49 489.364 1238.28 486.895 1236.22 484.35C1232.76 480.043 1229.66 474.557 1226.17 470.547C1224.42 468.535 1222.68 467.455 1220.22 469.261L1213.74 476.564L1212.66 466.979L1225.79 447.936L1251.11 414L1250.7 431.948C1244.31 441.224 1235.62 449.717 1229.41 459.024C1226.7 463.093 1230.54 463.101 1232.88 464.141C1238.98 466.848 1243.96 471.5 1249.69 474.82L1249.7 474.793Z" fill="#EDF3FF"/>
<path d="M1248.81 499.062C1249.02 499.297 1246.79 501.999 1246.47 502.397C1238.4 512.079 1226.75 519.437 1217.73 528.287L1216.09 529.046L1216.24 497.712C1217.02 497.595 1217.8 497.41 1218.59 497.375C1225.57 497.024 1238.27 497.197 1245.14 497.991C1246.58 498.16 1247.47 498.828 1248.83 499.062L1248.81 499.062ZM1239.34 503.041L1220.58 502.606L1220.03 519.429L1239.34 503.041Z" fill="#EDF3FF"/>
<path d="M1227.69 540.711C1231.46 539.934 1233.58 545.276 1236.21 547.633C1238.84 549.989 1243.21 551.967 1245.28 554.149C1248.09 557.117 1245.49 559.19 1242.34 559.711C1236.2 560.743 1228.38 559.643 1222.36 561.312C1221.51 561.549 1220.84 562.33 1219.92 562.403C1218.13 562.537 1217.1 561.082 1217.38 559.415C1217.74 557.236 1220.91 550.653 1222.05 548.371C1223.05 546.395 1225.53 541.147 1227.7 540.698L1227.69 540.711ZM1237.48 555.102C1234.48 552.386 1231.08 550.254 1228.77 546.812L1224.2 556.089C1228.56 555.286 1233.04 555.052 1237.48 555.102Z" fill="#EDF3FF"/>
<path d="M1247.3 522.318L1247.61 550.8C1244.38 548.079 1242.1 543.854 1239.28 540.885C1237.45 538.953 1234.68 537.795 1234.08 534.783L1245.5 523.234L1247.3 522.318Z" fill="#EDF3FF"/>
<path d="M1219.15 540.364C1218.37 539.482 1218.6 538.029 1219.18 537.097C1220.73 534.662 1225.41 529.951 1227.6 527.693C1233.33 521.79 1239.71 516.498 1245.45 510.623C1248.96 509.529 1250.16 512.514 1247.96 515.231C1243.61 520.625 1235.84 526.412 1230.75 531.654C1228.45 534.018 1225.6 538.178 1223.29 540.068C1222.16 540.987 1220.29 541.66 1219.15 540.364Z" fill="#EDF3FF"/>
<path d="M1235.08 491.614L1215.35 491.156C1215.49 488.742 1214.23 486.067 1215.02 483.682C1215.28 482.918 1220.65 476.413 1221.53 475.583C1221.81 475.333 1222.27 474.696 1222.68 474.813L1235.08 491.614Z" fill="#EDF3FF"/>
<path d="M1249.84 468.653L1235.83 459.43L1250.48 441.151L1249.84 468.653Z" fill="#EDF3FF"/>
<path d="M1129.42 595.898L1146.57 595.898V589.271C1144.2 587.03 1141.78 584.762 1139.28 582.643C1135.06 579.08 1129.65 575.853 1125.72 572.276C1123.75 570.481 1122.71 568.713 1124.57 566.297L1132.02 559.993L1122.47 558.684L1103.12 571.372L1068.61 595.898L1086.56 595.898C1095.98 589.73 1104.68 581.239 1114.12 575.246C1118.25 572.627 1118.17 576.474 1119.16 578.837C1121.72 584.992 1126.26 590.081 1129.44 595.885L1129.42 595.898Z" fill="#EDF3FF"/>
<path d="M1153.7 595.574C1153.93 595.79 1156.68 593.617 1157.09 593.306C1166.96 585.464 1174.58 573.99 1183.64 565.176L1184.44 563.556L1153.11 562.976C1152.97 563.759 1152.77 564.528 1152.72 565.325C1152.2 572.29 1152.08 584.991 1152.72 591.876C1152.85 593.32 1153.5 594.224 1153.7 595.588V595.574ZM1157.9 586.193V567.43L1174.73 567.268L1157.9 586.193Z" fill="#EDF3FF"/>
<path d="M1195.83 575.421C1194.96 579.174 1200.26 581.415 1202.55 584.101C1204.85 586.787 1206.72 591.201 1208.85 593.32C1211.76 596.195 1213.89 593.644 1214.48 590.512C1215.66 584.398 1214.74 576.555 1216.55 570.576C1216.8 569.725 1217.6 569.077 1217.7 568.159C1217.87 566.378 1216.44 565.311 1214.77 565.554C1212.58 565.865 1205.93 568.875 1203.62 569.968C1201.62 570.913 1196.31 573.275 1195.82 575.435L1195.83 575.421ZM1209.99 585.545C1207.34 582.481 1205.29 579.039 1201.9 576.65L1211.28 572.29C1210.38 576.636 1210.04 581.104 1209.99 585.545Z" fill="#EDF3FF"/>
<path d="M1176.99 594.602L1205.45 595.574C1202.81 592.281 1198.64 589.905 1195.73 587.016C1193.84 585.14 1192.75 582.346 1189.75 581.671L1177.94 592.821L1176.99 594.602Z" fill="#EDF3FF"/>
<path d="M1195.68 566.877C1194.82 566.081 1193.36 566.27 1192.41 566.836C1189.94 568.321 1185.12 572.897 1182.82 575.03C1176.78 580.618 1171.34 586.881 1165.34 592.483C1164.16 595.966 1167.12 597.234 1169.88 595.102C1175.38 590.877 1181.34 583.237 1186.7 578.269C1189.12 576.029 1193.34 573.275 1195.29 571.007C1196.23 569.901 1196.95 568.051 1195.68 566.877Z" fill="#EDF3FF"/>
<path d="M1146.57 581.671L1146.57 561.937C1144.16 562.018 1141.51 560.695 1139.11 561.437C1138.34 561.68 1131.71 566.89 1130.86 567.754C1130.61 568.024 1129.96 568.47 1130.07 568.888L1146.57 581.671Z" fill="#EDF3FF"/>
<path d="M1123.28 595.898L1114.38 581.671L1095.77 595.898L1123.28 595.898Z" fill="#EDF3FF"/>
</g>
<rect x="0.969116" y="146" width="282.216" height="351.27" rx="20" fill="#1D5BE8"/>
<rect x="130.033" y="146" width="282.216" height="351.27" rx="20" fill="#4605D0"/>
<rect x="263.068" y="146" width="282.216" height="351.27" rx="20" fill="#5BC58D"/>
<rect x="404.176" y="146" width="282.216" height="351.27" rx="20" fill="#E2F5A6"/>
<rect x="545.784" y="146.5" width="281.216" height="350.27" rx="19.5" fill="#051436" stroke="#E2F5A6"/>
<rect x="686.392" y="146" width="282.216" height="351.27" rx="20" fill="#EDF3FF"/>
<path d="M34.9691 473.65L31.3025 472.905L31.3025 474.778L30.1138 474.778L30.1138 472.703L25.46 471.736L25.46 474.355L24.2714 474.355L24.2714 471.515L20.7659 470.81L20.7659 469.52L24.2714 470.225L24.2714 467.042L20.7659 466.337L20.7659 465.048L24.2714 465.753L24.2714 463.899L25.46 463.899L25.46 465.995L30.1138 466.941L30.1138 464.302L31.3025 464.302L31.3025 467.163L34.9691 467.908L34.9691 469.218L31.3025 468.473L31.3025 471.636L34.9691 472.341L34.9691 473.65ZM30.1138 471.394L30.1138 468.231L25.46 467.284L25.46 470.467L30.1138 471.394ZM34.9691 460.744L33.5387 460.744L33.5387 457.4L22.1963 457.4L22.1963 456.514L24.634 460.422L22.9619 460.422L20.7659 456.937L20.7659 455.728L33.5387 455.728L33.5387 452.585L34.9691 452.585L34.9691 460.744ZM34.9691 449.45L20.7659 449.45L20.7659 444.736C20.7659 443.164 21.0412 441.835 21.5919 440.747C22.1291 439.659 22.9283 438.833 23.9893 438.269C25.0369 437.705 26.3263 437.423 27.8574 437.423C29.3751 437.423 30.6645 437.705 31.7255 438.269C32.7866 438.833 33.5924 439.659 34.1431 440.747C34.6938 441.835 34.9691 443.164 34.9691 444.736L34.9691 449.45ZM33.5387 447.778L33.5387 444.857C33.5387 442.923 33.0686 441.485 32.1285 440.545C31.1749 439.605 29.7512 439.135 27.8574 439.135C25.9502 439.135 24.5266 439.605 23.5864 440.545C22.6462 441.485 22.1762 442.923 22.1762 444.857L22.1762 447.778L33.5387 447.778ZM35.1504 429.866C35.1504 430.484 35.0833 431.088 34.949 431.679C34.8147 432.27 34.6199 432.828 34.3647 433.352C34.1095 433.862 33.8006 434.312 33.438 434.701L32.1486 434.077C32.6724 433.419 33.0619 432.747 33.3171 432.062C33.5589 431.377 33.6797 430.645 33.6797 429.866C33.6797 428.846 33.4044 428.046 32.8537 427.469C32.3031 426.891 31.5778 426.603 30.6779 426.603C29.7512 426.603 28.9923 426.878 28.4014 427.429C27.8104 427.979 27.5149 428.745 27.5149 429.725C27.5149 430.424 27.656 431.048 27.938 431.599C28.2066 432.15 28.6297 432.626 29.2072 433.029L29.2072 434.238L20.7659 434.238L20.7659 425.817L22.1761 425.817L22.1762 432.626L27.8373 432.626L27.8373 433.07C27.2732 432.707 26.8434 432.21 26.5479 431.579C26.239 430.934 26.0846 430.209 26.0846 429.403C26.0846 428.49 26.2726 427.704 26.6487 427.046C27.0247 426.374 27.5485 425.857 28.2201 425.495C28.8916 425.132 29.6773 424.951 30.5772 424.951C31.4771 424.951 32.2762 425.152 32.9746 425.555C33.6596 425.944 34.1968 426.509 34.5863 427.247C34.9624 427.973 35.1504 428.846 35.1504 429.866ZM34.9691 422.319L20.7659 422.319L20.7659 416.638C20.7659 415.134 21.0882 413.972 21.7329 413.153C22.3776 412.333 23.2909 411.924 24.4728 411.924C25.3593 411.924 26.098 412.192 26.6889 412.73C27.2799 413.253 27.6694 413.985 27.8574 414.926L27.5754 414.926C27.6963 413.878 28.0589 413.059 28.6633 412.468C29.2543 411.863 30.0534 411.561 31.0607 411.561C32.3232 411.561 33.2902 411.984 33.9618 412.83C34.6333 413.663 34.9691 414.845 34.9691 416.376L34.9691 422.319ZM33.6193 420.687L33.6193 416.537C33.6193 415.516 33.4246 414.711 33.0351 414.12C32.6321 413.515 31.9673 413.213 31.0406 413.213C30.1004 413.213 29.4356 413.515 29.0461 414.12C28.6431 414.711 28.4417 415.516 28.4417 416.537L28.4417 420.687L33.6193 420.687ZM27.112 420.687L27.112 416.88C27.112 415.778 26.8971 414.952 26.4673 414.402C26.0375 413.851 25.4197 413.576 24.6139 413.576C23.7811 413.576 23.1566 413.851 22.7402 414.402C22.3105 414.952 22.0956 415.778 22.0956 416.88L22.0956 420.687L27.112 420.687ZM34.9691 408.626L20.7659 408.626L20.7659 399.56L22.1359 399.56L22.1359 406.994L27.0717 406.994L27.0717 400.003L28.4618 400.003L28.4618 406.994L33.579 406.994L33.579 399.56L34.9691 399.56L34.9691 408.626ZM35.1504 392.511C35.1504 394.136 34.8079 395.392 34.123 396.278C33.4246 397.165 32.4508 397.608 31.2017 397.608C30.2213 397.608 29.4087 397.306 28.764 396.702C28.1059 396.097 27.7097 395.298 27.5754 394.304L27.8776 394.304C27.6895 395.204 27.2799 395.923 26.6486 396.46C26.004 396.997 25.2451 397.266 24.3721 397.266C23.1768 397.266 22.25 396.843 21.5919 395.996C20.9204 395.15 20.5846 393.988 20.5846 392.511C20.5846 391.02 20.9204 389.852 21.5919 389.006C22.25 388.159 23.1768 387.736 24.3721 387.736C25.2451 387.736 26.004 387.992 26.6486 388.502C27.2933 388.999 27.6963 389.697 27.8574 390.597L27.5754 390.597C27.7097 389.617 28.1059 388.838 28.764 388.26C29.4087 387.683 30.2213 387.394 31.2017 387.394C32.4508 387.394 33.4246 387.837 34.123 388.724C34.8079 389.61 35.1504 390.872 35.1504 392.511ZM33.7805 392.511C33.7805 391.329 33.5589 390.449 33.1156 389.872C32.6724 389.281 32.0009 388.985 31.101 388.985C30.2146 388.985 29.5564 389.281 29.1267 389.872C28.6834 390.449 28.4618 391.329 28.4618 392.511C28.4618 393.693 28.6834 394.579 29.1267 395.17C29.5564 395.748 30.2146 396.037 31.101 396.037C32.0009 396.037 32.6724 395.741 33.1156 395.15C33.5589 394.559 33.7805 393.68 33.7805 392.511ZM27.0919 392.511C27.0919 391.49 26.8635 390.711 26.4069 390.174C25.9502 389.623 25.319 389.348 24.5131 389.348C23.7073 389.348 23.0827 389.623 22.6395 390.174C22.1829 390.711 21.9545 391.49 21.9545 392.511C21.9545 393.532 22.1829 394.318 22.6395 394.868C23.0827 395.405 23.7073 395.674 24.5131 395.674C25.319 395.674 25.9502 395.405 26.4069 394.868C26.8635 394.318 27.0919 393.532 27.0919 392.511Z" fill="#EDF3FF"/>
<path d="M164.033 473.65L160.366 472.905L160.366 474.778L159.177 474.778L159.177 472.703L154.524 471.736L154.524 474.355L153.335 474.355L153.335 471.515L149.83 470.81L149.83 469.52L153.335 470.225L153.335 467.042L149.83 466.337L149.83 465.048L153.335 465.753L153.335 463.899L154.524 463.899L154.524 465.995L159.177 466.941L159.177 464.302L160.366 464.302L160.366 467.163L164.033 467.908L164.033 469.218L160.366 468.473L160.366 471.636L164.033 472.341L164.033 473.65ZM159.177 471.394L159.177 468.231L154.524 467.284L154.524 470.467L159.177 471.394ZM164.033 455.526L160.95 455.526L160.95 462.296L159.742 462.296L149.83 455.264L149.83 453.894L159.601 453.894L159.601 451.719L160.95 451.719L160.95 453.894L164.033 453.894L164.033 455.526ZM159.601 455.526L151.804 455.526L151.804 455.083L160.024 460.926L159.601 460.926L159.601 455.526ZM164.214 444.716C164.214 446.435 163.61 447.764 162.401 448.705C161.179 449.631 159.473 450.095 157.284 450.095C155.645 450.095 154.262 449.86 153.134 449.39C151.992 448.919 151.126 448.248 150.535 447.375C149.944 446.502 149.648 445.448 149.648 444.212C149.648 443.473 149.803 442.728 150.112 441.976C150.407 441.224 150.823 440.606 151.361 440.122L152.65 440.727C152.126 441.237 151.743 441.794 151.502 442.399C151.246 443.003 151.119 443.614 151.119 444.232C151.119 445.602 151.609 446.656 152.59 447.395C153.557 448.12 155.014 448.483 156.961 448.483L158.835 448.483L158.835 448.664C158.069 448.57 157.411 448.342 156.861 447.979C156.296 447.603 155.867 447.113 155.571 446.509C155.276 445.904 155.128 445.233 155.128 444.494C155.128 443.634 155.316 442.876 155.692 442.217C156.068 441.559 156.599 441.042 157.284 440.666C157.955 440.29 158.727 440.102 159.601 440.102C160.487 440.102 161.279 440.297 161.978 440.686C162.676 441.076 163.227 441.62 163.63 442.318C164.019 443.017 164.214 443.816 164.214 444.716ZM162.804 444.836C162.804 444.219 162.676 443.675 162.421 443.205C162.152 442.721 161.783 442.352 161.313 442.097C160.829 441.828 160.279 441.694 159.661 441.694C159.043 441.694 158.499 441.828 158.029 442.097C157.559 442.352 157.19 442.721 156.921 443.205C156.652 443.675 156.518 444.219 156.518 444.836C156.518 445.454 156.652 445.998 156.921 446.468C157.19 446.938 157.559 447.308 158.029 447.576C158.499 447.832 159.043 447.959 159.661 447.959C160.279 447.959 160.829 447.832 161.313 447.576C161.783 447.308 162.152 446.938 162.421 446.468C162.676 445.998 162.804 445.454 162.804 444.836ZM164.214 433.099C164.214 434.711 163.589 435.946 162.34 436.806C161.091 437.666 159.285 438.095 156.921 438.095C154.544 438.095 152.737 437.666 151.502 436.806C150.266 435.946 149.648 434.711 149.648 433.099C149.648 431.474 150.266 430.238 151.502 429.392C152.737 428.532 154.537 428.103 156.901 428.103C159.278 428.103 161.091 428.532 162.34 429.392C163.589 430.252 164.214 431.487 164.214 433.099ZM162.763 433.099C162.763 431.971 162.287 431.131 161.333 430.581C160.379 430.03 158.902 429.755 156.901 429.755C154.886 429.755 153.416 430.03 152.489 430.581C151.549 431.131 151.079 431.971 151.079 433.099C151.079 434.214 151.549 435.053 152.489 435.617C153.429 436.168 154.9 436.443 156.901 436.443C158.902 436.443 160.379 436.168 161.333 435.617C162.287 435.053 162.763 434.214 162.763 433.099ZM164.214 420.757C164.214 421.375 164.147 421.979 164.013 422.57C163.878 423.161 163.684 423.719 163.428 424.242C163.173 424.753 162.864 425.203 162.502 425.592L161.212 424.968C161.736 424.31 162.126 423.638 162.381 422.953C162.622 422.268 162.743 421.536 162.743 420.757C162.743 419.736 162.468 418.937 161.917 418.36C161.367 417.782 160.641 417.493 159.742 417.493C158.815 417.493 158.056 417.769 157.465 418.319C156.874 418.87 156.579 419.636 156.579 420.616C156.579 421.314 156.72 421.939 157.002 422.49C157.27 423.04 157.693 423.517 158.271 423.92L158.271 425.129L149.83 425.129L149.83 416.708L151.24 416.708L151.24 423.517L156.901 423.517L156.901 423.96C156.337 423.598 155.907 423.101 155.612 422.47C155.303 421.825 155.148 421.1 155.148 420.294C155.148 419.38 155.336 418.595 155.712 417.937C156.088 417.265 156.612 416.748 157.284 416.385C157.955 416.023 158.741 415.841 159.641 415.841C160.541 415.841 161.34 416.043 162.038 416.446C162.723 416.835 163.26 417.399 163.65 418.138C164.026 418.863 164.214 419.736 164.214 420.757ZM164.033 413.21L149.83 413.21L149.83 408.496C149.83 406.924 150.105 405.595 150.656 404.507C151.193 403.419 151.992 402.593 153.053 402.029C154.101 401.465 155.39 401.183 156.921 401.183C158.439 401.183 159.728 401.465 160.789 402.029C161.85 402.593 162.656 403.419 163.207 404.507C163.757 405.595 164.033 406.924 164.033 408.496L164.033 413.21ZM162.602 411.538L162.602 408.617C162.602 406.683 162.132 405.246 161.192 404.305C160.238 403.365 158.815 402.895 156.921 402.895C155.014 402.895 153.59 403.365 152.65 404.305C151.71 405.246 151.24 406.683 151.24 408.617L151.24 411.538L162.602 411.538ZM164.214 393.888C164.214 395.5 163.589 396.736 162.34 397.595C161.091 398.455 159.285 398.885 156.921 398.885C154.544 398.885 152.737 398.455 151.502 397.595C150.266 396.736 149.648 395.5 149.648 393.888C149.648 392.263 150.266 391.027 151.502 390.181C152.737 389.322 154.537 388.892 156.901 388.892C159.278 388.892 161.091 389.322 162.34 390.181C163.589 391.041 164.214 392.277 164.214 393.888ZM162.763 393.888C162.763 392.76 162.287 391.921 161.333 391.37C160.379 390.819 158.902 390.544 156.901 390.544C154.886 390.544 153.416 390.819 152.489 391.37C151.549 391.921 151.079 392.76 151.079 393.888C151.079 395.003 151.549 395.842 152.489 396.407C153.429 396.957 154.9 397.233 156.901 397.233C158.902 397.233 160.379 396.957 161.333 396.407C162.287 395.842 162.763 395.003 162.763 393.888Z" fill="#EDF3FF"/>
<path d="M297.185 473.65L293.519 472.905L293.519 474.778L292.33 474.778L292.33 472.703L287.676 471.736L287.676 474.355L286.488 474.355L286.488 471.515L282.982 470.81L282.982 469.52L286.488 470.225L286.488 467.042L282.982 466.337L282.982 465.048L286.488 465.753L286.488 463.899L287.676 463.899L287.676 465.995L292.33 466.941L292.33 464.302L293.519 464.302L293.519 467.163L297.185 467.908L297.185 469.218L293.519 468.473L293.519 471.636L297.185 472.341L297.185 473.65ZM292.33 471.394L292.33 468.231L287.676 467.284L287.676 470.467L292.33 471.394ZM297.367 456.997C297.367 457.615 297.3 458.219 297.165 458.81C297.031 459.401 296.836 459.959 296.581 460.482C296.326 460.993 296.017 461.443 295.654 461.832L294.365 461.208C294.889 460.55 295.278 459.878 295.533 459.193C295.775 458.508 295.896 457.776 295.896 456.997C295.896 455.976 295.621 455.177 295.07 454.6C294.519 454.022 293.794 453.733 292.894 453.733C291.968 453.733 291.209 454.009 290.618 454.559C290.027 455.11 289.731 455.876 289.731 456.856C289.731 457.554 289.872 458.179 290.154 458.73C290.423 459.28 290.846 459.757 291.424 460.16L291.424 461.369L282.982 461.369L282.982 452.948L284.392 452.948L284.392 459.757L290.054 459.757L290.054 460.2C289.489 459.838 289.06 459.341 288.764 458.709C288.455 458.065 288.301 457.34 288.301 456.534C288.301 455.62 288.489 454.835 288.865 454.177C289.241 453.505 289.765 452.988 290.436 452.625C291.108 452.263 291.894 452.081 292.794 452.081C293.693 452.081 294.493 452.283 295.191 452.686C295.876 453.075 296.413 453.639 296.803 454.378C297.179 455.103 297.367 455.976 297.367 456.997ZM297.185 449.45L282.982 449.45L282.982 443.769C282.982 442.264 283.305 441.103 283.949 440.283C284.594 439.464 285.507 439.054 286.689 439.054C287.576 439.054 288.314 439.323 288.905 439.86C289.496 440.384 289.886 441.116 290.074 442.056L289.792 442.056C289.913 441.009 290.275 440.189 290.88 439.598C291.471 438.994 292.27 438.692 293.277 438.692C294.54 438.692 295.507 439.115 296.178 439.961C296.85 440.794 297.185 441.976 297.185 443.507L297.185 449.45ZM295.836 447.818L295.836 443.668C295.836 442.647 295.641 441.841 295.251 441.25C294.848 440.646 294.184 440.344 293.257 440.344C292.317 440.344 291.652 440.646 291.262 441.25C290.859 441.841 290.658 442.647 290.658 443.668L290.658 447.818L295.836 447.818ZM289.328 447.818L289.328 444.01C289.328 442.909 289.113 442.083 288.684 441.532C288.254 440.982 287.636 440.706 286.83 440.706C285.997 440.706 285.373 440.982 284.957 441.532C284.527 442.083 284.312 442.909 284.312 444.01L284.312 447.818L289.328 447.818ZM297.367 429.572C297.367 430.995 297.071 432.204 296.48 433.198C295.889 434.192 295.05 434.958 293.962 435.495C292.874 436.019 291.578 436.281 290.074 436.281C288.569 436.281 287.28 436.019 286.206 435.495C285.118 434.958 284.278 434.192 283.687 433.198C283.096 432.204 282.801 430.995 282.801 429.572C282.801 428.564 282.955 427.665 283.264 426.872C283.573 426.08 284.023 425.388 284.614 424.797L285.944 425.422C285.38 426.066 284.97 426.704 284.715 427.336C284.446 427.967 284.312 428.705 284.312 429.552C284.312 431.177 284.816 432.412 285.823 433.259C286.83 434.105 288.247 434.528 290.074 434.528C291.9 434.528 293.324 434.105 294.345 433.259C295.352 432.412 295.856 431.177 295.856 429.552C295.856 428.705 295.728 427.967 295.473 427.336C295.204 426.704 294.781 426.066 294.204 425.422L295.554 424.797C296.131 425.388 296.581 426.08 296.903 426.872C297.212 427.665 297.367 428.564 297.367 429.572ZM297.367 417.452C297.367 418.07 297.3 418.674 297.165 419.265C297.031 419.856 296.836 420.413 296.581 420.937C296.326 421.448 296.017 421.897 295.654 422.287L294.365 421.662C294.889 421.004 295.278 420.333 295.533 419.648C295.775 418.963 295.896 418.231 295.896 417.452C295.896 416.431 295.621 415.632 295.07 415.054C294.519 414.477 293.794 414.188 292.894 414.188C291.968 414.188 291.209 414.463 290.618 415.014C290.027 415.565 289.731 416.33 289.731 417.311C289.731 418.009 289.872 418.634 290.154 419.184C290.423 419.735 290.846 420.212 291.424 420.615L291.424 421.824L282.982 421.824L282.982 413.402L284.392 413.402L284.392 420.212L290.054 420.212L290.054 420.655C289.489 420.292 289.06 419.796 288.764 419.164C288.455 418.52 288.301 417.794 288.301 416.988C288.301 416.075 288.489 415.289 288.865 414.631C289.241 413.96 289.765 413.443 290.436 413.08C291.108 412.717 291.894 412.536 292.794 412.536C293.693 412.536 294.493 412.738 295.191 413.141C295.876 413.53 296.413 414.094 296.803 414.833C297.179 415.558 297.367 416.431 297.367 417.452ZM297.367 405.634C297.367 407.259 297.024 408.515 296.339 409.401C295.641 410.288 294.667 410.731 293.418 410.731C292.438 410.731 291.625 410.429 290.98 409.824C290.322 409.22 289.926 408.421 289.792 407.427L290.094 407.427C289.906 408.327 289.496 409.045 288.865 409.582C288.22 410.12 287.461 410.388 286.588 410.388C285.393 410.388 284.466 409.965 283.808 409.119C283.137 408.273 282.801 407.111 282.801 405.634C282.801 404.143 283.137 402.974 283.808 402.128C284.466 401.282 285.393 400.859 286.588 400.859C287.461 400.859 288.22 401.114 288.865 401.625C289.51 402.122 289.913 402.82 290.074 403.72L289.792 403.72C289.926 402.739 290.322 401.96 290.98 401.383C291.625 400.805 292.438 400.517 293.418 400.517C294.667 400.517 295.641 400.96 296.339 401.846C297.024 402.733 297.367 403.995 297.367 405.634ZM295.997 405.634C295.997 404.452 295.775 403.572 295.332 402.995C294.889 402.404 294.217 402.108 293.317 402.108C292.431 402.108 291.773 402.404 291.343 402.995C290.9 403.572 290.678 404.452 290.678 405.634C290.678 406.816 290.9 407.702 291.343 408.293C291.773 408.871 292.431 409.159 293.317 409.159C294.217 409.159 294.889 408.864 295.332 408.273C295.775 407.682 295.997 406.802 295.997 405.634ZM289.308 405.634C289.308 404.613 289.08 403.834 288.623 403.297C288.167 402.746 287.535 402.471 286.729 402.471C285.924 402.471 285.299 402.746 284.856 403.297C284.399 403.834 284.171 404.613 284.171 405.634C284.171 406.655 284.399 407.44 284.856 407.991C285.299 408.528 285.924 408.797 286.729 408.797C287.535 408.797 288.167 408.528 288.623 407.991C289.08 407.44 289.308 406.655 289.308 405.634ZM297.185 397.825L282.982 397.825L282.982 393.111C282.982 391.539 283.258 390.21 283.808 389.122C284.345 388.034 285.145 387.208 286.206 386.644C287.253 386.079 288.543 385.797 290.074 385.797C291.591 385.797 292.881 386.079 293.942 386.644C295.003 387.208 295.809 388.034 296.359 389.122C296.91 390.21 297.185 391.539 297.185 393.111L297.185 397.825ZM295.755 396.153L295.755 393.231C295.755 391.297 295.285 389.86 294.345 388.92C293.391 387.98 291.968 387.51 290.074 387.51C288.167 387.51 286.743 387.98 285.803 388.92C284.863 389.86 284.392 391.297 284.392 393.231L284.392 396.153L295.755 396.153Z" fill="#EDF3FF"/>
<path d="M438.636 473.65L434.969 472.905L434.969 474.778L433.78 474.778L433.78 472.703L429.127 471.736L429.127 474.355L427.938 474.355L427.938 471.515L424.432 470.81L424.432 469.52L427.938 470.225L427.938 467.042L424.432 466.337L424.432 465.048L427.938 465.753L427.938 463.899L429.127 463.899L429.127 465.995L433.78 466.941L433.78 464.302L434.969 464.302L434.969 467.163L438.636 467.908L438.636 469.218L434.969 468.473L434.969 471.636L438.636 472.341L438.636 473.65ZM433.78 471.394L433.78 468.231L429.127 467.284L429.127 470.467L433.78 471.394ZM438.636 461.53L424.432 461.53L424.432 452.464L425.802 452.464L425.802 459.898L430.738 459.898L430.738 452.907L432.128 452.907L432.128 459.898L437.246 459.898L437.246 452.464L438.636 452.464L438.636 461.53ZM438.636 449.726L437.387 449.726L432.128 444.69C431.443 444.032 430.792 443.541 430.174 443.219C429.543 442.883 428.891 442.715 428.22 442.715C427.401 442.715 426.783 442.971 426.366 443.481C425.937 443.991 425.722 444.73 425.722 445.697C425.722 446.449 425.856 447.148 426.125 447.792C426.38 448.424 426.79 449.035 427.354 449.626L426.044 450.23C425.507 449.693 425.077 449.008 424.755 448.175C424.419 447.342 424.251 446.463 424.251 445.536C424.251 444.099 424.587 442.991 425.258 442.212C425.917 441.433 426.857 441.043 428.079 441.043C428.979 441.043 429.838 441.265 430.658 441.708C431.464 442.138 432.296 442.769 433.156 443.602L437.669 448.054L437.205 448.054L437.205 440.439L438.636 440.439L438.636 449.726ZM438.636 437.606L424.432 437.606L424.432 428.742L425.802 428.742L425.802 435.934L430.779 435.934L430.779 429.185L432.148 429.185L432.148 435.934L438.636 435.934L438.636 437.606ZM438.817 421.76C438.817 422.378 438.75 422.983 438.615 423.574C438.481 424.165 438.286 424.722 438.031 425.246C437.776 425.756 437.467 426.206 437.104 426.596L435.815 425.971C436.339 425.313 436.728 424.641 436.984 423.956C437.225 423.271 437.346 422.539 437.346 421.76C437.346 420.74 437.071 419.941 436.52 419.363C435.97 418.786 435.244 418.497 434.344 418.497C433.418 418.497 432.659 418.772 432.068 419.323C431.477 419.873 431.181 420.639 431.181 421.619C431.181 422.318 431.322 422.942 431.605 423.493C431.873 424.044 432.296 424.521 432.874 424.923L432.874 426.132L424.432 426.132L424.432 417.711L425.843 417.711L425.843 424.521L431.504 424.521L431.504 424.964C430.94 424.601 430.51 424.104 430.214 423.473C429.906 422.828 429.751 422.103 429.751 421.297C429.751 420.384 429.939 419.598 430.315 418.94C430.691 418.268 431.215 417.751 431.887 417.389C432.558 417.026 433.344 416.845 434.244 416.845C435.144 416.845 435.943 417.046 436.641 417.449C437.326 417.839 437.863 418.403 438.253 419.141C438.629 419.867 438.817 420.74 438.817 421.76ZM438.636 415.624L424.432 409.358L424.432 407.908L438.636 401.541L438.636 403.274L434.586 405.047L435.009 404.301L435.009 412.985L434.586 412.179L438.636 413.911L438.636 415.624ZM426.346 408.653L434.002 411.917L433.639 412.4L433.639 404.906L434.002 405.268L426.346 408.613L426.346 408.653ZM438.817 394.664C438.817 396.384 438.213 397.713 437.004 398.653C435.782 399.58 434.076 400.043 431.887 400.043C430.248 400.043 428.865 399.808 427.736 399.338C426.595 398.868 425.728 398.197 425.138 397.324C424.547 396.451 424.251 395.396 424.251 394.161C424.251 393.422 424.406 392.677 424.714 391.924C425.01 391.172 425.426 390.555 425.964 390.071L427.253 390.675C426.729 391.186 426.346 391.743 426.105 392.348C425.849 392.952 425.722 393.563 425.722 394.181C425.722 395.551 426.212 396.605 427.192 397.344C428.159 398.069 429.617 398.432 431.564 398.432L433.438 398.432L433.438 398.613C432.672 398.519 432.014 398.291 431.463 397.928C430.899 397.552 430.47 397.062 430.174 396.457C429.879 395.853 429.731 395.181 429.731 394.443C429.731 393.583 429.919 392.824 430.295 392.166C430.671 391.508 431.202 390.991 431.887 390.615C432.558 390.239 433.33 390.051 434.203 390.051C435.09 390.051 435.882 390.246 436.581 390.635C437.279 391.025 437.83 391.569 438.233 392.267C438.622 392.965 438.817 393.765 438.817 394.664ZM437.407 394.785C437.407 394.167 437.279 393.623 437.024 393.153C436.755 392.67 436.386 392.301 435.916 392.045C435.432 391.777 434.882 391.642 434.264 391.642C433.646 391.642 433.102 391.777 432.632 392.045C432.162 392.301 431.793 392.67 431.524 393.153C431.255 393.623 431.121 394.167 431.121 394.785C431.121 395.403 431.255 395.947 431.524 396.417C431.793 396.887 432.162 397.257 432.632 397.525C433.102 397.78 433.646 397.908 434.264 397.908C434.882 397.908 435.432 397.78 435.916 397.525C436.386 397.257 436.755 396.887 437.024 396.417C437.279 395.947 437.407 395.403 437.407 394.785Z" fill="#051436"/>
<path d="M581.897 473.65L578.23 472.905L578.23 474.778L577.042 474.778L577.042 472.703L572.388 471.736L572.388 474.355L571.199 474.355L571.199 471.515L567.694 470.81L567.694 469.52L571.199 470.225L571.199 467.042L567.694 466.337L567.694 465.048L571.199 465.753L571.199 463.899L572.388 463.899L572.388 465.995L577.042 466.941L577.042 464.302L578.23 464.302L578.23 467.163L581.897 467.908L581.897 469.218L578.23 468.473L578.23 471.636L581.897 472.341L581.897 473.65ZM577.042 471.394L577.042 468.231L572.388 467.284L572.388 470.467L577.042 471.394ZM582.078 457.259C582.078 458.871 581.454 460.106 580.205 460.966C578.956 461.825 577.149 462.255 574.785 462.255C572.408 462.255 570.602 461.825 569.366 460.966C568.13 460.106 567.513 458.871 567.513 457.259C567.513 455.634 568.13 454.398 569.366 453.552C570.602 452.692 572.401 452.263 574.765 452.263C577.143 452.263 578.956 452.692 580.205 453.552C581.454 454.412 582.078 455.647 582.078 457.259ZM580.628 457.259C580.628 456.131 580.151 455.291 579.197 454.741C578.244 454.19 576.766 453.915 574.765 453.915C572.751 453.915 571.28 454.19 570.353 454.741C569.413 455.291 568.943 456.131 568.943 457.259C568.943 458.374 569.413 459.213 570.353 459.777C571.293 460.328 572.764 460.603 574.765 460.603C576.766 460.603 578.244 460.328 579.197 459.777C580.151 459.213 580.628 458.374 580.628 457.259ZM582.078 444.917C582.078 445.535 582.011 446.139 581.877 446.73C581.743 447.321 581.548 447.879 581.293 448.402C581.038 448.913 580.729 449.363 580.366 449.752L579.077 449.128C579.6 448.47 579.99 447.798 580.245 447.113C580.487 446.428 580.608 445.696 580.608 444.917C580.608 443.896 580.332 443.097 579.782 442.52C579.231 441.942 578.506 441.653 577.606 441.653C576.679 441.653 575.92 441.929 575.329 442.479C574.738 443.03 574.443 443.796 574.443 444.776C574.443 445.474 574.584 446.099 574.866 446.65C575.135 447.2 575.558 447.677 576.135 448.08L576.135 449.289L567.694 449.289L567.694 440.868L569.104 440.868L569.104 447.677L574.765 447.677L574.765 448.12C574.201 447.758 573.771 447.261 573.476 446.629C573.167 445.985 573.013 445.26 573.013 444.454C573.013 443.54 573.201 442.755 573.577 442.097C573.953 441.425 574.477 440.908 575.148 440.545C575.82 440.183 576.605 440.001 577.505 440.001C578.405 440.001 579.204 440.203 579.903 440.606C580.588 440.995 581.125 441.559 581.514 442.298C581.89 443.023 582.078 443.896 582.078 444.917ZM581.897 436.584L580.467 436.584L580.467 433.24L569.124 433.24L569.124 432.354L571.562 436.262L569.89 436.262L567.694 432.777L567.694 431.568L580.467 431.568L580.467 428.425L581.897 428.425L581.897 436.584ZM581.897 419.286L578.815 419.286L578.815 426.056L577.606 426.056L567.694 419.025L567.694 417.655L577.465 417.655L577.465 415.479L578.815 415.479L578.815 417.655L581.897 417.655L581.897 419.286ZM577.465 419.286L569.668 419.286L569.668 418.843L577.888 424.686L577.465 424.686L577.465 419.286ZM582.078 409.02C582.078 409.973 581.931 410.887 581.635 411.76C581.34 412.633 580.917 413.365 580.366 413.955L579.077 413.331C579.614 412.673 580.003 411.995 580.245 411.296C580.487 410.598 580.608 409.846 580.608 409.04C580.608 407.979 580.386 407.173 579.943 406.622C579.486 406.072 578.821 405.796 577.948 405.796C577.116 405.796 576.484 406.078 576.055 406.642C575.611 407.206 575.39 408.032 575.39 409.12L575.39 411.256L574 411.256L574 409.261C574 408.321 573.758 407.576 573.274 407.025C572.791 406.474 572.133 406.199 571.3 406.199C570.548 406.199 569.977 406.454 569.588 406.965C569.185 407.462 568.983 408.18 568.983 409.12C568.983 410.651 569.527 411.974 570.615 413.089L569.306 413.714C568.741 413.163 568.305 412.471 567.996 411.639C567.674 410.806 567.513 409.933 567.513 409.02C567.513 407.623 567.835 406.528 568.48 405.736C569.124 404.943 570.017 404.547 571.159 404.547C572.032 404.547 572.784 404.796 573.415 405.293C574.033 405.789 574.456 406.461 574.685 407.307L574.463 407.307C574.624 406.3 575.027 405.521 575.672 404.97C576.303 404.42 577.102 404.144 578.069 404.144C579.305 404.144 580.285 404.581 581.011 405.454C581.722 406.313 582.078 407.502 582.078 409.02ZM582.078 396.396C582.078 398.115 581.474 399.445 580.265 400.385C579.043 401.311 577.337 401.775 575.148 401.775C573.509 401.775 572.126 401.54 570.998 401.07C569.856 400.6 568.99 399.928 568.399 399.055C567.808 398.182 567.513 397.128 567.513 395.892C567.513 395.153 567.667 394.408 567.976 393.656C568.271 392.904 568.688 392.286 569.225 391.802L570.514 392.407C569.991 392.917 569.608 393.474 569.366 394.079C569.111 394.683 568.983 395.294 568.983 395.912C568.983 397.282 569.473 398.336 570.454 399.075C571.421 399.8 572.878 400.163 574.826 400.163L576.699 400.163L576.699 400.344C575.934 400.25 575.276 400.022 574.725 399.659C574.161 399.283 573.731 398.793 573.436 398.189C573.14 397.584 572.992 396.913 572.992 396.174C572.992 395.315 573.18 394.556 573.556 393.898C573.933 393.239 574.463 392.722 575.148 392.346C575.82 391.97 576.592 391.782 577.465 391.782C578.351 391.782 579.144 391.977 579.842 392.366C580.541 392.756 581.091 393.3 581.494 393.998C581.884 394.697 582.078 395.496 582.078 396.396ZM580.668 396.517C580.668 395.899 580.541 395.355 580.285 394.885C580.017 394.401 579.647 394.032 579.177 393.777C578.694 393.508 578.143 393.374 577.525 393.374C576.907 393.374 576.364 393.508 575.893 393.777C575.423 394.032 575.054 394.401 574.785 394.885C574.517 395.355 574.382 395.899 574.382 396.517C574.382 397.134 574.517 397.678 574.785 398.148C575.054 398.619 575.423 398.988 575.893 399.257C576.364 399.512 576.907 399.639 577.525 399.639C578.143 399.639 578.694 399.512 579.177 399.257C579.647 398.988 580.017 398.619 580.285 398.148C580.541 397.678 580.668 397.134 580.668 396.517Z" fill="#EDF3FF"/>
<path d="M720.005 473.65L716.338 472.905L716.338 474.778L715.15 474.778L715.15 472.703L710.496 471.736L710.496 474.355L709.307 474.355L709.307 471.515L705.802 470.81L705.802 469.52L709.307 470.225L709.307 467.042L705.802 466.337L705.802 465.048L709.307 465.753L709.307 463.899L710.496 463.899L710.496 465.995L715.15 466.941L715.15 464.302L716.338 464.302L716.338 467.163L720.005 467.908L720.005 469.218L716.338 468.473L716.338 471.636L720.005 472.341L720.005 473.65ZM715.15 471.394L715.15 468.231L710.496 467.284L710.496 470.467L715.15 471.394ZM720.005 461.53L705.802 461.53L705.802 452.464L707.172 452.464L707.172 459.898L712.108 459.898L712.108 452.907L713.498 452.907L713.498 459.898L718.615 459.898L718.615 452.464L720.005 452.464L720.005 461.53ZM720.005 449.686L705.802 449.686L705.802 444.972C705.802 443.4 706.077 442.071 706.628 440.983C707.165 439.895 707.964 439.069 709.025 438.505C710.073 437.941 711.362 437.659 712.893 437.659C714.411 437.659 715.7 437.941 716.761 438.505C717.822 439.069 718.628 439.895 719.179 440.983C719.73 442.071 720.005 443.4 720.005 444.972L720.005 449.686ZM718.575 448.014L718.575 445.093C718.575 443.159 718.105 441.722 717.164 440.781C716.211 439.841 714.787 439.371 712.893 439.371C710.986 439.371 709.562 439.841 708.622 440.781C707.682 441.722 707.212 443.159 707.212 445.093L707.212 448.014L718.575 448.014ZM720.005 434.635L705.802 434.635L705.802 425.771L707.172 425.771L707.172 432.963L712.148 432.963L712.148 426.214L713.518 426.214L713.518 432.963L720.005 432.963L720.005 434.635ZM720.186 419.132C720.186 420.086 720.039 420.999 719.743 421.872C719.448 422.745 719.025 423.477 718.474 424.068L717.185 423.444C717.722 422.785 718.111 422.107 718.353 421.409C718.595 420.71 718.716 419.958 718.716 419.152C718.716 418.091 718.494 417.285 718.051 416.735C717.594 416.184 716.929 415.909 716.056 415.909C715.224 415.909 714.592 416.191 714.163 416.755C713.719 417.319 713.498 418.145 713.498 419.233L713.498 421.368L712.108 421.368L712.108 419.374C712.108 418.434 711.866 417.688 711.382 417.138C710.899 416.587 710.241 416.312 709.408 416.312C708.656 416.312 708.085 416.567 707.696 417.077C707.293 417.574 707.091 418.293 707.091 419.233C707.091 420.764 707.635 422.087 708.723 423.202L707.414 423.826C706.849 423.276 706.413 422.584 706.104 421.751C705.782 420.918 705.62 420.045 705.62 419.132C705.62 417.735 705.943 416.641 706.588 415.848C707.232 415.056 708.125 414.66 709.267 414.66C710.14 414.66 710.892 414.908 711.523 415.405C712.141 415.902 712.564 416.574 712.793 417.42L712.571 417.42C712.732 416.412 713.135 415.633 713.78 415.083C714.411 414.532 715.21 414.257 716.177 414.257C717.413 414.257 718.393 414.693 719.119 415.566C719.83 416.426 720.186 417.614 720.186 419.132ZM720.005 411.243L705.802 411.243L705.802 402.378L707.172 402.378L707.172 409.571L712.148 409.571L712.148 402.821L713.518 402.821L713.518 409.571L720.005 409.571L720.005 411.243ZM720.005 399.93L705.802 399.93L705.802 391.066L707.172 391.066L707.172 398.258L712.148 398.258L712.148 391.509L713.518 391.509L713.518 398.258L720.005 398.258L720.005 399.93Z" fill="#051436"/>
</g>
<defs>
<clipPath id="clip0_158_605">
<rect width="1250" height="450" fill="white" transform="translate(0.969116 146)"/>
</clipPath>
</defs>
</svg>
