<svg width="1251" height="601" viewBox="0 0 1251 601" fill="none" xmlns="http://www.w3.org/2000/svg" xmlns:xlink="http://www.w3.org/1999/xlink">
<path d="M23.4691 54.75C17.2691 54.75 12.4941 52.4 9.14412 47.7C5.79412 42.95 4.11912 36.2 4.11912 27.45C4.11912 18.6 5.79412 11.875 9.14412 7.275C12.4941 2.675 17.2691 0.374997 23.4691 0.374997C29.7191 0.374997 34.4941 2.675 37.7941 7.275C41.1441 11.875 42.8191 18.575 42.8191 27.375C42.8191 36.175 41.1441 42.95 37.7941 47.7C34.4941 52.4 29.7191 54.75 23.4691 54.75ZM23.4691 46.8C26.8691 46.8 29.3941 45.25 31.0441 42.15C32.6941 39 33.5191 34.075 33.5191 27.375C33.5191 20.675 32.6941 15.825 31.0441 12.825C29.3941 9.775 26.8691 8.25 23.4691 8.25C20.1191 8.25 17.5941 9.775 15.8941 12.825C14.2441 15.825 13.4191 20.675 13.4191 27.375C13.4191 34.075 14.2441 39 15.8941 42.15C17.5941 45.25 20.1191 46.8 23.4691 46.8ZM68.8148 54.75C66.5148 54.75 64.2148 54.5 61.9148 54C59.6648 53.5 57.5398 52.8 55.5398 51.9C53.5898 51 51.9148 49.925 50.5148 48.675L53.6648 41.4C56.0148 43.15 58.4148 44.475 60.8648 45.375C63.3648 46.225 65.9648 46.65 68.6648 46.65C71.9148 46.65 74.4398 45.85 76.2398 44.25C78.0898 42.6 79.0148 40.4 79.0148 37.65C79.0148 34.85 78.1398 32.6 76.3898 30.9C74.6398 29.15 72.2398 28.275 69.1898 28.275C67.0398 28.275 65.0648 28.7 63.2648 29.55C61.5148 30.35 59.9398 31.6 58.5398 33.3H52.1648V1.125H85.0148V9.075H61.3148V25.875H58.9898C60.2898 24.125 62.0148 22.775 64.1648 21.825C66.3648 20.875 68.8148 20.4 71.5148 20.4C74.9148 20.4 77.8648 21.1 80.3648 22.5C82.8648 23.9 84.8148 25.875 86.2148 28.425C87.6148 30.925 88.3148 33.875 88.3148 37.275C88.3148 40.725 87.5148 43.775 85.9148 46.425C84.3648 49.025 82.1148 51.075 79.1648 52.575C76.2648 54.025 72.8148 54.75 68.8148 54.75ZM94.9605 54V43.575H105.461V54H94.9605ZM135.945 54V1.125H159.42C165.22 1.125 169.645 2.525 172.695 5.325C175.745 8.125 177.27 11.975 177.27 16.875C177.27 21.725 175.745 25.575 172.695 28.425C169.645 31.275 165.22 32.7 159.42 32.7H145.62V54H135.945ZM145.62 25.05H158.295C161.495 25.05 163.895 24.35 165.495 22.95C167.095 21.5 167.895 19.475 167.895 16.875C167.895 14.275 167.095 12.275 165.495 10.875C163.895 9.425 161.495 8.7 158.295 8.7H145.62V25.05ZM174.553 54L198.478 1.125H206.578L230.803 54H220.978L214.528 39.15L218.428 41.775H186.703L190.753 39.15L184.303 54H174.553ZM202.453 11.475L191.878 36.525L189.928 34.2H215.128L213.553 36.525L202.753 11.475H202.453ZM243.244 54V9.075H225.769V1.125H270.394V9.075H252.919V54H243.244ZM277.229 54V1.125H312.854V8.7H286.529V23.325H311.129V30.975H286.529V46.35H312.854V54H277.229ZM321.834 54V1.125H344.934C350.734 1.125 355.209 2.5 358.359 5.25C361.559 8 363.159 11.825 363.159 16.725C363.159 19.975 362.434 22.75 360.984 25.05C359.584 27.35 357.559 29.125 354.909 30.375C352.259 31.575 349.134 32.175 345.534 32.175L346.584 30.75H349.134C351.234 30.75 353.109 31.3 354.759 32.4C356.409 33.5 357.759 35.175 358.809 37.425L366.534 54H355.884L348.084 36.825C347.384 35.075 346.309 33.925 344.859 33.375C343.459 32.825 341.759 32.55 339.759 32.55H331.509V54H321.834ZM331.509 25.425H343.359C346.759 25.425 349.334 24.725 351.084 23.325C352.884 21.875 353.784 19.775 353.784 17.025C353.784 14.275 352.884 12.2 351.084 10.8C349.334 9.4 346.759 8.7 343.359 8.7H331.509V25.425ZM374.495 54V1.125H381.77L412.445 40.8H410.495V1.125H419.495V54H412.22L381.62 14.325H383.495V54H374.495ZM431.111 54V1.125H466.736V8.7H440.411V23.325H465.011V30.975H440.411V46.35H466.736V54H431.111Z" fill="#EDF3FF"/>
<g clip-path="url(#clip0_197_391)">
<rect x="2" y="146" width="1249.11" height="438.014" fill="url(#pattern0_197_391)"/>
</g>
<defs>
<clipPath id="clip0_197_391">
<rect width="1250" height="455" fill="white" transform="translate(0.969116 146)"/>
</clipPath>
<pattern id="pattern0_197_391" patternUnits="userSpaceOnUse" patternTransform="matrix(114.135 0 0 109.456 569.489 529.286)" preserveAspectRatio="none" viewBox="0 0 356.671 342.049" width="1" height="1">
<use xlink:href="#pattern0_197_391_inner" transform="translate(-713.343 0)"/>
<use xlink:href="#pattern0_197_391_inner" transform="translate(-356.671 0)"/>
<g id="pattern0_197_391_inner">
<path d="M213.686 112.846L201.277 124.693L196.7 119.899C196.871 116.637 197.053 113.329 197.396 110.072C197.992 104.577 199.679 98.5055 200.05 93.2059C200.236 90.5465 199.767 88.5498 196.751 88.0883L187.009 88.6736L193.018 81.1276L215.77 76.9492L257.671 70.8572L244.686 83.2535C233.611 85.2972 221.461 85.1583 210.488 87.3476C205.692 88.3055 208.407 91.0322 209.325 93.4213C211.72 99.6444 211.954 106.457 213.657 112.855L213.686 112.846Z" fill="#EDF3FF"/>
<path d="M195.898 129.379C195.881 129.694 192.388 130.024 191.881 130.079C179.329 131.219 165.89 128.186 153.252 128.065L151.557 127.443L173.818 105.39C174.456 105.863 175.134 106.28 175.723 106.819C180.903 111.502 189.762 120.606 194.057 126.024C194.956 127.162 195.112 128.263 195.907 129.389L195.898 129.379ZM186.383 125.492L173.428 111.921L161.141 123.426L186.383 125.492Z" fill="#EDF3FF"/>
<path d="M151.51 143.892C154.726 146.009 152.445 151.284 152.64 154.811C152.835 158.339 154.526 162.827 154.447 165.832C154.333 169.916 151.028 169.543 148.436 167.688C143.365 164.076 138.614 157.77 133.176 154.693C132.404 154.255 131.38 154.337 130.678 153.738C129.321 152.57 129.619 150.811 130.998 149.831C132.794 148.546 139.686 146.128 142.11 145.325C144.208 144.629 149.676 142.675 151.529 143.892L151.51 143.892ZM148.258 160.992C148.056 156.948 147.163 153.042 147.964 148.974L138.168 152.298C141.823 154.818 145.152 157.817 148.258 160.992Z" fill="#EDF3FF"/>
<path d="M178.384 144.754L158.464 165.114C158.103 160.905 159.48 156.307 159.584 152.213C159.656 149.551 158.517 146.775 160.219 144.218L176.461 144.127L178.384 144.754Z" fill="#EDF3FF"/>
<path d="M145.717 137.609C145.792 136.436 146.977 135.566 148.052 135.324C150.864 134.692 157.509 134.674 160.652 134.623C168.875 134.499 177.134 135.273 185.347 135.178C188.601 136.886 187.339 139.845 183.865 140.213C176.974 140.95 167.383 139.544 160.077 139.651C156.782 139.699 151.824 140.624 148.852 140.326C147.405 140.178 145.61 139.334 145.717 137.609Z" fill="#EDF3FF"/>
<path d="M191.453 114.401L177.826 100.127C179.63 98.5172 180.63 95.7336 182.881 94.6115C183.605 94.256 191.997 93.4484 193.208 93.4861C193.58 93.5043 194.356 93.3791 194.567 93.7563L191.453 114.401Z" fill="#EDF3FF"/>
<path d="M218.129 108.605L214.739 92.172L238.027 89.61L218.129 108.605Z" fill="#EDF3FF"/>
<path d="M42.9987 113.428L55.13 125.559L59.8164 120.873C59.721 117.608 59.616 114.296 59.3487 111.032C58.8811 105.525 57.3348 99.4163 57.0866 94.1095C56.9626 91.4465 57.478 89.4613 60.5036 89.0699L70.2297 89.8812L64.3979 82.1978L41.7484 77.4923L0 70.4292L12.6944 83.1236C23.7185 85.4239 35.8689 85.567 46.788 88.0105C51.5603 89.0795 48.7828 91.7424 47.8092 94.1095C45.2703 100.275 44.879 107.081 43.0274 113.437L42.9987 113.428Z" fill="#EDF3FF"/>
<path d="M60.3987 130.369C60.4083 130.684 63.8921 131.095 64.3979 131.162C76.9205 132.593 90.4263 129.873 103.063 130.045L104.772 129.463L83.0291 106.899C82.3801 107.357 81.6929 107.758 81.0916 108.283C75.8038 112.845 66.7364 121.741 62.3172 127.057C61.3914 128.174 61.21 129.272 60.3892 130.379L60.3987 130.369ZM70.0007 126.704L83.2677 113.437L95.2845 125.225L70.0007 126.704Z" fill="#EDF3FF"/>
<path d="M104.438 145.908C101.173 147.951 103.331 153.277 103.054 156.799C102.777 160.321 100.983 164.769 100.992 167.775C101.011 171.86 104.323 171.564 106.958 169.77C112.112 166.277 117.008 160.082 122.515 157.133C123.298 156.713 124.319 156.818 125.035 156.236C126.419 155.1 126.161 153.334 124.806 152.322C123.04 150.996 116.206 148.419 113.801 147.56C111.72 146.815 106.299 144.734 104.419 145.908L104.438 145.908ZM107.292 163.079C107.587 159.042 108.571 155.157 107.864 151.072L117.581 154.623C113.868 157.056 110.47 159.977 107.292 163.079Z" fill="#EDF3FF"/>
<path d="M77.5504 146.147L96.9929 166.964C97.4511 162.764 96.1816 158.135 96.1721 154.04C96.1625 151.377 97.3652 148.628 95.7235 146.032L79.488 145.565L77.5504 146.147Z" fill="#EDF3FF"/>
<path d="M110.375 139.761C110.327 138.587 109.162 137.69 108.093 137.423C105.297 136.726 98.6537 136.554 95.5135 136.43C87.2955 136.115 79.0203 136.698 70.8119 136.411C67.519 138.043 68.7121 141.031 72.1768 141.479C79.0489 142.377 88.67 141.193 95.9716 141.47C99.2645 141.594 104.199 142.634 107.177 142.405C108.628 142.291 110.441 141.489 110.375 139.761Z" fill="#EDF3FF"/>
<path d="M65.1901 115.499L79.1444 101.544C77.3786 99.8933 76.4433 97.0871 74.2194 95.9131C73.5035 95.5409 65.1328 94.5387 63.9207 94.5482C63.5484 94.5578 62.7753 94.4146 62.5558 94.7869L65.1901 115.499Z" fill="#EDF3FF"/>
<path d="M38.656 109.085L42.4261 92.7349L19.2039 89.6328L38.656 109.085Z" fill="#EDF3FF"/>
<path d="M312.686 58.1784L300.277 46.332L295.7 51.126C295.871 54.3871 296.053 57.6958 296.396 60.953C296.992 66.4479 298.679 72.519 299.05 77.8186C299.236 80.478 298.767 82.4747 295.751 82.9362L286.009 82.3509L292.018 89.8969L314.77 94.0753L356.671 100.167L343.686 87.771C332.611 85.7273 320.461 85.8662 309.488 83.6769C304.692 82.719 307.407 79.9923 308.325 77.6032C310.72 71.3801 310.954 64.5675 312.657 58.1695L312.686 58.1784Z" fill="#EDF3FF"/>
<path d="M294.898 41.6451C294.881 41.3304 291.388 41.001 290.881 40.9459C278.329 39.8053 264.89 42.8384 252.252 42.96L250.557 43.5817L272.818 65.6345C273.456 65.1614 274.134 64.7447 274.723 64.2059C279.903 59.522 288.762 50.4183 293.057 45.0008C293.956 43.8628 294.112 42.7613 294.907 41.6354L294.898 41.6451ZM285.383 45.5322L272.428 59.1037L260.141 47.5982L285.383 45.5322Z" fill="#EDF3FF"/>
<path d="M250.51 27.133C253.726 25.0152 251.445 19.7408 251.64 16.2133C251.835 12.6859 253.526 8.1976 253.447 5.19206C253.333 1.10849 250.028 1.48119 247.436 3.33625C242.365 6.94831 237.614 13.2548 232.176 16.3312C231.404 16.7692 230.38 16.6879 229.678 17.2866C228.321 18.4542 228.619 20.2136 229.998 21.1935C231.794 22.4789 238.686 24.8966 241.11 25.6996C243.208 26.3955 248.676 28.3499 250.529 27.1325L250.51 27.133ZM247.258 10.033C247.056 14.0762 246.163 17.9826 246.964 22.0503L237.168 18.7262C240.823 16.2067 244.152 13.208 247.258 10.033Z" fill="#EDF3FF"/>
<path d="M277.384 26.2703L257.464 5.91034C257.103 10.1195 258.48 14.718 258.584 18.8113C258.656 21.4733 257.517 24.2494 259.219 26.8067L275.461 26.8973L277.384 26.2703Z" fill="#EDF3FF"/>
<path d="M244.717 33.416C244.792 34.5886 245.977 35.4585 247.052 35.7008C249.864 36.3325 256.509 36.35 259.652 36.4012C267.875 36.5253 276.134 35.7511 284.347 35.8468C287.601 34.1387 286.339 31.1797 282.865 30.8117C275.974 30.0742 266.383 31.4808 259.077 31.3736C255.782 31.326 250.824 30.4005 247.852 30.6986C246.405 30.8468 244.61 31.6904 244.717 33.416Z" fill="#EDF3FF"/>
<path d="M290.453 56.623L276.826 70.8975C278.63 72.5073 279.63 75.291 281.881 76.413C282.605 76.7685 290.997 77.5761 292.208 77.5384C292.58 77.5203 293.356 77.6454 293.567 77.2682L290.453 56.623Z" fill="#EDF3FF"/>
<path d="M317.129 62.4193L313.739 78.8525L337.027 81.4146L317.129 62.4193Z" fill="#EDF3FF"/>
<path d="M141.999 57.5966L154.13 45.4653L158.816 50.1518C158.721 53.416 158.616 56.728 158.349 59.9923C157.881 65.4996 156.335 71.6082 156.087 76.915C155.963 79.578 156.478 81.5633 159.504 81.9546L169.23 81.1433L163.398 88.8268L140.748 93.5323L99 100.595L111.694 87.9009C122.718 85.6006 134.869 85.4575 145.788 83.014C150.56 81.945 147.783 79.2821 146.809 76.915C144.27 70.7491 143.879 63.9438 142.027 57.5871L141.999 57.5966Z" fill="#EDF3FF"/>
<path d="M159.399 40.6551C159.408 40.3402 162.892 39.9297 163.398 39.8629C175.921 38.4312 189.426 41.1515 202.063 40.9797L203.772 41.5619L182.029 64.1255C181.38 63.6673 180.693 63.2665 180.092 62.7415C174.804 58.1792 165.736 49.2835 161.317 43.9671C160.391 42.8504 160.21 41.7528 159.389 40.6456L159.399 40.6551ZM169.001 44.3203L182.268 57.5874L194.284 45.7997L169.001 44.3203Z" fill="#EDF3FF"/>
<path d="M203.438 25.1162C200.173 23.0737 202.331 17.7478 202.054 14.2258C201.777 10.7038 199.983 6.25598 199.992 3.24941C200.011 -0.83571 203.323 -0.539822 205.958 1.25458C211.112 4.74792 216.008 10.9424 221.515 13.8917C222.298 14.3117 223.319 14.2067 224.035 14.7889C225.419 15.9247 225.161 17.6905 223.806 18.7022C222.04 20.0289 215.206 22.606 212.801 23.465C210.72 24.2095 205.299 26.2902 203.419 25.1162L203.438 25.1162ZM206.292 7.94538C206.587 11.9828 207.571 15.8675 206.864 19.9526L216.581 16.402C212.868 13.9681 209.47 11.0474 206.292 7.94538Z" fill="#EDF3FF"/>
<path d="M176.55 24.8778L195.993 4.06083C196.451 8.26048 195.182 12.8897 195.172 16.9843C195.163 19.6473 196.365 22.3961 194.723 24.9923L178.488 25.46L176.55 24.8778Z" fill="#EDF3FF"/>
<path d="M209.375 31.2632C209.327 32.4372 208.162 33.3344 207.093 33.6016C204.297 34.2984 197.654 34.4702 194.514 34.5943C186.296 34.9092 178.02 34.327 169.812 34.6133C166.519 32.9812 167.712 29.9937 171.177 29.5451C178.049 28.6479 187.67 29.8315 194.972 29.5547C198.265 29.4306 203.199 28.3902 206.177 28.6193C207.628 28.7338 209.441 29.5356 209.375 31.2632Z" fill="#EDF3FF"/>
<path d="M164.19 55.5257L178.144 69.48C176.379 71.1313 175.443 73.9374 173.219 75.1114C172.504 75.4836 164.133 76.4858 162.921 76.4763C162.548 76.4667 161.775 76.6099 161.556 76.2377L164.19 55.5257Z" fill="#EDF3FF"/>
<path d="M137.656 61.9396L141.426 78.2897L118.204 81.3917L137.656 61.9396Z" fill="#EDF3FF"/>
</g>
<use xlink:href="#pattern0_197_391_inner" transform="translate(-535.007 171.025)"/>
<use xlink:href="#pattern0_197_391_inner" transform="translate(-178.336 171.025)"/>
<use xlink:href="#pattern0_197_391_inner" transform="translate(178.336 171.025)"/>
</pattern></defs>
</svg>
