<svg width="1250" height="497" viewBox="0 0 1250 497" fill="none" xmlns="http://www.w3.org/2000/svg">
<path d="M22.5 54.75C16.3 54.75 11.525 52.4 8.175 47.7C4.825 42.95 3.15 36.2 3.15 27.45C3.15 18.6 4.825 11.875 8.175 7.275C11.525 2.675 16.3 0.374997 22.5 0.374997C28.75 0.374997 33.525 2.675 36.825 7.275C40.175 11.875 41.85 18.575 41.85 27.375C41.85 36.175 40.175 42.95 36.825 47.7C33.525 52.4 28.75 54.75 22.5 54.75ZM22.5 46.8C25.9 46.8 28.425 45.25 30.075 42.15C31.725 39 32.55 34.075 32.55 27.375C32.55 20.675 31.725 15.825 30.075 12.825C28.425 9.775 25.9 8.25 22.5 8.25C19.15 8.25 16.625 9.775 14.925 12.825C13.275 15.825 12.45 20.675 12.45 27.375C12.45 34.075 13.275 39 14.925 42.15C16.625 45.25 19.15 46.8 22.5 46.8ZM66.6457 54.75C62.9957 54.75 59.4957 54.225 56.1457 53.175C52.7957 52.075 50.0457 50.575 47.8957 48.675L51.0457 41.4C53.3957 43.2 55.8207 44.525 58.3207 45.375C60.8707 46.225 63.5457 46.65 66.3457 46.65C69.7457 46.65 72.3207 45.975 74.0707 44.625C75.8207 43.275 76.6957 41.3 76.6957 38.7C76.6957 36.2 75.8207 34.325 74.0707 33.075C72.3707 31.775 69.8707 31.125 66.5707 31.125H58.0207V23.4H65.7457C68.5957 23.4 70.8707 22.7 72.5707 21.3C74.2707 19.9 75.1207 17.975 75.1207 15.525C75.1207 13.225 74.3207 11.475 72.7207 10.275C71.1707 9.075 68.9207 8.475 65.9707 8.475C60.6707 8.475 55.9957 10.275 51.9457 13.875L48.7957 6.675C50.9457 4.675 53.5957 3.125 56.7457 2.025C59.9457 0.924998 63.2957 0.374997 66.7957 0.374997C72.2957 0.374997 76.5957 1.625 79.6957 4.125C82.8457 6.575 84.4207 10 84.4207 14.4C84.4207 17.55 83.5207 20.275 81.7207 22.575C79.9707 24.825 77.5457 26.325 74.4457 27.075V26.175C78.0957 26.775 80.9207 28.275 82.9207 30.675C84.9707 33.025 85.9957 35.975 85.9957 39.525C85.9957 44.225 84.2707 47.95 80.8207 50.7C77.3707 53.4 72.6457 54.75 66.6457 54.75ZM93.9914 54V43.575H104.491V54H93.9914ZM159.576 54.75C154.076 54.75 149.351 53.65 145.401 51.45C141.501 49.2 138.501 46.05 136.401 42C134.301 37.9 133.251 33.075 133.251 27.525C133.251 21.975 134.301 17.175 136.401 13.125C138.501 9.075 141.501 5.95 145.401 3.75C149.351 1.5 154.076 0.374997 159.576 0.374997C163.276 0.374997 166.601 0.899998 169.551 1.95C172.551 3 175.126 4.55 177.276 6.6L174.126 14.25C171.776 12.35 169.501 11 167.301 10.2C165.151 9.35 162.676 8.925 159.876 8.925C154.526 8.925 150.426 10.55 147.576 13.8C144.776 17 143.376 21.575 143.376 27.525C143.376 33.475 144.776 38.075 147.576 41.325C150.426 44.575 154.526 46.2 159.876 46.2C162.676 46.2 165.151 45.8 167.301 45C169.501 44.15 171.776 42.75 174.126 40.8L177.276 48.45C175.126 50.45 172.551 52 169.551 53.1C166.601 54.2 163.276 54.75 159.576 54.75ZM182.909 27.525C182.909 21.975 183.909 17.175 185.909 13.125C187.959 9.075 190.884 5.95 194.684 3.75C198.484 1.5 203.009 0.374997 208.259 0.374997C213.459 0.374997 217.959 1.5 221.759 3.75C225.559 5.95 228.484 9.075 230.534 13.125C232.634 17.175 233.684 21.95 233.684 27.45C233.684 33 232.634 37.825 230.534 41.925C228.484 45.975 225.559 49.125 221.759 51.375C217.959 53.625 213.459 54.75 208.259 54.75C203.009 54.75 198.484 53.625 194.684 51.375C190.934 49.125 188.034 45.975 185.984 41.925C183.934 37.825 182.909 33.025 182.909 27.525ZM193.034 27.525C193.034 33.475 194.309 38.125 196.859 41.475C199.409 44.825 203.209 46.5 208.259 46.5C213.159 46.5 216.934 44.825 219.584 41.475C222.234 38.125 223.559 33.475 223.559 27.525C223.559 21.525 222.234 16.875 219.584 13.575C216.984 10.275 213.209 8.625 208.259 8.625C203.209 8.625 199.409 10.275 196.859 13.575C194.309 16.875 193.034 21.525 193.034 27.525ZM265.717 54.75C258.167 54.75 252.542 52.875 248.842 49.125C245.192 45.325 243.367 39.725 243.367 32.325V1.125H253.042V32.25C253.042 36.95 254.042 40.5 256.042 42.9C258.092 45.3 261.317 46.5 265.717 46.5C269.917 46.5 273.067 45.3 275.167 42.9C277.317 40.5 278.392 36.95 278.392 32.25V1.125H287.917V32.325C287.917 39.725 286.042 45.325 282.292 49.125C278.592 52.875 273.067 54.75 265.717 54.75ZM299.185 54V1.125H308.86V45.825H333.76V54H299.185ZM341.153 54V1.125H376.778V8.7H350.453V23.325H375.053V30.975H350.453V46.35H376.778V54H341.153ZM407.807 54.75C400.257 54.75 394.632 52.875 390.932 49.125C387.282 45.325 385.457 39.725 385.457 32.325V1.125H395.132V32.25C395.132 36.95 396.132 40.5 398.132 42.9C400.182 45.3 403.407 46.5 407.807 46.5C412.007 46.5 415.157 45.3 417.257 42.9C419.407 40.5 420.482 36.95 420.482 32.25V1.125H430.007V32.325C430.007 39.725 428.132 45.325 424.382 49.125C420.682 52.875 415.157 54.75 407.807 54.75ZM441.275 54V1.125H464.375C470.175 1.125 474.65 2.5 477.8 5.25C481 8 482.6 11.825 482.6 16.725C482.6 19.975 481.875 22.75 480.425 25.05C479.025 27.35 477 29.125 474.35 30.375C471.7 31.575 468.575 32.175 464.975 32.175L466.025 30.75H468.575C470.675 30.75 472.55 31.3 474.2 32.4C475.85 33.5 477.2 35.175 478.25 37.425L485.975 54H475.325L467.525 36.825C466.825 35.075 465.75 33.925 464.3 33.375C462.9 32.825 461.2 32.55 459.2 32.55H450.95V54H441.275ZM450.95 25.425H462.8C466.2 25.425 468.775 24.725 470.525 23.325C472.325 21.875 473.225 19.775 473.225 17.025C473.225 14.275 472.325 12.2 470.525 10.8C468.775 9.4 466.2 8.7 462.8 8.7H450.95V25.425ZM512.239 54.75C507.989 54.75 504.064 54.225 500.464 53.175C496.914 52.075 493.864 50.575 491.314 48.675L494.314 41.1C496.014 42.3 497.789 43.325 499.639 44.175C501.489 44.975 503.464 45.6 505.564 46.05C507.664 46.45 509.889 46.65 512.239 46.65C516.189 46.65 519.039 46 520.789 44.7C522.539 43.4 523.414 41.7 523.414 39.6C523.414 37.75 522.814 36.35 521.614 35.4C520.414 34.4 518.264 33.575 515.164 32.925L506.689 31.2C501.839 30.2 498.214 28.525 495.814 26.175C493.414 23.825 492.214 20.675 492.214 16.725C492.214 13.425 493.089 10.55 494.839 8.1C496.589 5.65 499.039 3.75 502.189 2.4C505.339 1.05 509.014 0.374997 513.214 0.374997C516.964 0.374997 520.439 0.924998 523.639 2.025C526.839 3.075 529.514 4.6 531.664 6.6L528.664 13.8C526.514 12 524.164 10.675 521.614 9.825C519.064 8.925 516.214 8.475 513.064 8.475C509.514 8.475 506.739 9.175 504.739 10.575C502.789 11.925 501.814 13.8 501.814 16.2C501.814 18.05 502.414 19.525 503.614 20.625C504.864 21.725 506.964 22.575 509.914 23.175L518.314 24.825C523.314 25.825 527.014 27.475 529.414 29.775C531.814 32.025 533.014 35.075 533.014 38.925C533.014 42.075 532.164 44.85 530.464 47.25C528.764 49.6 526.364 51.45 523.264 52.8C520.164 54.1 516.489 54.75 512.239 54.75Z" fill="#EDF3FF"/>
<g clip-path="url(#clip0_197_1005)">
<rect y="146" width="282.216" height="351.27" rx="20" fill="#EA652C"/>
<rect x="129.064" y="146" width="282.216" height="351.27" rx="20" fill="#E68733"/>
<rect x="262.098" y="146" width="282.216" height="351.27" rx="20" fill="#EFAE50"/>
<rect x="403.207" y="146" width="282.216" height="351.27" rx="20" fill="#509BA0"/>
<rect x="544.315" y="146" width="282.216" height="351.27" rx="20" fill="#377E82"/>
<rect x="685.423" y="146" width="282.216" height="351.27" rx="20" fill="#285E60"/>
<rect x="826.026" y="146" width="282.216" height="351.27" rx="20" fill="#FFFEFC"/>
<rect x="967.927" y="146" width="282.216" height="351.27" rx="20" fill="#0A2021"/>
<path d="M34 473.65L30.3334 472.905L30.3334 474.778L29.1447 474.778L29.1447 472.703L24.4909 471.736L24.4909 474.355L23.3023 474.355L23.3023 471.515L19.7968 470.81L19.7968 469.52L23.3023 470.225L23.3023 467.042L19.7968 466.337L19.7968 465.048L23.3023 465.753L23.3023 463.899L24.4909 463.899L24.4909 465.995L29.1447 466.941L29.1447 464.302L30.3334 464.302L30.3334 467.163L34 467.908L34 469.218L30.3334 468.473L30.3334 471.636L34 472.341L34 473.65ZM29.1447 471.394L29.1447 468.231L24.4909 467.284L24.4909 470.467L29.1447 471.394ZM34 461.53L19.7968 461.53L19.7968 452.464L21.1667 452.464L21.1667 459.898L26.1026 459.898L26.1026 452.907L27.4927 452.907L27.4927 459.898L32.6099 459.898L32.6099 452.464L34 452.464L34 461.53ZM34 451.372L19.7968 445.106L19.7968 443.656L34 437.289L34 439.022L29.9506 440.795L30.3736 440.049L30.3736 448.733L29.9506 447.927L34 449.659L34 451.372ZM21.7107 444.401L29.3663 447.665L29.0037 448.148L29.0037 440.654L29.3663 441.017L21.7107 444.361L21.7107 444.401ZM34.1813 430.412C34.1813 432.132 33.5769 433.461 32.3681 434.401C31.1459 435.328 29.4402 435.792 27.251 435.792C25.6124 435.792 24.229 435.556 23.1008 435.086C21.9592 434.616 21.0929 433.945 20.5019 433.072C19.9109 432.199 19.6155 431.144 19.6155 429.909C19.6155 429.17 19.7699 428.425 20.0788 427.673C20.3743 426.92 20.7907 426.303 21.3279 425.819L22.6173 426.423C22.0935 426.934 21.7107 427.491 21.4689 428.096C21.2137 428.7 21.0862 429.311 21.0862 429.929C21.0862 431.299 21.5764 432.353 22.5568 433.092C23.5239 433.817 24.9811 434.18 26.9286 434.18L28.8022 434.18L28.8022 434.361C28.0367 434.267 27.3785 434.039 26.8279 433.676C26.2638 433.3 25.834 432.81 25.5385 432.205C25.243 431.601 25.0953 430.93 25.0953 430.191C25.0953 429.331 25.2833 428.572 25.6594 427.914C26.0355 427.256 26.566 426.739 27.251 426.363C27.9225 425.987 28.6948 425.799 29.5678 425.799C30.4542 425.799 31.2467 425.994 31.9451 426.383C32.6435 426.773 33.1941 427.317 33.5971 428.015C33.9866 428.713 34.1813 429.513 34.1813 430.412ZM32.7711 430.533C32.7711 429.915 32.6435 429.372 32.3883 428.901C32.1197 428.418 31.7503 428.049 31.2802 427.793C30.7967 427.525 30.2461 427.39 29.6282 427.39C29.0104 427.39 28.4665 427.525 27.9964 427.793C27.5263 428.049 27.1569 428.418 26.8883 428.901C26.6197 429.372 26.4854 429.915 26.4854 430.533C26.4854 431.151 26.6197 431.695 26.8883 432.165C27.1569 432.635 27.5263 433.005 27.9964 433.273C28.4665 433.528 29.0104 433.656 29.6282 433.656C30.2461 433.656 30.7967 433.528 31.2802 433.273C31.7503 433.005 32.1197 432.635 32.3883 432.165C32.6435 431.695 32.7711 431.151 32.7711 430.533ZM34.1813 418.534C34.1813 419.152 34.1142 419.756 33.9799 420.347C33.8455 420.938 33.6508 421.495 33.3956 422.019C33.1404 422.53 32.8315 422.98 32.4689 423.369L31.1795 422.745C31.7033 422.086 32.0928 421.415 32.348 420.73C32.5897 420.045 32.7106 419.313 32.7106 418.534C32.7106 417.513 32.4353 416.714 31.8846 416.137C31.334 415.559 30.6087 415.27 29.7088 415.27C28.7821 415.27 28.0232 415.546 27.4323 416.096C26.8413 416.647 26.5458 417.412 26.5458 418.393C26.5458 419.091 26.6869 419.716 26.9689 420.267C27.2375 420.817 27.6606 421.294 28.2381 421.697L28.2381 422.906L19.7968 422.906L19.7968 414.484L21.207 414.484L21.207 421.294L26.8682 421.294L26.8682 421.737C26.3041 421.375 25.8743 420.878 25.5788 420.246C25.2699 419.602 25.1154 418.876 25.1154 418.071C25.1154 417.157 25.3035 416.372 25.6795 415.713C26.0556 415.042 26.5794 414.525 27.251 414.162C27.9225 413.8 28.7082 413.618 29.6081 413.618C30.508 413.618 31.3071 413.82 32.0055 414.223C32.6905 414.612 33.2277 415.176 33.6172 415.915C33.9933 416.64 34.1813 417.513 34.1813 418.534ZM34 411.027L32.7509 411.027L27.4927 405.991C26.8077 405.332 26.1563 404.842 25.5385 404.52C24.9073 404.184 24.2559 404.016 23.5843 404.016C22.765 404.016 22.1472 404.271 21.7308 404.782C21.301 405.292 21.0862 406.031 21.0862 406.998C21.0862 407.75 21.2205 408.448 21.4891 409.093C21.7443 409.724 22.1539 410.335 22.718 410.926L21.4085 411.531C20.8713 410.994 20.4415 410.309 20.1191 409.476C19.7834 408.643 19.6155 407.763 19.6155 406.837C19.6155 405.4 19.9512 404.292 20.6228 403.513C21.2809 402.734 22.2211 402.344 23.4433 402.344C24.3432 402.344 25.2027 402.566 26.022 403.009C26.8279 403.439 27.6606 404.07 28.5202 404.903L33.033 409.355L32.5696 409.355L32.5696 401.74L34 401.74L34 411.027ZM34.1813 392.722C34.1813 394.146 33.8858 395.354 33.2949 396.348C32.7039 397.342 31.8645 398.108 30.7766 398.645C29.6887 399.169 28.3926 399.431 26.8883 399.431C25.3841 399.431 24.0947 399.169 23.0202 398.645C21.9323 398.108 21.0929 397.342 20.5019 396.348C19.9109 395.354 19.6155 394.146 19.6155 392.722C19.6155 391.715 19.7699 390.815 20.0788 390.022C20.3877 389.23 20.8377 388.538 21.4286 387.947L22.7583 388.572C22.1942 389.217 21.7846 389.854 21.5294 390.486C21.2608 391.117 21.1264 391.856 21.1264 392.702C21.1264 394.327 21.6301 395.563 22.6374 396.409C23.6447 397.255 25.0617 397.678 26.8883 397.678C28.7149 397.678 30.1386 397.255 31.1594 396.409C32.1667 395.563 32.6703 394.327 32.6703 392.702C32.6703 391.856 32.5427 391.117 32.2876 390.486C32.0189 389.854 31.5959 389.217 31.0183 388.572L32.3681 387.947C32.9457 388.538 33.3956 389.23 33.7179 390.022C34.0269 390.815 34.1813 391.715 34.1813 392.722Z" fill="#FFFEFC"/>
<path d="M163.064 473.65L159.397 472.905L159.397 474.778L158.208 474.778L158.208 472.703L153.554 471.736L153.554 474.355L152.366 474.355L152.366 471.515L148.86 470.81L148.86 469.52L152.366 470.225L152.366 467.042L148.86 466.337L148.86 465.048L152.366 465.753L152.366 463.899L153.554 463.899L153.554 465.995L158.208 466.941L158.208 464.302L159.397 464.302L159.397 467.163L163.064 467.908L163.064 469.218L159.397 468.473L159.397 471.636L163.064 472.341L163.064 473.65ZM158.208 471.394L158.208 468.231L153.554 467.284L153.554 470.467L158.208 471.394ZM163.064 461.53L148.86 461.53L148.86 452.464L150.23 452.464L150.23 459.898L155.166 459.898L155.166 452.907L156.556 452.907L156.556 459.898L161.673 459.898L161.673 452.464L163.064 452.464L163.064 461.53ZM163.245 444.952C163.245 446.671 162.641 448 161.432 448.941C160.21 449.867 158.504 450.331 156.315 450.331C154.676 450.331 153.293 450.096 152.164 449.626C151.023 449.156 150.156 448.484 149.566 447.611C148.975 446.738 148.679 445.684 148.679 444.448C148.679 443.709 148.834 442.964 149.142 442.212C149.438 441.46 149.854 440.842 150.392 440.358L151.681 440.963C151.157 441.473 150.774 442.03 150.533 442.635C150.277 443.239 150.15 443.85 150.15 444.468C150.15 445.838 150.64 446.892 151.62 447.631C152.587 448.356 154.045 448.719 155.992 448.719L157.866 448.719L157.866 448.9C157.1 448.806 156.442 448.578 155.891 448.215C155.327 447.839 154.898 447.349 154.602 446.745C154.307 446.14 154.159 445.469 154.159 444.73C154.159 443.87 154.347 443.112 154.723 442.454C155.099 441.795 155.63 441.278 156.315 440.902C156.986 440.526 157.758 440.338 158.631 440.338C159.518 440.338 160.31 440.533 161.009 440.922C161.707 441.312 162.258 441.856 162.661 442.554C163.05 443.253 163.245 444.052 163.245 444.952ZM161.835 445.073C161.835 444.455 161.707 443.911 161.452 443.441C161.183 442.957 160.814 442.588 160.344 442.333C159.86 442.064 159.31 441.93 158.692 441.93C158.074 441.93 157.53 442.064 157.06 442.333C156.59 442.588 156.221 442.957 155.952 443.441C155.683 443.911 155.549 444.455 155.549 445.073C155.549 445.69 155.683 446.234 155.952 446.704C156.221 447.174 156.59 447.544 157.06 447.812C157.53 448.068 158.074 448.195 158.692 448.195C159.31 448.195 159.86 448.068 160.344 447.812C160.814 447.544 161.183 447.174 161.452 446.704C161.707 446.234 161.835 445.69 161.835 445.073ZM163.245 433.335C163.245 434.96 162.902 436.216 162.217 437.102C161.519 437.989 160.545 438.432 159.296 438.432C158.316 438.432 157.503 438.13 156.859 437.526C156.2 436.921 155.804 436.122 155.67 435.128L155.972 435.128C155.784 436.028 155.374 436.747 154.743 437.284C154.098 437.821 153.34 438.09 152.467 438.09C151.271 438.09 150.345 437.667 149.686 436.82C149.015 435.974 148.679 434.812 148.679 433.335C148.679 431.844 149.015 430.676 149.686 429.83C150.345 428.983 151.271 428.56 152.467 428.56C153.34 428.56 154.098 428.816 154.743 429.326C155.388 429.823 155.791 430.521 155.952 431.421L155.67 431.421C155.804 430.441 156.2 429.662 156.859 429.084C157.503 428.507 158.316 428.218 159.296 428.218C160.545 428.218 161.519 428.661 162.217 429.548C162.902 430.434 163.245 431.696 163.245 433.335ZM161.875 433.335C161.875 432.153 161.653 431.273 161.21 430.696C160.767 430.105 160.095 429.809 159.195 429.809C158.309 429.809 157.651 430.105 157.221 430.696C156.778 431.273 156.556 432.153 156.556 433.335C156.556 434.517 156.778 435.403 157.221 435.994C157.651 436.572 158.309 436.861 159.195 436.861C160.095 436.861 160.767 436.565 161.21 435.974C161.653 435.383 161.875 434.504 161.875 433.335ZM155.186 433.335C155.186 432.314 154.958 431.535 154.501 430.998C154.045 430.447 153.413 430.172 152.608 430.172C151.802 430.172 151.177 430.447 150.734 430.998C150.277 431.535 150.049 432.314 150.049 433.335C150.049 434.356 150.277 435.142 150.734 435.692C151.177 436.229 151.802 436.498 152.608 436.498C153.413 436.498 154.045 436.229 154.501 435.692C154.958 435.142 155.186 434.356 155.186 433.335ZM163.064 425.022L149.566 418.032L150.291 418.032L150.291 425.969L148.86 425.969L148.86 416.521L150.109 416.521L163.064 423.189L163.064 425.022ZM163.245 409.256C163.245 410.209 163.097 411.123 162.802 411.996C162.506 412.869 162.083 413.601 161.532 414.192L160.243 413.567C160.78 412.909 161.17 412.231 161.412 411.532C161.653 410.834 161.774 410.082 161.774 409.276C161.774 408.215 161.553 407.409 161.109 406.858C160.653 406.308 159.988 406.032 159.115 406.032C158.282 406.032 157.651 406.314 157.221 406.878C156.778 407.443 156.556 408.269 156.556 409.356L156.556 411.492L155.166 411.492L155.166 409.497C155.166 408.557 154.924 407.812 154.441 407.261C153.957 406.711 153.299 406.435 152.467 406.435C151.714 406.435 151.144 406.69 150.754 407.201C150.351 407.698 150.15 408.416 150.15 409.356C150.15 410.888 150.694 412.211 151.782 413.325L150.472 413.95C149.908 413.399 149.471 412.707 149.163 411.875C148.84 411.042 148.679 410.169 148.679 409.256C148.679 407.859 149.001 406.764 149.646 405.972C150.291 405.179 151.184 404.783 152.326 404.783C153.199 404.783 153.951 405.032 154.582 405.529C155.2 406.026 155.623 406.697 155.851 407.543L155.63 407.543C155.791 406.536 156.194 405.757 156.838 405.206C157.47 404.656 158.269 404.38 159.236 404.38C160.471 404.38 161.452 404.817 162.177 405.69C162.889 406.549 163.245 407.738 163.245 409.256ZM163.245 397.176C163.245 398.129 163.097 399.043 162.802 399.916C162.506 400.789 162.083 401.521 161.532 402.112L160.243 401.487C160.78 400.829 161.17 400.151 161.412 399.452C161.653 398.754 161.774 398.002 161.774 397.196C161.774 396.135 161.553 395.329 161.109 394.778C160.653 394.228 159.988 393.952 159.115 393.952C158.282 393.952 157.651 394.234 157.221 394.798C156.778 395.363 156.556 396.189 156.556 397.276L156.556 399.412L155.166 399.412L155.166 397.418C155.166 396.477 154.924 395.732 154.441 395.181C153.957 394.631 153.299 394.355 152.467 394.355C151.714 394.355 151.144 394.61 150.754 395.121C150.351 395.618 150.15 396.336 150.15 397.276C150.15 398.808 150.694 400.131 151.782 401.245L150.472 401.87C149.908 401.319 149.471 400.627 149.163 399.795C148.84 398.962 148.679 398.089 148.679 397.176C148.679 395.779 149.001 394.684 149.646 393.892C150.291 393.099 151.184 392.703 152.326 392.703C153.199 392.703 153.951 392.952 154.582 393.449C155.2 393.946 155.623 394.617 155.851 395.463L155.63 395.463C155.791 394.456 156.194 393.677 156.838 393.126C157.47 392.576 158.269 392.3 159.236 392.3C160.471 392.3 161.452 392.737 162.177 393.61C162.889 394.469 163.245 395.658 163.245 397.176Z" fill="#FFFEFC"/>
<path d="M296.216 473.65L292.55 472.905L292.55 474.778L291.361 474.778L291.361 472.703L286.707 471.736L286.707 474.355L285.519 474.355L285.519 471.515L282.013 470.81L282.013 469.52L285.519 470.225L285.519 467.042L282.013 466.337L282.013 465.048L285.519 465.753L285.519 463.899L286.707 463.899L286.707 465.995L291.361 466.941L291.361 464.302L292.55 464.302L292.55 467.163L296.216 467.908L296.216 469.218L292.55 468.473L292.55 471.636L296.216 472.341L296.216 473.65ZM291.361 471.394L291.361 468.231L286.707 467.284L286.707 470.467L291.361 471.394ZM296.216 461.53L282.013 461.53L282.013 452.464L283.383 452.464L283.383 459.898L288.319 459.898L288.319 452.907L289.709 452.907L289.709 459.898L294.826 459.898L294.826 452.464L296.216 452.464L296.216 461.53ZM296.216 449.686L282.013 449.686L282.013 440.822L283.383 440.822L283.383 448.014L288.359 448.014L288.359 441.265L289.729 441.265L289.729 448.014L296.216 448.014L296.216 449.686ZM296.216 440.944L282.013 434.679L282.013 433.228L296.216 426.862L296.216 428.595L292.167 430.368L292.59 429.622L292.59 438.305L292.167 437.499L296.216 439.232L296.216 440.944ZM283.927 433.974L291.583 437.237L291.22 437.721L291.22 430.227L291.583 430.589L283.927 433.933L283.927 433.974ZM296.216 424.719L282.013 424.719L282.013 415.654L283.383 415.654L283.383 423.088L288.319 423.088L288.319 416.097L289.709 416.097L289.709 423.088L294.826 423.088L294.826 415.654L296.216 415.654L296.216 424.719ZM296.398 408.343C296.398 408.961 296.33 409.565 296.196 410.156C296.062 410.747 295.867 411.304 295.612 411.828C295.357 412.338 295.048 412.788 294.685 413.178L293.396 412.553C293.92 411.895 294.309 411.224 294.564 410.539C294.806 409.854 294.927 409.122 294.927 408.343C294.927 407.322 294.652 406.523 294.101 405.945C293.55 405.368 292.825 405.079 291.925 405.079C290.998 405.079 290.24 405.354 289.649 405.905C289.058 406.456 288.762 407.221 288.762 408.202C288.762 408.9 288.903 409.525 289.185 410.075C289.454 410.626 289.877 411.103 290.454 411.506L290.454 412.714L282.013 412.714L282.013 404.293L283.423 404.293L283.423 411.103L289.084 411.103L289.084 411.546C288.52 411.183 288.091 410.686 287.795 410.055C287.486 409.41 287.332 408.685 287.332 407.879C287.332 406.966 287.52 406.18 287.896 405.522C288.272 404.851 288.796 404.334 289.467 403.971C290.139 403.608 290.925 403.427 291.824 403.427C292.724 403.427 293.523 403.628 294.222 404.031C294.907 404.421 295.444 404.985 295.834 405.724C296.21 406.449 296.398 407.322 296.398 408.343ZM296.398 396.525C296.398 398.136 295.773 399.372 294.524 400.232C293.275 401.091 291.468 401.521 289.105 401.521C286.727 401.521 284.921 401.091 283.685 400.232C282.45 399.372 281.832 398.136 281.832 396.525C281.832 394.899 282.45 393.664 283.685 392.818C284.921 391.958 286.721 391.528 289.084 391.528C291.462 391.528 293.275 391.958 294.524 392.818C295.773 393.677 296.398 394.913 296.398 396.525ZM294.947 396.525C294.947 395.396 294.47 394.557 293.517 394.006C292.563 393.456 291.086 393.18 289.084 393.18C287.07 393.18 285.599 393.456 284.672 394.006C283.732 394.557 283.262 395.396 283.262 396.525C283.262 397.639 283.732 398.479 284.672 399.043C285.613 399.594 287.083 399.869 289.084 399.869C291.086 399.869 292.563 399.594 293.517 399.043C294.47 398.479 294.947 397.639 294.947 396.525Z" fill="#FFFEFC"/>
<path d="M437.667 473.65L434 472.905L434 474.778L432.811 474.778L432.811 472.703L428.157 471.736L428.157 474.355L426.969 474.355L426.969 471.515L423.463 470.81L423.463 469.52L426.969 470.225L426.969 467.042L423.463 466.337L423.463 465.048L426.969 465.753L426.969 463.899L428.157 463.899L428.157 465.995L432.811 466.941L432.811 464.302L434 464.302L434 467.163L437.667 467.908L437.667 469.218L434 468.473L434 471.636L437.667 472.341L437.667 473.65ZM432.811 471.394L432.811 468.231L428.157 467.284L428.157 470.467L432.811 471.394ZM437.848 456.997C437.848 457.615 437.781 458.219 437.646 458.81C437.512 459.401 437.317 459.959 437.062 460.482C436.807 460.993 436.498 461.443 436.135 461.832L434.846 461.208C435.37 460.55 435.759 459.878 436.014 459.193C436.256 458.508 436.377 457.776 436.377 456.997C436.377 455.976 436.102 455.177 435.551 454.6C435 454.022 434.275 453.733 433.375 453.733C432.449 453.733 431.69 454.009 431.099 454.559C430.508 455.11 430.212 455.876 430.212 456.856C430.212 457.554 430.353 458.179 430.635 458.73C430.904 459.28 431.327 459.757 431.905 460.16L431.905 461.369L423.463 461.369L423.463 452.948L424.874 452.948L424.874 459.757L430.535 459.757L430.535 460.2C429.971 459.838 429.541 459.341 429.245 458.709C428.936 458.065 428.782 457.34 428.782 456.534C428.782 455.62 428.97 454.835 429.346 454.177C429.722 453.505 430.246 452.988 430.917 452.625C431.589 452.263 432.375 452.081 433.275 452.081C434.174 452.081 434.974 452.283 435.672 452.686C436.357 453.075 436.894 453.639 437.284 454.378C437.66 455.103 437.848 455.976 437.848 456.997ZM437.848 445.179C437.848 446.791 437.223 448.026 435.974 448.886C434.725 449.745 432.919 450.175 430.555 450.175C428.178 450.175 426.371 449.745 425.135 448.886C423.9 448.026 423.282 446.791 423.282 445.179C423.282 443.554 423.9 442.318 425.135 441.472C426.371 440.612 428.171 440.183 430.535 440.183C432.912 440.183 434.725 440.612 435.974 441.472C437.223 442.332 437.848 443.567 437.848 445.179ZM436.397 445.179C436.397 444.051 435.92 443.211 434.967 442.661C434.013 442.11 432.536 441.835 430.535 441.835C428.52 441.835 427.049 442.11 426.123 442.661C425.182 443.211 424.712 444.051 424.712 445.179C424.712 446.294 425.182 447.133 426.123 447.697C427.063 448.248 428.533 448.523 430.535 448.523C432.536 448.523 434.013 448.248 434.967 447.697C435.92 447.133 436.397 446.294 436.397 445.179ZM437.848 434.046C437.848 434.785 437.693 435.53 437.384 436.282C437.062 437.034 436.646 437.659 436.135 438.156L434.826 437.531C435.35 437.021 435.739 436.463 435.994 435.859C436.25 435.255 436.377 434.644 436.377 434.026C436.377 432.669 435.894 431.628 434.927 430.903C433.946 430.164 432.482 429.795 430.535 429.795L428.661 429.795L428.661 429.594C429.413 429.674 430.071 429.909 430.635 430.299C431.2 430.675 431.629 431.165 431.925 431.769C432.22 432.36 432.368 433.025 432.368 433.764C432.368 434.623 432.18 435.389 431.804 436.061C431.428 436.719 430.897 437.236 430.212 437.612C429.527 437.988 428.755 438.176 427.895 438.176C426.996 438.176 426.203 437.981 425.518 437.592C424.82 437.189 424.276 436.645 423.886 435.96C423.483 435.261 423.282 434.462 423.282 433.562C423.282 431.83 423.886 430.5 425.095 429.573C426.304 428.633 428.01 428.163 430.212 428.163C431.837 428.163 433.221 428.398 434.362 428.868C435.504 429.338 436.37 430.01 436.961 430.883C437.552 431.756 437.848 432.81 437.848 434.046ZM430.978 433.421C430.978 432.804 430.844 432.26 430.575 431.789C430.306 431.319 429.937 430.957 429.467 430.702C428.997 430.433 428.453 430.299 427.835 430.299C427.204 430.299 426.653 430.433 426.183 430.702C425.713 430.957 425.344 431.319 425.075 431.789C424.806 432.26 424.672 432.804 424.672 433.421C424.672 434.039 424.806 434.59 425.075 435.073C425.344 435.543 425.713 435.913 426.183 436.181C426.653 436.437 427.204 436.564 427.835 436.564C428.453 436.564 428.997 436.437 429.467 436.181C429.937 435.913 430.306 435.543 430.575 435.073C430.844 434.59 430.978 434.039 430.978 433.421ZM437.667 425.29L423.463 425.29L423.463 419.609C423.463 418.105 423.786 416.943 424.43 416.123C425.075 415.304 425.988 414.895 427.17 414.895C428.057 414.895 428.795 415.163 429.386 415.7C429.977 416.224 430.367 416.956 430.555 417.896L430.273 417.896C430.394 416.849 430.756 416.029 431.361 415.438C431.952 414.834 432.751 414.532 433.758 414.532C435.021 414.532 435.988 414.955 436.659 415.801C437.331 416.634 437.667 417.816 437.667 419.347L437.667 425.29ZM436.317 423.658L436.317 419.508C436.317 418.487 436.122 417.681 435.732 417.09C435.33 416.486 434.665 416.184 433.738 416.184C432.798 416.184 432.133 416.486 431.743 417.09C431.341 417.681 431.139 418.487 431.139 419.508L431.139 423.658L436.317 423.658ZM429.809 423.658L429.809 419.851C429.809 418.749 429.595 417.923 429.165 417.373C428.735 416.822 428.117 416.547 427.311 416.547C426.479 416.547 425.854 416.822 425.438 417.373C425.008 417.923 424.793 418.749 424.793 419.851L424.793 423.658L429.809 423.658ZM437.667 413.164L423.463 406.899L423.463 405.448L437.667 399.082L437.667 400.815L433.617 402.588L434.04 401.842L434.04 410.525L433.617 409.719L437.667 411.452L437.667 413.164ZM425.377 406.194L433.033 409.457L432.67 409.941L432.67 402.447L433.033 402.809L425.377 406.153L425.377 406.194ZM437.848 392.668C437.848 394.28 437.223 395.516 435.974 396.375C434.725 397.235 432.919 397.665 430.555 397.665C428.178 397.665 426.371 397.235 425.135 396.375C423.9 395.516 423.282 394.28 423.282 392.668C423.282 391.043 423.9 389.808 425.135 388.962C426.371 388.102 428.171 387.672 430.535 387.672C432.912 387.672 434.725 388.102 435.974 388.962C437.223 389.821 437.848 391.057 437.848 392.668ZM436.397 392.668C436.397 391.54 435.92 390.701 434.967 390.15C434.013 389.599 432.536 389.324 430.535 389.324C428.52 389.324 427.049 389.599 426.123 390.15C425.182 390.701 424.712 391.54 424.712 392.668C424.712 393.783 425.182 394.623 426.123 395.187C427.063 395.737 428.533 396.013 430.535 396.013C432.536 396.013 434.013 395.737 434.967 395.187C435.92 394.623 436.397 393.783 436.397 392.668Z" fill="#FFFEFC"/>
<path d="M580.928 473.65L577.261 472.905L577.261 474.778L576.073 474.778L576.073 472.703L571.419 471.736L571.419 474.355L570.23 474.355L570.23 471.515L566.725 470.81L566.725 469.52L570.23 470.225L570.23 467.042L566.725 466.337L566.725 465.048L570.23 465.753L570.23 463.899L571.419 463.899L571.419 465.995L576.073 466.941L576.073 464.302L577.261 464.302L577.261 467.163L580.928 467.908L580.928 469.218L577.261 468.473L577.261 471.636L580.928 472.341L580.928 473.65ZM576.073 471.394L576.073 468.231L571.419 467.284L571.419 470.467L576.073 471.394ZM581.109 457.34C581.109 458.293 580.962 459.206 580.666 460.079C580.371 460.952 579.948 461.684 579.397 462.275L578.107 461.651C578.645 460.993 579.034 460.314 579.276 459.616C579.518 458.918 579.639 458.166 579.639 457.36C579.639 456.299 579.417 455.493 578.974 454.942C578.517 454.391 577.852 454.116 576.979 454.116C576.147 454.116 575.515 454.398 575.086 454.962C574.642 455.526 574.421 456.352 574.421 457.44L574.421 459.576L573.031 459.576L573.031 457.581C573.031 456.641 572.789 455.896 572.305 455.345C571.822 454.794 571.164 454.519 570.331 454.519C569.579 454.519 569.008 454.774 568.619 455.285C568.216 455.782 568.014 456.5 568.014 457.44C568.014 458.971 568.558 460.294 569.646 461.409L568.336 462.034C567.772 461.483 567.336 460.791 567.027 459.959C566.705 459.126 566.543 458.253 566.543 457.34C566.543 455.943 566.866 454.848 567.51 454.056C568.155 453.263 569.048 452.867 570.19 452.867C571.063 452.867 571.815 453.115 572.446 453.612C573.064 454.109 573.487 454.781 573.716 455.627L573.494 455.627C573.655 454.62 574.058 453.841 574.703 453.29C575.334 452.739 576.133 452.464 577.1 452.464C578.336 452.464 579.316 452.901 580.042 453.774C580.753 454.633 581.109 455.822 581.109 457.34ZM580.928 448.946L567.43 441.956L568.155 441.956L568.155 449.893L566.725 449.893L566.725 440.445L567.974 440.445L580.928 447.113L580.928 448.946ZM580.928 436.866L567.43 429.876L568.155 429.876L568.155 437.813L566.725 437.813L566.725 428.365L567.974 428.365L580.928 435.033L580.928 436.866ZM580.928 425.29L566.725 425.29L566.725 416.224L568.095 416.224L568.095 423.658L573.031 423.658L573.031 416.667L574.421 416.667L574.421 423.658L579.538 423.658L579.538 416.224L580.928 416.224L580.928 425.29ZM581.109 409.175C581.109 410.8 580.767 412.056 580.082 412.943C579.383 413.829 578.41 414.272 577.161 414.272C576.18 414.272 575.368 413.97 574.723 413.366C574.065 412.761 573.669 411.962 573.534 410.968L573.836 410.968C573.648 411.868 573.239 412.587 572.608 413.124C571.963 413.661 571.204 413.93 570.331 413.93C569.136 413.93 568.209 413.507 567.551 412.66C566.879 411.814 566.543 410.653 566.543 409.175C566.543 407.684 566.879 406.516 567.551 405.67C568.209 404.824 569.136 404.4 570.331 404.4C571.204 404.4 571.963 404.656 572.608 405.166C573.252 405.663 573.655 406.361 573.816 407.261L573.534 407.261C573.669 406.281 574.065 405.502 574.723 404.924C575.368 404.347 576.18 404.058 577.161 404.058C578.41 404.058 579.383 404.501 580.082 405.388C580.767 406.274 581.109 407.537 581.109 409.175ZM579.739 409.175C579.739 407.993 579.518 407.113 579.075 406.536C578.631 405.945 577.96 405.65 577.06 405.65C576.173 405.65 575.515 405.945 575.086 406.536C574.642 407.113 574.421 407.993 574.421 409.175C574.421 410.357 574.642 411.243 575.086 411.834C575.515 412.412 576.173 412.701 577.06 412.701C577.96 412.701 578.631 412.405 579.075 411.814C579.518 411.223 579.739 410.344 579.739 409.175ZM573.051 409.175C573.051 408.154 572.822 407.375 572.366 406.838C571.909 406.287 571.278 406.012 570.472 406.012C569.666 406.012 569.042 406.287 568.598 406.838C568.142 407.375 567.913 408.154 567.913 409.175C567.913 410.196 568.142 410.982 568.598 411.532C569.042 412.07 569.666 412.338 570.472 412.338C571.278 412.338 571.909 412.07 572.366 411.532C572.822 410.982 573.051 410.196 573.051 409.175ZM580.928 401.406L579.679 401.406L574.421 396.37C573.736 395.712 573.084 395.222 572.466 394.899C571.835 394.563 571.184 394.396 570.512 394.396C569.693 394.396 569.075 394.651 568.659 395.161C568.229 395.671 568.014 396.41 568.014 397.377C568.014 398.129 568.148 398.828 568.417 399.472C568.672 400.104 569.082 400.715 569.646 401.306L568.336 401.91C567.799 401.373 567.369 400.688 567.047 399.855C566.711 399.023 566.543 398.143 566.543 397.216C566.543 395.779 566.879 394.671 567.551 393.892C568.209 393.113 569.149 392.723 570.371 392.723C571.271 392.723 572.131 392.945 572.95 393.388C573.756 393.818 574.589 394.449 575.448 395.282L579.961 399.734L579.498 399.734L579.498 392.119L580.928 392.119L580.928 401.406Z" fill="#EDF3FF"/>
<path d="M719.036 473.65L715.369 472.905L715.369 474.778L714.181 474.778L714.181 472.703L709.527 471.736L709.527 474.355L708.338 474.355L708.338 471.515L704.833 470.81L704.833 469.52L708.338 470.225L708.338 467.042L704.833 466.337L704.833 465.048L708.338 465.753L708.338 463.899L709.527 463.899L709.527 465.995L714.181 466.941L714.181 464.302L715.369 464.302L715.369 467.163L719.036 467.908L719.036 469.218L715.369 468.473L715.369 471.636L719.036 472.341L719.036 473.65ZM714.181 471.394L714.181 468.231L709.527 467.284L709.527 470.467L714.181 471.394ZM719.036 461.57L717.787 461.57L712.529 456.534C711.844 455.876 711.192 455.385 710.574 455.063C709.943 454.727 709.292 454.559 708.62 454.559C707.801 454.559 707.183 454.814 706.767 455.325C706.337 455.835 706.122 456.574 706.122 457.541C706.122 458.293 706.256 458.992 706.525 459.636C706.78 460.267 707.19 460.879 707.754 461.47L706.444 462.074C705.907 461.537 705.477 460.852 705.155 460.019C704.819 459.186 704.651 458.307 704.651 457.38C704.651 455.943 704.987 454.835 705.659 454.056C706.317 453.277 707.257 452.887 708.479 452.887C709.379 452.887 710.239 453.109 711.058 453.552C711.864 453.982 712.696 454.613 713.556 455.446L718.069 459.898L717.605 459.898L717.605 452.283L719.036 452.283L719.036 461.57ZM719.217 445.179C719.217 446.804 718.875 448.06 718.19 448.946C717.491 449.833 716.518 450.276 715.269 450.276C714.288 450.276 713.475 449.974 712.831 449.369C712.173 448.765 711.776 447.966 711.642 446.972L711.944 446.972C711.756 447.872 711.347 448.59 710.715 449.128C710.071 449.665 709.312 449.934 708.439 449.934C707.244 449.934 706.317 449.51 705.659 448.664C704.987 447.818 704.651 446.656 704.651 445.179C704.651 443.688 704.987 442.52 705.659 441.673C706.317 440.827 707.244 440.404 708.439 440.404C709.312 440.404 710.071 440.659 710.715 441.17C711.36 441.667 711.763 442.365 711.924 443.265L711.642 443.265C711.776 442.285 712.173 441.506 712.831 440.928C713.475 440.351 714.288 440.062 715.269 440.062C716.518 440.062 717.491 440.505 718.19 441.391C718.875 442.278 719.217 443.54 719.217 445.179ZM717.847 445.179C717.847 443.997 717.626 443.117 717.182 442.54C716.739 441.949 716.068 441.653 715.168 441.653C714.281 441.653 713.623 441.949 713.193 442.54C712.75 443.117 712.529 443.997 712.529 445.179C712.529 446.361 712.75 447.247 713.193 447.838C713.623 448.416 714.281 448.705 715.168 448.705C716.068 448.705 716.739 448.409 717.182 447.818C717.626 447.227 717.847 446.347 717.847 445.179ZM711.159 445.179C711.159 444.158 710.93 443.379 710.474 442.842C710.017 442.291 709.386 442.016 708.58 442.016C707.774 442.016 707.15 442.291 706.706 442.842C706.25 443.379 706.021 444.158 706.021 445.179C706.021 446.2 706.25 446.985 706.706 447.536C707.15 448.073 707.774 448.342 708.58 448.342C709.386 448.342 710.017 448.073 710.474 447.536C710.93 446.985 711.159 446.2 711.159 445.179ZM719.217 432.837C719.217 433.455 719.15 434.059 719.016 434.65C718.881 435.241 718.687 435.799 718.431 436.322C718.176 436.833 717.867 437.283 717.505 437.672L716.215 437.048C716.739 436.39 717.129 435.718 717.384 435.033C717.626 434.348 717.747 433.616 717.747 432.837C717.747 431.816 717.471 431.017 716.921 430.44C716.37 429.862 715.645 429.573 714.745 429.573C713.818 429.573 713.059 429.849 712.468 430.399C711.877 430.95 711.582 431.716 711.582 432.696C711.582 433.394 711.723 434.019 712.005 434.57C712.273 435.12 712.696 435.597 713.274 436L713.274 437.209L704.833 437.209L704.833 428.788L706.243 428.788L706.243 435.597L711.904 435.597L711.904 436.04C711.34 435.678 710.91 435.181 710.615 434.55C710.306 433.905 710.151 433.18 710.151 432.374C710.151 431.46 710.339 430.675 710.715 430.017C711.091 429.345 711.615 428.828 712.287 428.465C712.958 428.103 713.744 427.921 714.644 427.921C715.544 427.921 716.343 428.123 717.041 428.526C717.726 428.915 718.264 429.479 718.653 430.218C719.029 430.943 719.217 431.816 719.217 432.837ZM719.036 425.29L704.833 425.29L704.833 416.224L706.203 416.224L706.203 423.658L711.138 423.658L711.138 416.667L712.529 416.667L712.529 423.658L717.646 423.658L717.646 416.224L719.036 416.224L719.036 425.29ZM719.217 408.712C719.217 410.431 718.613 411.761 717.404 412.701C716.182 413.627 714.476 414.091 712.287 414.091C710.648 414.091 709.265 413.856 708.137 413.386C706.995 412.916 706.129 412.244 705.538 411.371C704.947 410.498 704.651 409.444 704.651 408.208C704.651 407.469 704.806 406.724 705.115 405.972C705.41 405.22 705.827 404.602 706.364 404.118L707.653 404.723C707.129 405.233 706.747 405.791 706.505 406.395C706.25 406.999 706.122 407.61 706.122 408.228C706.122 409.598 706.612 410.653 707.593 411.391C708.56 412.117 710.017 412.479 711.964 412.479L713.838 412.479L713.838 412.66C713.073 412.566 712.414 412.338 711.864 411.975C711.3 411.599 710.87 411.109 710.574 410.505C710.279 409.9 710.131 409.229 710.131 408.49C710.131 407.631 710.319 406.872 710.695 406.214C711.071 405.555 711.602 405.038 712.287 404.662C712.958 404.286 713.731 404.098 714.604 404.098C715.49 404.098 716.283 404.293 716.981 404.682C717.679 405.072 718.23 405.616 718.633 406.314C719.022 407.013 719.217 407.812 719.217 408.712ZM717.807 408.833C717.807 408.215 717.679 407.671 717.424 407.201C717.156 406.717 716.786 406.348 716.316 406.093C715.833 405.824 715.282 405.69 714.664 405.69C714.046 405.69 713.502 405.824 713.032 406.093C712.562 406.348 712.193 406.717 711.924 407.201C711.656 407.671 711.521 408.215 711.521 408.833C711.521 409.45 711.656 409.994 711.924 410.465C712.193 410.935 712.562 411.304 713.032 411.573C713.502 411.828 714.046 411.955 714.664 411.955C715.282 411.955 715.833 411.828 716.316 411.573C716.786 411.304 717.156 410.935 717.424 410.465C717.679 409.994 717.807 409.45 717.807 408.833ZM719.217 397.095C719.217 398.707 718.593 399.943 717.344 400.802C716.095 401.662 714.288 402.091 711.924 402.091C709.547 402.091 707.74 401.662 706.505 400.802C705.269 399.943 704.651 398.707 704.651 397.095C704.651 395.47 705.269 394.234 706.505 393.388C707.74 392.529 709.54 392.099 711.904 392.099C714.281 392.099 716.095 392.529 717.344 393.388C718.593 394.248 719.217 395.483 719.217 397.095ZM717.767 397.095C717.767 395.967 717.29 395.128 716.336 394.577C715.383 394.026 713.905 393.751 711.904 393.751C709.889 393.751 708.419 394.026 707.492 394.577C706.552 395.128 706.082 395.967 706.082 397.095C706.082 398.21 706.552 399.049 707.492 399.613C708.432 400.164 709.903 400.439 711.904 400.439C713.905 400.439 715.383 400.164 716.336 399.613C717.29 399.049 717.767 398.21 717.767 397.095Z" fill="#FFFEFC"/>
<path d="M1000.04 473.65L996.369 472.905L996.369 474.778L995.181 474.778L995.181 472.703L990.527 471.736L990.527 474.355L989.338 474.355L989.338 471.515L985.833 470.81L985.833 469.52L989.338 470.225L989.338 467.042L985.833 466.337L985.833 465.048L989.338 465.753L989.338 463.899L990.527 463.899L990.527 465.995L995.181 466.941L995.181 464.302L996.369 464.302L996.369 467.163L1000.04 467.908L1000.04 469.218L996.369 468.473L996.369 471.636L1000.04 472.341L1000.04 473.65ZM995.181 471.394L995.181 468.231L990.527 467.284L990.527 470.467L995.181 471.394ZM1000.22 457.259C1000.22 458.871 999.593 460.106 998.344 460.966C997.095 461.825 995.288 462.255 992.924 462.255C990.547 462.255 988.74 461.825 987.505 460.966C986.269 460.106 985.651 458.871 985.651 457.259C985.651 455.634 986.269 454.398 987.505 453.552C988.74 452.692 990.54 452.263 992.904 452.263C995.281 452.263 997.095 452.692 998.344 453.552C999.593 454.412 1000.22 455.647 1000.22 457.259ZM998.767 457.259C998.767 456.131 998.29 455.291 997.336 454.741C996.383 454.19 994.905 453.915 992.904 453.915C990.889 453.915 989.419 454.19 988.492 454.741C987.552 455.291 987.082 456.131 987.082 457.259C987.082 458.374 987.552 459.213 988.492 459.777C989.432 460.328 990.903 460.603 992.904 460.603C994.905 460.603 996.383 460.328 997.336 459.777C998.29 459.213 998.767 458.374 998.767 457.259ZM1000.04 450.86L985.833 444.595L985.833 443.144L1000.04 436.778L1000.04 438.51L995.986 440.283L996.41 439.538L996.41 448.221L995.986 447.415L1000.04 449.148L1000.04 450.86ZM987.747 443.89L995.402 447.153L995.04 447.637L995.04 440.142L995.402 440.505L987.747 443.849L987.747 443.89ZM1000.04 434.676L998.787 434.676L993.529 429.639C992.844 428.981 992.192 428.491 991.574 428.168C990.943 427.833 990.292 427.665 989.62 427.665C988.801 427.665 988.183 427.92 987.767 428.43C987.337 428.941 987.122 429.679 987.122 430.646C987.122 431.398 987.256 432.097 987.525 432.742C987.78 433.373 988.19 433.984 988.754 434.575L987.444 435.179C986.907 434.642 986.477 433.957 986.155 433.124C985.819 432.292 985.651 431.412 985.651 430.485C985.651 429.048 985.987 427.94 986.659 427.161C987.317 426.382 988.257 425.992 989.479 425.992C990.379 425.992 991.239 426.214 992.058 426.657C992.864 427.087 993.696 427.718 994.556 428.551L999.069 433.003L998.605 433.003L998.605 425.388L1000.04 425.388L1000.04 434.676ZM1000.22 418.284C1000.22 419.896 999.593 421.132 998.344 421.991C997.095 422.851 995.288 423.281 992.924 423.281C990.547 423.281 988.74 422.851 987.505 421.991C986.269 421.132 985.651 419.896 985.651 418.284C985.651 416.659 986.269 415.424 987.505 414.577C988.74 413.718 990.54 413.288 992.904 413.288C995.281 413.288 997.095 413.718 998.344 414.577C999.593 415.437 1000.22 416.673 1000.22 418.284ZM998.767 418.284C998.767 417.156 998.29 416.317 997.336 415.766C996.383 415.215 994.905 414.94 992.904 414.94C990.889 414.94 989.419 415.215 988.492 415.766C987.552 416.317 987.082 417.156 987.082 418.284C987.082 419.399 987.552 420.238 988.492 420.803C989.432 421.353 990.903 421.629 992.904 421.629C994.905 421.629 996.383 421.353 997.336 420.803C998.29 420.238 998.767 419.399 998.767 418.284ZM1000.04 410.516L998.787 410.516L993.529 405.479C992.844 404.821 992.192 404.331 991.574 404.008C990.943 403.673 990.292 403.505 989.62 403.505C988.801 403.505 988.183 403.76 987.767 404.27C987.337 404.781 987.122 405.519 987.122 406.486C987.122 407.239 987.256 407.937 987.525 408.582C987.78 409.213 988.19 409.824 988.754 410.415L987.444 411.019C986.907 410.482 986.477 409.797 986.155 408.964C985.819 408.132 985.651 407.252 985.651 406.325C985.651 404.888 985.987 403.78 986.659 403.001C987.317 402.222 988.257 401.833 989.479 401.833C990.379 401.833 991.239 402.054 992.058 402.497C992.864 402.927 993.696 403.558 994.556 404.391L999.069 408.844L998.605 408.844L998.605 401.228L1000.04 401.228L1000.04 410.516ZM1000.04 397.61L998.605 397.61L998.605 394.265L987.263 394.265L987.263 393.379L989.701 397.287L988.029 397.287L985.833 393.802L985.833 392.593L998.605 392.593L998.605 389.45L1000.04 389.45L1000.04 397.61Z" fill="#FFFEFC"/>
<path d="M859.036 473.65L855.369 472.905L855.369 474.778L854.181 474.778L854.181 472.703L849.527 471.736L849.527 474.355L848.338 474.355L848.338 471.515L844.833 470.81L844.833 469.52L848.338 470.225L848.338 467.042L844.833 466.337L844.833 465.048L848.338 465.753L848.338 463.899L849.527 463.899L849.527 465.995L854.181 466.941L854.181 464.302L855.369 464.302L855.369 467.163L859.036 467.908L859.036 469.218L855.369 468.473L855.369 471.636L859.036 472.341L859.036 473.65ZM854.181 471.394L854.181 468.231L849.527 467.284L849.527 470.467L854.181 471.394ZM859.036 461.53L844.833 461.53L844.833 452.666L846.203 452.666L846.203 459.858L851.179 459.858L851.179 453.109L852.549 453.109L852.549 459.858L859.036 459.858L859.036 461.53ZM859.036 450.217L844.833 450.217L844.833 441.353L846.203 441.353L846.203 448.545L851.179 448.545L851.179 441.796L852.549 441.796L852.549 448.545L859.036 448.545L859.036 450.217ZM859.036 438.905L844.833 438.905L844.833 430.04L846.203 430.04L846.203 437.232L851.179 437.232L851.179 430.483L852.549 430.483L852.549 437.232L859.036 437.232L859.036 438.905ZM859.036 427.592L844.833 427.592L844.833 418.526L846.203 418.526L846.203 425.96L851.138 425.96L851.138 418.969L852.529 418.969L852.529 425.96L857.646 425.96L857.646 418.526L859.036 418.526L859.036 427.592ZM859.036 415.748L844.833 415.748L844.833 406.884L846.203 406.884L846.203 414.076L851.179 414.076L851.179 407.327L852.549 407.327L852.549 414.076L859.036 414.076L859.036 415.748ZM859.217 398.585C859.217 400.009 858.922 401.217 858.331 402.211C857.74 403.205 856.9 403.971 855.812 404.508C854.725 405.032 853.428 405.294 851.924 405.294C850.42 405.294 849.131 405.032 848.056 404.508C846.968 403.971 846.129 403.205 845.538 402.211C844.947 401.217 844.651 400.009 844.651 398.585C844.651 397.578 844.806 396.678 845.115 395.885C845.424 395.093 845.874 394.401 846.465 393.81L847.794 394.435C847.23 395.079 846.82 395.717 846.565 396.349C846.297 396.98 846.162 397.719 846.162 398.565C846.162 400.19 846.666 401.426 847.673 402.272C848.681 403.118 850.098 403.541 851.924 403.541C853.751 403.541 855.174 403.118 856.195 402.272C857.203 401.426 857.706 400.19 857.706 398.565C857.706 397.719 857.579 396.98 857.323 396.349C857.055 395.717 856.632 395.079 856.054 394.435L857.404 393.81C857.982 394.401 858.431 395.093 858.754 395.885C859.063 396.678 859.217 397.578 859.217 398.585Z" fill="#0A2021"/>
</g>
<defs>
<clipPath id="clip0_197_1005">
<rect width="1250" height="351" fill="white" transform="translate(0 146)"/>
</clipPath>
</defs>
</svg>
