<svg width="1250" height="497" viewBox="0 0 1250 497" fill="none" xmlns="http://www.w3.org/2000/svg">
<path d="M22.5 54.75C16.3 54.75 11.525 52.4 8.175 47.7C4.825 42.95 3.15 36.2 3.15 27.45C3.15 18.6 4.825 11.875 8.175 7.275C11.525 2.675 16.3 0.374997 22.5 0.374997C28.75 0.374997 33.525 2.675 36.825 7.275C40.175 11.875 41.85 18.575 41.85 27.375C41.85 36.175 40.175 42.95 36.825 47.7C33.525 52.4 28.75 54.75 22.5 54.75ZM22.5 46.8C25.9 46.8 28.425 45.25 30.075 42.15C31.725 39 32.55 34.075 32.55 27.375C32.55 20.675 31.725 15.825 30.075 12.825C28.425 9.775 25.9 8.25 22.5 8.25C19.15 8.25 16.625 9.775 14.925 12.825C13.275 15.825 12.45 20.675 12.45 27.375C12.45 34.075 13.275 39 14.925 42.15C16.625 45.25 19.15 46.8 22.5 46.8ZM66.6457 54.75C62.9957 54.75 59.4957 54.225 56.1457 53.175C52.7957 52.075 50.0457 50.575 47.8957 48.675L51.0457 41.4C53.3957 43.2 55.8207 44.525 58.3207 45.375C60.8707 46.225 63.5457 46.65 66.3457 46.65C69.7457 46.65 72.3207 45.975 74.0707 44.625C75.8207 43.275 76.6957 41.3 76.6957 38.7C76.6957 36.2 75.8207 34.325 74.0707 33.075C72.3707 31.775 69.8707 31.125 66.5707 31.125H58.0207V23.4H65.7457C68.5957 23.4 70.8707 22.7 72.5707 21.3C74.2707 19.9 75.1207 17.975 75.1207 15.525C75.1207 13.225 74.3207 11.475 72.7207 10.275C71.1707 9.075 68.9207 8.475 65.9707 8.475C60.6707 8.475 55.9957 10.275 51.9457 13.875L48.7957 6.675C50.9457 4.675 53.5957 3.125 56.7457 2.025C59.9457 0.924998 63.2957 0.374997 66.7957 0.374997C72.2957 0.374997 76.5957 1.625 79.6957 4.125C82.8457 6.575 84.4207 10 84.4207 14.4C84.4207 17.55 83.5207 20.275 81.7207 22.575C79.9707 24.825 77.5457 26.325 74.4457 27.075V26.175C78.0957 26.775 80.9207 28.275 82.9207 30.675C84.9707 33.025 85.9957 35.975 85.9957 39.525C85.9957 44.225 84.2707 47.95 80.8207 50.7C77.3707 53.4 72.6457 54.75 66.6457 54.75ZM93.9914 54V43.575H104.491V54H93.9914ZM159.576 54.75C154.076 54.75 149.351 53.65 145.401 51.45C141.501 49.2 138.501 46.05 136.401 42C134.301 37.9 133.251 33.075 133.251 27.525C133.251 21.975 134.301 17.175 136.401 13.125C138.501 9.075 141.501 5.95 145.401 3.75C149.351 1.5 154.076 0.374997 159.576 0.374997C163.276 0.374997 166.601 0.899998 169.551 1.95C172.551 3 175.126 4.55 177.276 6.6L174.126 14.25C171.776 12.35 169.501 11 167.301 10.2C165.151 9.35 162.676 8.925 159.876 8.925C154.526 8.925 150.426 10.55 147.576 13.8C144.776 17 143.376 21.575 143.376 27.525C143.376 33.475 144.776 38.075 147.576 41.325C150.426 44.575 154.526 46.2 159.876 46.2C162.676 46.2 165.151 45.8 167.301 45C169.501 44.15 171.776 42.75 174.126 40.8L177.276 48.45C175.126 50.45 172.551 52 169.551 53.1C166.601 54.2 163.276 54.75 159.576 54.75ZM182.909 27.525C182.909 21.975 183.909 17.175 185.909 13.125C187.959 9.075 190.884 5.95 194.684 3.75C198.484 1.5 203.009 0.374997 208.259 0.374997C213.459 0.374997 217.959 1.5 221.759 3.75C225.559 5.95 228.484 9.075 230.534 13.125C232.634 17.175 233.684 21.95 233.684 27.45C233.684 33 232.634 37.825 230.534 41.925C228.484 45.975 225.559 49.125 221.759 51.375C217.959 53.625 213.459 54.75 208.259 54.75C203.009 54.75 198.484 53.625 194.684 51.375C190.934 49.125 188.034 45.975 185.984 41.925C183.934 37.825 182.909 33.025 182.909 27.525ZM193.034 27.525C193.034 33.475 194.309 38.125 196.859 41.475C199.409 44.825 203.209 46.5 208.259 46.5C213.159 46.5 216.934 44.825 219.584 41.475C222.234 38.125 223.559 33.475 223.559 27.525C223.559 21.525 222.234 16.875 219.584 13.575C216.984 10.275 213.209 8.625 208.259 8.625C203.209 8.625 199.409 10.275 196.859 13.575C194.309 16.875 193.034 21.525 193.034 27.525ZM265.717 54.75C258.167 54.75 252.542 52.875 248.842 49.125C245.192 45.325 243.367 39.725 243.367 32.325V1.125H253.042V32.25C253.042 36.95 254.042 40.5 256.042 42.9C258.092 45.3 261.317 46.5 265.717 46.5C269.917 46.5 273.067 45.3 275.167 42.9C277.317 40.5 278.392 36.95 278.392 32.25V1.125H287.917V32.325C287.917 39.725 286.042 45.325 282.292 49.125C278.592 52.875 273.067 54.75 265.717 54.75ZM299.185 54V1.125H308.86V45.825H333.76V54H299.185ZM341.153 54V1.125H376.778V8.7H350.453V23.325H375.053V30.975H350.453V46.35H376.778V54H341.153ZM407.807 54.75C400.257 54.75 394.632 52.875 390.932 49.125C387.282 45.325 385.457 39.725 385.457 32.325V1.125H395.132V32.25C395.132 36.95 396.132 40.5 398.132 42.9C400.182 45.3 403.407 46.5 407.807 46.5C412.007 46.5 415.157 45.3 417.257 42.9C419.407 40.5 420.482 36.95 420.482 32.25V1.125H430.007V32.325C430.007 39.725 428.132 45.325 424.382 49.125C420.682 52.875 415.157 54.75 407.807 54.75ZM441.275 54V1.125H464.375C470.175 1.125 474.65 2.5 477.8 5.25C481 8 482.6 11.825 482.6 16.725C482.6 19.975 481.875 22.75 480.425 25.05C479.025 27.35 477 29.125 474.35 30.375C471.7 31.575 468.575 32.175 464.975 32.175L466.025 30.75H468.575C470.675 30.75 472.55 31.3 474.2 32.4C475.85 33.5 477.2 35.175 478.25 37.425L485.975 54H475.325L467.525 36.825C466.825 35.075 465.75 33.925 464.3 33.375C462.9 32.825 461.2 32.55 459.2 32.55H450.95V54H441.275ZM450.95 25.425H462.8C466.2 25.425 468.775 24.725 470.525 23.325C472.325 21.875 473.225 19.775 473.225 17.025C473.225 14.275 472.325 12.2 470.525 10.8C468.775 9.4 466.2 8.7 462.8 8.7H450.95V25.425ZM512.239 54.75C507.989 54.75 504.064 54.225 500.464 53.175C496.914 52.075 493.864 50.575 491.314 48.675L494.314 41.1C496.014 42.3 497.789 43.325 499.639 44.175C501.489 44.975 503.464 45.6 505.564 46.05C507.664 46.45 509.889 46.65 512.239 46.65C516.189 46.65 519.039 46 520.789 44.7C522.539 43.4 523.414 41.7 523.414 39.6C523.414 37.75 522.814 36.35 521.614 35.4C520.414 34.4 518.264 33.575 515.164 32.925L506.689 31.2C501.839 30.2 498.214 28.525 495.814 26.175C493.414 23.825 492.214 20.675 492.214 16.725C492.214 13.425 493.089 10.55 494.839 8.1C496.589 5.65 499.039 3.75 502.189 2.4C505.339 1.05 509.014 0.374997 513.214 0.374997C516.964 0.374997 520.439 0.924998 523.639 2.025C526.839 3.075 529.514 4.6 531.664 6.6L528.664 13.8C526.514 12 524.164 10.675 521.614 9.825C519.064 8.925 516.214 8.475 513.064 8.475C509.514 8.475 506.739 9.175 504.739 10.575C502.789 11.925 501.814 13.8 501.814 16.2C501.814 18.05 502.414 19.525 503.614 20.625C504.864 21.725 506.964 22.575 509.914 23.175L518.314 24.825C523.314 25.825 527.014 27.475 529.414 29.775C531.814 32.025 533.014 35.075 533.014 38.925C533.014 42.075 532.164 44.85 530.464 47.25C528.764 49.6 526.364 51.45 523.264 52.8C520.164 54.1 516.489 54.75 512.239 54.75Z" fill="#EDF3FF"/>
<g clip-path="url(#clip0_221_1047)">
<rect y="146" width="282.216" height="351.27" rx="20" fill="#F5F5F5"/>
<rect x="129.064" y="146" width="282.216" height="351.27" rx="20" fill="#E5E8EA"/>
<rect x="262.098" y="146" width="282.216" height="351.27" rx="20" fill="#D3D9DE"/>
<rect x="403.207" y="146" width="282.216" height="351.27" rx="20" fill="#80C3BD"/>
<rect x="544.315" y="146" width="282.216" height="351.27" rx="20" fill="#6AB9C2"/>
<rect x="685.423" y="146" width="282.216" height="351.27" rx="20" fill="#4AA7D7"/>
<rect x="826.026" y="146" width="282.216" height="351.27" rx="20" fill="#3061AA"/>
<rect x="967.927" y="146" width="282.216" height="351.27" rx="20" fill="#0E2C3C"/>
<path d="M34 473.65L30.3334 472.905L30.3334 474.778L29.1447 474.778L29.1447 472.703L24.4909 471.736L24.4909 474.355L23.3023 474.355L23.3023 471.515L19.7968 470.81L19.7968 469.52L23.3023 470.225L23.3023 467.042L19.7968 466.337L19.7968 465.048L23.3023 465.753L23.3023 463.899L24.4909 463.899L24.4909 465.995L29.1447 466.941L29.1447 464.302L30.3334 464.302L30.3334 467.163L34 467.908L34 469.218L30.3334 468.473L30.3334 471.636L34 472.341L34 473.65ZM29.1447 471.394L29.1447 468.231L24.4909 467.284L24.4909 470.467L29.1447 471.394ZM34 461.53L19.7968 461.53L19.7968 452.666L21.1667 452.666L21.1667 459.858L26.1429 459.858L26.1429 453.109L27.5129 453.109L27.5129 459.858L34 459.858L34 461.53ZM34.1813 445.684C34.1813 446.302 34.1142 446.907 33.9799 447.498C33.8455 448.088 33.6508 448.646 33.3956 449.17C33.1404 449.68 32.8315 450.13 32.4689 450.519L31.1795 449.895C31.7033 449.237 32.0928 448.565 32.348 447.88C32.5898 447.195 32.7106 446.463 32.7106 445.684C32.7106 444.664 32.4353 443.864 31.8846 443.287C31.334 442.709 30.6087 442.421 29.7088 442.421C28.7821 442.421 28.0232 442.696 27.4323 443.247C26.8413 443.797 26.5458 444.563 26.5458 445.543C26.5458 446.242 26.6869 446.866 26.9689 447.417C27.2375 447.968 27.6606 448.444 28.2381 448.847L28.2381 450.056L19.7968 450.056L19.7968 441.635L21.207 441.635L21.207 448.444L26.8682 448.444L26.8682 448.888C26.3041 448.525 25.8743 448.028 25.5788 447.397C25.2699 446.752 25.1154 446.027 25.1154 445.221C25.1154 444.308 25.3035 443.522 25.6795 442.864C26.0556 442.192 26.5794 441.675 27.251 441.313C27.9225 440.95 28.7082 440.769 29.6081 440.769C30.508 440.769 31.3071 440.97 32.0055 441.373C32.6905 441.763 33.2277 442.327 33.6172 443.065C33.9933 443.791 34.1813 444.664 34.1813 445.684ZM34 438.137L19.7968 438.137L19.7968 429.273L21.1667 429.273L21.1667 436.465L26.1429 436.465L26.1429 429.716L27.5129 429.716L27.5129 436.465L34 436.465L34 438.137ZM34.1813 422.292C34.1813 422.91 34.1142 423.514 33.9799 424.105C33.8455 424.696 33.6508 425.253 33.3956 425.777C33.1404 426.287 32.8315 426.737 32.4689 427.127L31.1795 426.502C31.7033 425.844 32.0928 425.173 32.348 424.488C32.5897 423.803 32.7106 423.071 32.7106 422.292C32.7106 421.271 32.4353 420.472 31.8846 419.894C31.334 419.317 30.6087 419.028 29.7088 419.028C28.7821 419.028 28.0232 419.303 27.4323 419.854C26.8413 420.405 26.5458 421.17 26.5458 422.151C26.5458 422.849 26.6869 423.474 26.9689 424.024C27.2375 424.575 27.6606 425.052 28.2381 425.455L28.2381 426.663L19.7968 426.663L19.7968 418.242L21.207 418.242L21.207 425.052L26.8682 425.052L26.8682 425.495C26.3041 425.132 25.8743 424.635 25.5788 424.004C25.2699 423.359 25.1154 422.634 25.1154 421.828C25.1154 420.915 25.3035 420.129 25.6795 419.471C26.0556 418.8 26.5794 418.283 27.251 417.92C27.9225 417.557 28.7082 417.376 29.6081 417.376C30.508 417.376 31.3071 417.577 32.0055 417.98C32.6905 418.37 33.2277 418.934 33.6172 419.673C33.9933 420.398 34.1813 421.271 34.1813 422.292ZM34 414.745L19.7968 414.745L19.7968 405.88L21.1667 405.88L21.1667 413.073L26.1429 413.073L26.1429 406.323L27.5129 406.323L27.5129 413.073L34 413.073L34 414.745ZM34.1813 398.899C34.1813 399.517 34.1142 400.121 33.9799 400.712C33.8455 401.303 33.6508 401.861 33.3956 402.384C33.1404 402.895 32.8315 403.345 32.4689 403.734L31.1795 403.11C31.7033 402.452 32.0928 401.78 32.348 401.095C32.5897 400.41 32.7106 399.678 32.7106 398.899C32.7106 397.878 32.4353 397.079 31.8846 396.502C31.334 395.924 30.6087 395.635 29.7088 395.635C28.7821 395.635 28.0232 395.911 27.4323 396.461C26.8413 397.012 26.5458 397.778 26.5458 398.758C26.5458 399.456 26.6869 400.081 26.9689 400.632C27.2375 401.182 27.6606 401.659 28.2381 402.062L28.2381 403.271L19.7968 403.271L19.7968 394.85L21.207 394.85L21.207 401.659L26.8682 401.659L26.8682 402.102C26.3041 401.74 25.8743 401.243 25.5788 400.612C25.2699 399.967 25.1154 399.242 25.1154 398.436C25.1154 397.522 25.3035 396.737 25.6795 396.079C26.0556 395.407 26.5794 394.89 27.251 394.527C27.9225 394.165 28.7082 393.983 29.6081 393.983C30.508 393.983 31.3071 394.185 32.0055 394.588C32.6905 394.977 33.2277 395.541 33.6172 396.28C33.9933 397.005 34.1813 397.878 34.1813 398.899Z" fill="#0E2C3C"/>
<path d="M163.064 473.65L159.397 472.905L159.397 474.778L158.208 474.778L158.208 472.703L153.554 471.736L153.554 474.355L152.366 474.355L152.366 471.515L148.86 470.81L148.86 469.52L152.366 470.225L152.366 467.042L148.86 466.337L148.86 465.048L152.366 465.753L152.366 463.899L153.554 463.899L153.554 465.995L158.208 466.941L158.208 464.302L159.397 464.302L159.397 467.163L163.064 467.908L163.064 469.218L159.397 468.473L159.397 471.636L163.064 472.341L163.064 473.65ZM158.208 471.394L158.208 468.231L153.554 467.284L153.554 470.467L158.208 471.394ZM163.064 461.53L148.86 461.53L148.86 452.464L150.23 452.464L150.23 459.898L155.166 459.898L155.166 452.907L156.556 452.907L156.556 459.898L161.673 459.898L161.673 452.464L163.064 452.464L163.064 461.53ZM163.245 445.153C163.245 445.771 163.178 446.375 163.043 446.966C162.909 447.557 162.714 448.115 162.459 448.638C162.204 449.149 161.895 449.599 161.532 449.988L160.243 449.364C160.767 448.706 161.156 448.034 161.412 447.349C161.653 446.664 161.774 445.932 161.774 445.153C161.774 444.132 161.499 443.333 160.948 442.756C160.398 442.178 159.672 441.889 158.772 441.889C157.846 441.889 157.087 442.165 156.496 442.715C155.905 443.266 155.609 444.032 155.609 445.012C155.609 445.711 155.75 446.335 156.033 446.886C156.301 447.436 156.724 447.913 157.302 448.316L157.302 449.525L148.86 449.525L148.86 441.104L150.271 441.104L150.271 447.913L155.932 447.913L155.932 448.356C155.368 447.994 154.938 447.497 154.642 446.866C154.333 446.221 154.179 445.496 154.179 444.69C154.179 443.776 154.367 442.991 154.743 442.333C155.119 441.661 155.643 441.144 156.315 440.781C156.986 440.419 157.772 440.237 158.672 440.237C159.572 440.237 160.371 440.439 161.069 440.842C161.754 441.231 162.291 441.795 162.681 442.534C163.057 443.259 163.245 444.132 163.245 445.153ZM163.064 437.606L148.86 437.606L148.86 428.54L150.23 428.54L150.23 435.974L155.166 435.974L155.166 428.983L156.556 428.983L156.556 435.974L161.673 435.974L161.673 428.54L163.064 428.54L163.064 437.606ZM163.245 421.491C163.245 423.116 162.902 424.372 162.217 425.259C161.519 426.145 160.545 426.588 159.296 426.588C158.316 426.588 157.503 426.286 156.859 425.682C156.2 425.077 155.804 424.278 155.67 423.284L155.972 423.284C155.784 424.184 155.374 424.903 154.743 425.44C154.098 425.977 153.34 426.246 152.467 426.246C151.271 426.246 150.345 425.823 149.686 424.977C149.015 424.13 148.679 422.969 148.679 421.491C148.679 420 149.015 418.832 149.686 417.986C150.345 417.14 151.271 416.717 152.467 416.717C153.34 416.717 154.098 416.972 154.743 417.482C155.388 417.979 155.791 418.677 155.952 419.577L155.67 419.577C155.804 418.597 156.2 417.818 156.859 417.24C157.503 416.663 158.316 416.374 159.296 416.374C160.545 416.374 161.519 416.817 162.217 417.704C162.902 418.59 163.245 419.853 163.245 421.491ZM161.875 421.491C161.875 420.309 161.653 419.43 161.21 418.852C160.767 418.261 160.095 417.966 159.195 417.966C158.309 417.966 157.651 418.261 157.221 418.852C156.778 419.43 156.556 420.309 156.556 421.491C156.556 422.673 156.778 423.56 157.221 424.151C157.651 424.728 158.309 425.017 159.195 425.017C160.095 425.017 160.767 424.721 161.21 424.13C161.653 423.539 161.875 422.66 161.875 421.491ZM155.186 421.491C155.186 420.47 154.958 419.691 154.501 419.154C154.045 418.604 153.413 418.328 152.608 418.328C151.802 418.328 151.177 418.604 150.734 419.154C150.277 419.691 150.049 420.47 150.049 421.491C150.049 422.512 150.277 423.298 150.734 423.848C151.177 424.386 151.802 424.654 152.608 424.654C153.413 424.654 154.045 424.386 154.501 423.848C154.958 423.298 155.186 422.512 155.186 421.491ZM163.064 413.682L148.86 413.682L148.86 404.616L150.23 404.616L150.23 412.05L155.166 412.05L155.166 405.06L156.556 405.06L156.556 412.05L161.673 412.05L161.673 404.616L163.064 404.616L163.064 413.682ZM163.064 403.524L148.86 397.259L148.86 395.808L163.064 389.442L163.064 391.174L159.014 392.947L159.437 392.202L159.437 400.885L159.014 400.079L163.064 401.812L163.064 403.524ZM150.774 396.553L158.43 399.817L158.067 400.301L158.067 392.806L158.43 393.169L150.774 396.513L150.774 396.553Z" fill="#0E2C3C"/>
<path d="M296.216 473.65L292.55 472.905L292.55 474.778L291.361 474.778L291.361 472.703L286.707 471.736L286.707 474.355L285.519 474.355L285.519 471.515L282.013 470.81L282.013 469.52L285.519 470.225L285.519 467.042L282.013 466.337L282.013 465.048L285.519 465.753L285.519 463.899L286.707 463.899L286.707 465.995L291.361 466.941L291.361 464.302L292.55 464.302L292.55 467.163L296.216 467.908L296.216 469.218L292.55 468.473L292.55 471.636L296.216 472.341L296.216 473.65ZM291.361 471.394L291.361 468.231L286.707 467.284L286.707 470.467L291.361 471.394ZM296.216 461.53L282.013 461.53L282.013 456.816C282.013 455.244 282.288 453.915 282.839 452.827C283.376 451.739 284.175 450.913 285.237 450.349C286.284 449.785 287.574 449.503 289.105 449.503C290.622 449.503 291.912 449.785 292.973 450.349C294.034 450.913 294.84 451.739 295.39 452.827C295.941 453.915 296.216 455.244 296.216 456.816L296.216 461.53ZM294.786 459.858L294.786 456.937C294.786 455.003 294.316 453.565 293.376 452.625C292.422 451.685 290.998 451.215 289.105 451.215C287.197 451.215 285.774 451.685 284.834 452.625C283.893 453.565 283.423 455.003 283.423 456.937L283.423 459.858L294.786 459.858ZM296.398 442.289C296.398 443.242 296.25 444.156 295.954 445.029C295.659 445.902 295.236 446.634 294.685 447.225L293.396 446.6C293.933 445.942 294.323 445.264 294.564 444.565C294.806 443.867 294.927 443.115 294.927 442.309C294.927 441.248 294.705 440.442 294.262 439.891C293.805 439.341 293.141 439.065 292.268 439.065C291.435 439.065 290.804 439.347 290.374 439.911C289.931 440.476 289.709 441.302 289.709 442.389L289.709 444.525L288.319 444.525L288.319 442.53C288.319 441.59 288.077 440.845 287.594 440.294C287.11 439.744 286.452 439.468 285.619 439.468C284.867 439.468 284.296 439.723 283.907 440.234C283.504 440.731 283.302 441.449 283.302 442.389C283.302 443.921 283.846 445.244 284.934 446.358L283.625 446.983C283.061 446.432 282.624 445.74 282.315 444.908C281.993 444.075 281.832 443.202 281.832 442.289C281.832 440.892 282.154 439.797 282.799 439.005C283.443 438.212 284.337 437.816 285.478 437.816C286.351 437.816 287.103 438.065 287.735 438.562C288.352 439.059 288.776 439.73 289.004 440.576L288.782 440.576C288.943 439.569 289.346 438.79 289.991 438.239C290.622 437.689 291.421 437.413 292.388 437.413C293.624 437.413 294.605 437.85 295.33 438.723C296.042 439.582 296.398 440.771 296.398 442.289ZM296.216 434.399L282.013 434.399L282.013 429.685C282.013 428.114 282.288 426.784 282.839 425.696C283.376 424.608 284.175 423.782 285.237 423.218C286.284 422.654 287.574 422.372 289.105 422.372C290.622 422.372 291.912 422.654 292.973 423.218C294.034 423.782 294.84 424.608 295.39 425.696C295.941 426.784 296.216 428.114 296.216 429.685L296.216 434.399ZM294.786 432.727L294.786 429.806C294.786 427.872 294.316 426.435 293.376 425.495C292.422 424.554 290.998 424.084 289.105 424.084C287.197 424.084 285.774 424.554 284.834 425.495C283.893 426.435 283.423 427.872 283.423 429.806L283.423 432.727L294.786 432.727ZM296.398 416.024C296.398 416.763 296.243 417.508 295.934 418.261C295.612 419.013 295.196 419.637 294.685 420.134L293.376 419.51C293.899 418.999 294.289 418.442 294.544 417.837C294.799 417.233 294.927 416.622 294.927 416.004C294.927 414.648 294.443 413.607 293.476 412.881C292.496 412.143 291.032 411.773 289.084 411.773L287.211 411.773L287.211 411.572C287.963 411.653 288.621 411.888 289.185 412.277C289.749 412.653 290.179 413.143 290.475 413.748C290.77 414.339 290.918 415.004 290.918 415.742C290.918 416.602 290.73 417.367 290.354 418.039C289.978 418.697 289.447 419.214 288.762 419.59C288.077 419.966 287.305 420.154 286.445 420.154C285.545 420.154 284.753 419.96 284.068 419.57C283.37 419.167 282.826 418.623 282.436 417.938C282.033 417.24 281.832 416.441 281.832 415.541C281.832 413.808 282.436 412.479 283.645 411.552C284.854 410.612 286.559 410.142 288.762 410.142C290.387 410.142 291.771 410.377 292.912 410.847C294.054 411.317 294.92 411.988 295.511 412.861C296.102 413.734 296.398 414.789 296.398 416.024ZM289.528 415.4C289.528 414.782 289.393 414.238 289.125 413.768C288.856 413.298 288.487 412.935 288.017 412.68C287.547 412.411 287.003 412.277 286.385 412.277C285.754 412.277 285.203 412.411 284.733 412.68C284.263 412.935 283.893 413.298 283.625 413.768C283.356 414.238 283.222 414.782 283.222 415.4C283.222 416.018 283.356 416.568 283.625 417.052C283.893 417.522 284.263 417.891 284.733 418.16C285.203 418.415 285.754 418.543 286.385 418.543C287.003 418.543 287.547 418.415 288.017 418.16C288.487 417.891 288.856 417.522 289.125 417.052C289.393 416.568 289.528 416.018 289.528 415.4ZM296.216 407.268L282.013 407.268L282.013 402.554C282.013 400.983 282.288 399.653 282.839 398.565C283.376 397.477 284.175 396.651 285.237 396.087C286.284 395.523 287.573 395.241 289.105 395.241C290.622 395.241 291.912 395.523 292.973 396.087C294.034 396.651 294.84 397.477 295.39 398.565C295.941 399.653 296.216 400.983 296.216 402.554L296.216 407.268ZM294.786 405.596L294.786 402.675C294.786 400.741 294.316 399.304 293.376 398.364C292.422 397.424 290.998 396.954 289.105 396.954C287.197 396.954 285.774 397.424 284.834 398.364C283.893 399.304 283.423 400.741 283.423 402.675L283.423 405.596L294.786 405.596ZM296.216 392.218L282.013 392.218L282.013 383.152L283.383 383.152L283.383 390.586L288.319 390.586L288.319 383.595L289.709 383.595L289.709 390.586L294.826 390.586L294.826 383.152L296.216 383.152L296.216 392.218Z" fill="#0E2C3C"/>
<path d="M437.667 473.65L434 472.905L434 474.778L432.811 474.778L432.811 472.703L428.157 471.736L428.157 474.355L426.969 474.355L426.969 471.515L423.463 470.81L423.463 469.52L426.969 470.225L426.969 467.042L423.463 466.337L423.463 465.048L426.969 465.753L426.969 463.899L428.157 463.899L428.157 465.995L432.811 466.941L432.811 464.302L434 464.302L434 467.163L437.667 467.908L437.667 469.218L434 468.473L434 471.636L437.667 472.341L437.667 473.65ZM432.811 471.394L432.811 468.231L428.157 467.284L428.157 470.467L432.811 471.394ZM437.848 457.259C437.848 458.884 437.505 460.14 436.82 461.026C436.122 461.913 435.148 462.356 433.899 462.356C432.919 462.356 432.106 462.054 431.461 461.449C430.803 460.845 430.407 460.046 430.273 459.052L430.575 459.052C430.387 459.952 429.977 460.67 429.346 461.208C428.701 461.745 427.943 462.013 427.069 462.013C425.874 462.013 424.947 461.59 424.289 460.744C423.618 459.898 423.282 458.736 423.282 457.259C423.282 455.768 423.618 454.6 424.289 453.753C424.947 452.907 425.874 452.484 427.069 452.484C427.943 452.484 428.701 452.739 429.346 453.25C429.991 453.747 430.394 454.445 430.555 455.345L430.273 455.345C430.407 454.365 430.803 453.586 431.461 453.008C432.106 452.431 432.919 452.142 433.899 452.142C435.148 452.142 436.122 452.585 436.82 453.471C437.505 454.358 437.848 455.62 437.848 457.259ZM436.478 457.259C436.478 456.077 436.256 455.197 435.813 454.62C435.37 454.029 434.698 453.733 433.798 453.733C432.912 453.733 432.254 454.029 431.824 454.62C431.381 455.197 431.159 456.077 431.159 457.259C431.159 458.441 431.381 459.327 431.824 459.918C432.254 460.496 432.912 460.785 433.798 460.785C434.698 460.785 435.37 460.489 435.813 459.898C436.256 459.307 436.478 458.427 436.478 457.259ZM429.789 457.259C429.789 456.238 429.561 455.459 429.104 454.922C428.648 454.371 428.016 454.096 427.211 454.096C426.405 454.096 425.78 454.371 425.337 454.922C424.88 455.459 424.652 456.238 424.652 457.259C424.652 458.28 424.88 459.065 425.337 459.616C425.78 460.153 426.405 460.422 427.211 460.422C428.016 460.422 428.648 460.153 429.104 459.616C429.561 459.065 429.789 458.28 429.789 457.259ZM437.848 445.179C437.848 446.791 437.223 448.026 435.974 448.886C434.725 449.745 432.919 450.175 430.555 450.175C428.178 450.175 426.371 449.745 425.135 448.886C423.9 448.026 423.282 446.791 423.282 445.179C423.282 443.554 423.9 442.318 425.135 441.472C426.371 440.612 428.171 440.183 430.535 440.183C432.912 440.183 434.725 440.612 435.974 441.472C437.223 442.332 437.848 443.567 437.848 445.179ZM436.397 445.179C436.397 444.051 435.92 443.211 434.967 442.661C434.013 442.11 432.536 441.835 430.535 441.835C428.52 441.835 427.049 442.11 426.123 442.661C425.182 443.211 424.712 444.051 424.712 445.179C424.712 446.294 425.182 447.133 426.123 447.697C427.063 448.248 428.533 448.523 430.535 448.523C432.536 448.523 434.013 448.248 434.967 447.697C435.92 447.133 436.397 446.294 436.397 445.179ZM437.848 431.185C437.848 432.609 437.552 433.818 436.961 434.811C436.37 435.805 435.531 436.571 434.443 437.108C433.355 437.632 432.059 437.894 430.555 437.894C429.051 437.894 427.761 437.632 426.687 437.108C425.599 436.571 424.759 435.805 424.168 434.811C423.577 433.818 423.282 432.609 423.282 431.185C423.282 430.178 423.436 429.278 423.745 428.485C424.054 427.693 424.504 427.001 425.095 426.41L426.425 427.035C425.861 427.68 425.451 428.318 425.196 428.949C424.927 429.58 424.793 430.319 424.793 431.165C424.793 432.79 425.297 434.026 426.304 434.872C427.311 435.718 428.728 436.141 430.555 436.141C432.381 436.141 433.805 435.718 434.826 434.872C435.833 434.026 436.337 432.79 436.337 431.165C436.337 430.319 436.209 429.58 435.954 428.949C435.685 428.318 435.262 427.68 434.685 427.035L436.035 426.41C436.612 427.001 437.062 427.693 437.384 428.485C437.693 429.278 437.848 430.178 437.848 431.185ZM437.848 419.408C437.848 420.361 437.7 421.275 437.405 422.148C437.109 423.021 436.686 423.753 436.135 424.343L434.846 423.719C435.383 423.061 435.773 422.383 436.014 421.684C436.256 420.986 436.377 420.234 436.377 419.428C436.377 418.367 436.156 417.561 435.712 417.01C435.256 416.46 434.591 416.184 433.718 416.184C432.885 416.184 432.254 416.466 431.824 417.03C431.381 417.594 431.159 418.42 431.159 419.508L431.159 421.644L429.769 421.644L429.769 419.649C429.769 418.709 429.527 417.964 429.044 417.413C428.56 416.862 427.902 416.587 427.069 416.587C426.317 416.587 425.747 416.842 425.357 417.353C424.954 417.85 424.753 418.568 424.753 419.508C424.753 421.039 425.297 422.362 426.385 423.477L425.075 424.102C424.511 423.551 424.074 422.859 423.765 422.027C423.443 421.194 423.282 420.321 423.282 419.408C423.282 418.011 423.604 416.916 424.249 416.124C424.894 415.331 425.787 414.935 426.928 414.935C427.801 414.935 428.554 415.184 429.185 415.681C429.803 416.177 430.226 416.849 430.454 417.695L430.232 417.695C430.394 416.688 430.797 415.909 431.441 415.358C432.073 414.808 432.872 414.532 433.839 414.532C435.074 414.532 436.055 414.969 436.78 415.842C437.492 416.701 437.848 417.89 437.848 419.408ZM437.667 411.518L423.463 411.518L423.463 405.837C423.463 404.333 423.786 403.171 424.43 402.351C425.075 401.532 425.988 401.123 427.17 401.123C428.057 401.123 428.795 401.391 429.386 401.928C429.977 402.452 430.367 403.184 430.555 404.124L430.273 404.124C430.394 403.077 430.756 402.257 431.361 401.667C431.952 401.062 432.751 400.76 433.758 400.76C435.021 400.76 435.988 401.183 436.659 402.029C437.331 402.862 437.667 404.044 437.667 405.575L437.667 411.518ZM436.317 409.886L436.317 405.736C436.317 404.715 436.122 403.909 435.732 403.319C435.33 402.714 434.665 402.412 433.738 402.412C432.798 402.412 432.133 402.714 431.743 403.319C431.341 403.909 431.139 404.715 431.139 405.736L431.139 409.886L436.317 409.886ZM429.809 409.886L429.809 406.079C429.809 404.977 429.595 404.151 429.165 403.601C428.735 403.05 428.117 402.775 427.311 402.775C426.479 402.775 425.854 403.05 425.438 403.601C425.008 404.151 424.793 404.977 424.793 406.079L424.793 409.886L429.809 409.886ZM437.667 397.825L423.463 397.825L423.463 393.111C423.463 391.539 423.739 390.21 424.289 389.122C424.827 388.034 425.626 387.208 426.687 386.644C427.734 386.079 429.024 385.797 430.555 385.797C432.073 385.797 433.362 386.079 434.423 386.644C435.484 387.208 436.29 388.034 436.84 389.122C437.391 390.21 437.667 391.539 437.667 393.111L437.667 397.825ZM436.236 396.153L436.236 393.231C436.236 391.297 435.766 389.86 434.826 388.92C433.872 387.98 432.449 387.51 430.555 387.51C428.648 387.51 427.224 387.98 426.284 388.92C425.344 389.86 424.874 391.297 424.874 393.231L424.874 396.153L436.236 396.153Z" fill="#FFFEFC"/>
<path d="M580.928 473.65L577.261 472.905L577.261 474.778L576.073 474.778L576.073 472.703L571.419 471.736L571.419 474.355L570.23 474.355L570.23 471.515L566.725 470.81L566.725 469.52L570.23 470.225L570.23 467.042L566.725 466.337L566.725 465.048L570.23 465.753L570.23 463.899L571.419 463.899L571.419 465.995L576.073 466.941L576.073 464.302L577.261 464.302L577.261 467.163L580.928 467.908L580.928 469.218L577.261 468.473L577.261 471.636L580.928 472.341L580.928 473.65ZM576.073 471.394L576.073 468.231L571.419 467.284L571.419 470.467L576.073 471.394ZM581.109 456.796C581.109 458.515 580.505 459.844 579.296 460.785C578.074 461.711 576.368 462.175 574.179 462.175C572.54 462.175 571.157 461.94 570.029 461.47C568.887 460.999 568.021 460.328 567.43 459.455C566.839 458.582 566.543 457.528 566.543 456.292C566.543 455.553 566.698 454.808 567.007 454.056C567.302 453.304 567.719 452.686 568.256 452.202L569.545 452.807C569.021 453.317 568.639 453.874 568.397 454.479C568.142 455.083 568.014 455.694 568.014 456.312C568.014 457.682 568.504 458.736 569.485 459.475C570.452 460.2 571.909 460.563 573.857 460.563L575.73 460.563L575.73 460.744C574.965 460.65 574.307 460.422 573.756 460.059C573.192 459.683 572.762 459.193 572.466 458.589C572.171 457.984 572.023 457.313 572.023 456.574C572.023 455.714 572.211 454.956 572.587 454.297C572.963 453.639 573.494 453.122 574.179 452.746C574.85 452.37 575.623 452.182 576.496 452.182C577.382 452.182 578.175 452.377 578.873 452.766C579.571 453.156 580.122 453.7 580.525 454.398C580.915 455.097 581.109 455.896 581.109 456.796ZM579.699 456.916C579.699 456.299 579.571 455.755 579.316 455.285C579.048 454.801 578.678 454.432 578.208 454.177C577.725 453.908 577.174 453.774 576.556 453.774C575.938 453.774 575.394 453.908 574.924 454.177C574.454 454.432 574.085 454.801 573.816 455.285C573.548 455.755 573.413 456.299 573.413 456.916C573.413 457.534 573.548 458.078 573.816 458.548C574.085 459.018 574.454 459.388 574.924 459.656C575.394 459.912 575.938 460.039 576.556 460.039C577.174 460.039 577.725 459.912 578.208 459.656C578.678 459.388 579.048 459.018 579.316 458.548C579.571 458.078 579.699 457.534 579.699 456.916ZM580.928 450.86L566.725 444.595L566.725 443.144L580.928 436.778L580.928 438.51L576.879 440.283L577.302 439.538L577.302 448.221L576.879 447.415L580.928 449.148L580.928 450.86ZM568.639 443.89L576.294 447.153L575.932 447.637L575.932 440.142L576.294 440.505L568.639 443.849L568.639 443.89ZM580.928 434.635L566.725 434.635L566.725 428.954C566.725 427.45 567.047 426.288 567.692 425.469C568.336 424.649 569.25 424.24 570.432 424.24C571.318 424.24 572.057 424.508 572.648 425.046C573.239 425.569 573.628 426.301 573.816 427.242L573.534 427.242C573.655 426.194 574.018 425.375 574.622 424.784C575.213 424.179 576.012 423.877 577.02 423.877C578.282 423.877 579.249 424.3 579.921 425.146C580.592 425.979 580.928 427.161 580.928 428.692L580.928 434.635ZM579.578 433.003L579.578 428.853C579.578 427.833 579.383 427.027 578.994 426.436C578.591 425.831 577.926 425.529 576.999 425.529C576.059 425.529 575.394 425.831 575.005 426.436C574.602 427.027 574.401 427.833 574.401 428.853L574.401 433.003L579.578 433.003ZM573.071 433.003L573.071 429.196C573.071 428.094 572.856 427.268 572.426 426.718C571.996 426.167 571.379 425.892 570.573 425.892C569.74 425.892 569.115 426.167 568.699 426.718C568.269 427.268 568.054 428.094 568.054 429.196L568.054 433.003L573.071 433.003ZM581.109 417.618C581.109 418.357 580.955 419.102 580.646 419.854C580.324 420.606 579.907 421.231 579.397 421.728L578.087 421.103C578.611 420.593 579.001 420.035 579.256 419.431C579.511 418.827 579.639 418.216 579.639 417.598C579.639 416.241 579.155 415.2 578.188 414.475C577.208 413.736 575.744 413.367 573.796 413.367L571.923 413.367L571.923 413.166C572.675 413.246 573.333 413.481 573.897 413.871C574.461 414.247 574.891 414.737 575.186 415.341C575.482 415.932 575.629 416.597 575.629 417.336C575.629 418.195 575.441 418.961 575.065 419.633C574.689 420.291 574.159 420.808 573.474 421.184C572.789 421.56 572.017 421.748 571.157 421.748C570.257 421.748 569.465 421.553 568.78 421.164C568.081 420.761 567.537 420.217 567.148 419.532C566.745 418.833 566.543 418.034 566.543 417.134C566.543 415.402 567.148 414.072 568.357 413.145C569.565 412.205 571.271 411.735 573.474 411.735C575.099 411.735 576.482 411.97 577.624 412.44C578.766 412.91 579.632 413.582 580.223 414.455C580.814 415.328 581.109 416.382 581.109 417.618ZM574.239 416.993C574.239 416.376 574.105 415.832 573.836 415.361C573.568 414.891 573.198 414.529 572.728 414.274C572.258 414.005 571.714 413.871 571.097 413.871C570.465 413.871 569.915 414.005 569.445 414.274C568.974 414.529 568.605 414.891 568.336 415.361C568.068 415.832 567.934 416.376 567.934 416.993C567.934 417.611 568.068 418.162 568.336 418.645C568.605 419.115 568.974 419.485 569.445 419.753C569.915 420.009 570.465 420.136 571.097 420.136C571.714 420.136 572.258 420.009 572.728 419.753C573.198 419.485 573.568 419.115 573.836 418.645C574.105 418.162 574.239 417.611 574.239 416.993ZM581.109 402.677C581.109 404.101 580.814 405.31 580.223 406.303C579.632 407.297 578.792 408.063 577.705 408.6C576.617 409.124 575.321 409.386 573.816 409.386C572.312 409.386 571.023 409.124 569.948 408.6C568.86 408.063 568.021 407.297 567.43 406.303C566.839 405.31 566.543 404.101 566.543 402.677C566.543 401.67 566.698 400.77 567.007 399.978C567.316 399.185 567.766 398.493 568.357 397.902L569.686 398.527C569.122 399.172 568.713 399.81 568.457 400.441C568.189 401.072 568.054 401.811 568.054 402.657C568.054 404.282 568.558 405.518 569.565 406.364C570.573 407.21 571.99 407.633 573.816 407.633C575.643 407.633 577.067 407.21 578.087 406.364C579.095 405.518 579.598 404.282 579.598 402.657C579.598 401.811 579.471 401.072 579.216 400.441C578.947 399.81 578.524 399.172 577.946 398.527L579.296 397.902C579.874 398.493 580.324 399.185 580.646 399.978C580.955 400.77 581.109 401.67 581.109 402.677ZM580.928 395.13L579.679 395.13L574.421 390.094C573.736 389.436 573.084 388.945 572.466 388.623C571.835 388.287 571.184 388.119 570.512 388.119C569.693 388.119 569.075 388.375 568.659 388.885C568.229 389.395 568.014 390.134 568.014 391.101C568.014 391.853 568.148 392.552 568.417 393.196C568.672 393.828 569.082 394.439 569.646 395.03L568.336 395.634C567.799 395.097 567.369 394.412 567.047 393.579C566.711 392.746 566.543 391.867 566.543 390.94C566.543 389.503 566.879 388.395 567.551 387.616C568.209 386.837 569.149 386.447 570.371 386.447C571.271 386.447 572.131 386.669 572.95 387.112C573.756 387.542 574.589 388.173 575.448 389.006L579.961 393.458L579.498 393.458L579.498 385.843L580.928 385.843L580.928 395.13Z" fill="#EDF3FF"/>
<path d="M719.036 473.65L715.369 472.905L715.369 474.778L714.181 474.778L714.181 472.703L709.527 471.736L709.527 474.355L708.338 474.355L708.338 471.515L704.833 470.81L704.833 469.52L708.338 470.225L708.338 467.042L704.833 466.337L704.833 465.048L708.338 465.753L708.338 463.899L709.527 463.899L709.527 465.995L714.181 466.941L714.181 464.302L715.369 464.302L715.369 467.163L719.036 467.908L719.036 469.218L715.369 468.473L715.369 471.636L719.036 472.341L719.036 473.65ZM714.181 471.394L714.181 468.231L709.527 467.284L709.527 470.467L714.181 471.394ZM719.036 455.526L715.953 455.526L715.953 462.296L714.745 462.296L704.833 455.264L704.833 453.894L714.604 453.894L714.604 451.719L715.953 451.719L715.953 453.894L719.036 453.894L719.036 455.526ZM714.604 455.526L706.807 455.526L706.807 455.083L715.027 460.926L714.604 460.926L714.604 455.526ZM719.036 450.86L704.833 444.595L704.833 443.144L719.036 436.778L719.036 438.51L714.986 440.283L715.41 439.538L715.41 448.221L714.986 447.415L719.036 449.148L719.036 450.86ZM706.747 443.89L714.402 447.153L714.04 447.637L714.04 440.142L714.402 440.505L706.747 443.849L706.747 443.89ZM719.036 436.046L704.833 429.78L704.833 428.329L719.036 421.963L719.036 423.696L714.986 425.469L715.41 424.723L715.41 433.406L714.986 432.601L719.036 434.333L719.036 436.046ZM706.747 429.075L714.402 432.339L714.04 432.822L714.04 425.328L714.402 425.69L706.747 429.035L706.747 429.075ZM719.036 419.317L705.538 412.326L706.263 412.326L706.263 420.264L704.833 420.264L704.833 410.815L706.082 410.815L719.036 417.484L719.036 419.317ZM719.036 407.741L704.833 407.741L704.833 403.026C704.833 401.455 705.108 400.125 705.659 399.037C706.196 397.95 706.995 397.123 708.056 396.559C709.104 395.995 710.393 395.713 711.924 395.713C713.442 395.713 714.731 395.995 715.792 396.559C716.853 397.123 717.659 397.95 718.21 399.037C718.761 400.125 719.036 401.455 719.036 403.026L719.036 407.741ZM717.605 406.068L717.605 403.147C717.605 401.213 717.135 399.776 716.195 398.836C715.242 397.896 713.818 397.426 711.924 397.426C710.017 397.426 708.593 397.896 707.653 398.836C706.713 399.776 706.243 401.213 706.243 403.147L706.243 406.069L717.605 406.068ZM719.036 392.186L705.538 385.195L706.263 385.195L706.263 393.133L704.833 393.133L704.833 383.684L706.082 383.684L719.036 390.353L719.036 392.186Z" fill="#FFFEFC"/>
<path d="M1000.04 473.65L996.369 472.905L996.369 474.778L995.181 474.778L995.181 472.703L990.527 471.736L990.527 474.355L989.338 474.355L989.338 471.515L985.833 470.81L985.833 469.52L989.338 470.225L989.338 467.042L985.833 466.337L985.833 465.048L989.338 465.753L989.338 463.899L990.527 463.899L990.527 465.995L995.181 466.941L995.181 464.302L996.369 464.302L996.369 467.163L1000.04 467.908L1000.04 469.218L996.369 468.473L996.369 471.636L1000.04 472.341L1000.04 473.65ZM995.181 471.394L995.181 468.231L990.527 467.284L990.527 470.467L995.181 471.394ZM1000.22 457.259C1000.22 458.871 999.593 460.106 998.344 460.966C997.095 461.825 995.288 462.255 992.924 462.255C990.547 462.255 988.74 461.825 987.505 460.966C986.269 460.106 985.651 458.871 985.651 457.259C985.651 455.634 986.269 454.398 987.505 453.552C988.74 452.692 990.54 452.263 992.904 452.263C995.281 452.263 997.095 452.692 998.344 453.552C999.593 454.412 1000.22 455.647 1000.22 457.259ZM998.767 457.259C998.767 456.131 998.29 455.291 997.336 454.741C996.383 454.19 994.905 453.915 992.904 453.915C990.889 453.915 989.419 454.19 988.492 454.741C987.552 455.291 987.082 456.131 987.082 457.259C987.082 458.374 987.552 459.213 988.492 459.777C989.432 460.328 990.903 460.603 992.904 460.603C994.905 460.603 996.383 460.328 997.336 459.777C998.29 459.213 998.767 458.374 998.767 457.259ZM1000.04 449.45L985.833 449.45L985.833 440.384L987.203 440.384L987.203 447.818L992.138 447.818L992.138 440.827L993.529 440.827L993.529 447.818L998.646 447.818L998.646 440.384L1000.04 440.384L1000.04 449.45ZM1000.04 437.646L998.787 437.646L993.529 432.61C992.844 431.952 992.192 431.461 991.574 431.139C990.943 430.803 990.292 430.635 989.62 430.635C988.801 430.635 988.183 430.891 987.767 431.401C987.337 431.911 987.122 432.65 987.122 433.617C987.122 434.369 987.256 435.068 987.525 435.712C987.78 436.344 988.19 436.955 988.754 437.546L987.444 438.15C986.907 437.613 986.477 436.928 986.155 436.095C985.819 435.262 985.651 434.383 985.651 433.456C985.651 432.019 985.987 430.911 986.659 430.132C987.317 429.353 988.257 428.963 989.479 428.963C990.379 428.963 991.239 429.185 992.058 429.628C992.864 430.058 993.696 430.689 994.556 431.522L999.069 435.974L998.605 435.974L998.605 428.359L1000.04 428.359L1000.04 437.646ZM1000.22 419.341C1000.22 420.765 999.922 421.974 999.331 422.968C998.74 423.961 997.9 424.727 996.812 425.264C995.725 425.788 994.428 426.05 992.924 426.05C991.42 426.05 990.131 425.788 989.056 425.264C987.968 424.727 987.129 423.961 986.538 422.968C985.947 421.974 985.651 420.765 985.651 419.341C985.651 418.334 985.806 417.434 986.115 416.642C986.424 415.849 986.874 415.157 987.465 414.567L988.794 415.191C988.23 415.836 987.82 416.474 987.565 417.105C987.297 417.736 987.162 418.475 987.162 419.321C987.162 420.946 987.666 422.182 988.673 423.028C989.681 423.874 991.098 424.297 992.924 424.297C994.751 424.297 996.174 423.874 997.195 423.028C998.203 422.182 998.706 420.946 998.706 419.321C998.706 418.475 998.579 417.736 998.323 417.105C998.055 416.474 997.632 415.836 997.054 415.191L998.404 414.567C998.982 415.157 999.431 415.849 999.754 416.642C1000.06 417.434 1000.22 418.334 1000.22 419.341ZM1000.22 407.564C1000.22 408.517 1000.07 409.431 999.774 410.304C999.479 411.177 999.055 411.909 998.505 412.5L997.215 411.875C997.753 411.217 998.142 410.539 998.384 409.84C998.626 409.142 998.747 408.39 998.747 407.584C998.747 406.523 998.525 405.717 998.082 405.166C997.625 404.616 996.96 404.34 996.087 404.34C995.254 404.34 994.623 404.622 994.193 405.186C993.75 405.751 993.529 406.577 993.529 407.664L993.529 409.8L992.138 409.8L992.138 407.805C992.138 406.865 991.897 406.12 991.413 405.569C990.93 405.019 990.272 404.743 989.439 404.743C988.687 404.743 988.116 404.998 987.726 405.509C987.324 406.006 987.122 406.724 987.122 407.664C987.122 409.196 987.666 410.519 988.754 411.633L987.444 412.258C986.88 411.707 986.444 411.015 986.135 410.183C985.813 409.35 985.651 408.477 985.651 407.564C985.651 406.167 985.974 405.072 986.618 404.28C987.263 403.487 988.156 403.091 989.298 403.091C990.171 403.091 990.923 403.34 991.554 403.837C992.172 404.334 992.595 405.005 992.823 405.851L992.602 405.851C992.763 404.844 993.166 404.065 993.811 403.514C994.442 402.964 995.241 402.688 996.208 402.688C997.444 402.688 998.424 403.125 999.149 403.998C999.861 404.857 1000.22 406.046 1000.22 407.564ZM1000.22 393.489C1000.22 394.913 999.922 396.122 999.331 397.116C998.74 398.11 997.9 398.875 996.812 399.412C995.725 399.936 994.428 400.198 992.924 400.198C991.42 400.198 990.131 399.936 989.056 399.412C987.968 398.875 987.129 398.11 986.538 397.116C985.947 396.122 985.651 394.913 985.651 393.489C985.651 392.482 985.806 391.582 986.115 390.79C986.424 389.997 986.874 389.306 987.465 388.715L988.794 389.339C988.23 389.984 987.82 390.622 987.565 391.253C987.297 391.884 987.162 392.623 987.162 393.469C987.162 395.094 987.666 396.33 988.673 397.176C989.681 398.022 991.098 398.445 992.924 398.445C994.751 398.445 996.174 398.022 997.195 397.176C998.203 396.33 998.706 395.094 998.706 393.469C998.706 392.623 998.579 391.884 998.323 391.253C998.055 390.622 997.632 389.984 997.054 389.339L998.404 388.715C998.982 389.306 999.431 389.997 999.754 390.79C1000.06 391.582 1000.22 392.482 1000.22 393.489Z" fill="#FFFEFC"/>
<path d="M859.036 473.65L855.369 472.905L855.369 474.778L854.181 474.778L854.181 472.703L849.527 471.736L849.527 474.355L848.338 474.355L848.338 471.515L844.833 470.81L844.833 469.52L848.338 470.225L848.338 467.042L844.833 466.337L844.833 465.048L848.338 465.753L848.338 463.899L849.527 463.899L849.527 465.995L854.181 466.941L854.181 464.302L855.369 464.302L855.369 467.163L859.036 467.908L859.036 469.218L855.369 468.473L855.369 471.636L859.036 472.341L859.036 473.65ZM854.181 471.394L854.181 468.231L849.527 467.284L849.527 470.467L854.181 471.394ZM859.217 457.34C859.217 458.293 859.069 459.206 858.774 460.079C858.479 460.952 858.055 461.684 857.505 462.275L856.215 461.651C856.753 460.993 857.142 460.314 857.384 459.616C857.626 458.918 857.747 458.166 857.747 457.36C857.747 456.299 857.525 455.493 857.082 454.942C856.625 454.391 855.96 454.116 855.087 454.116C854.254 454.116 853.623 454.398 853.193 454.962C852.75 455.526 852.529 456.352 852.529 457.44L852.529 459.576L851.138 459.576L851.138 457.581C851.138 456.641 850.897 455.896 850.413 455.345C849.93 454.794 849.272 454.519 848.439 454.519C847.687 454.519 847.116 454.774 846.726 455.285C846.324 455.782 846.122 456.5 846.122 457.44C846.122 458.971 846.666 460.294 847.754 461.409L846.444 462.034C845.88 461.483 845.444 460.791 845.135 459.959C844.813 459.126 844.651 458.253 844.651 457.34C844.651 455.943 844.974 454.848 845.618 454.056C846.263 453.263 847.156 452.867 848.298 452.867C849.171 452.867 849.923 453.115 850.554 453.612C851.172 454.109 851.595 454.781 851.823 455.627L851.602 455.627C851.763 454.62 852.166 453.841 852.811 453.29C853.442 452.739 854.241 452.464 855.208 452.464C856.444 452.464 857.424 452.901 858.149 453.774C858.861 454.633 859.217 455.822 859.217 457.34ZM859.217 445.179C859.217 446.791 858.593 448.026 857.344 448.886C856.095 449.745 854.288 450.175 851.924 450.175C849.547 450.175 847.74 449.745 846.505 448.886C845.269 448.026 844.651 446.791 844.651 445.179C844.651 443.554 845.269 442.318 846.505 441.472C847.74 440.612 849.54 440.183 851.904 440.183C854.281 440.183 856.095 440.612 857.344 441.472C858.593 442.332 859.217 443.567 859.217 445.179ZM857.767 445.179C857.767 444.051 857.29 443.211 856.336 442.661C855.383 442.11 853.905 441.835 851.904 441.835C849.889 441.835 848.419 442.11 847.492 442.661C846.552 443.211 846.082 444.051 846.082 445.179C846.082 446.294 846.552 447.133 847.492 447.697C848.432 448.248 849.903 448.523 851.904 448.523C853.905 448.523 855.383 448.248 856.336 447.697C857.29 447.133 857.767 446.294 857.767 445.179ZM859.217 432.636C859.217 434.355 858.613 435.684 857.404 436.625C856.182 437.551 854.476 438.015 852.287 438.015C850.648 438.015 849.265 437.78 848.137 437.31C846.995 436.84 846.129 436.168 845.538 435.295C844.947 434.422 844.651 433.368 844.651 432.132C844.651 431.393 844.806 430.648 845.115 429.896C845.41 429.144 845.827 428.526 846.364 428.042L847.653 428.647C847.129 429.157 846.747 429.714 846.505 430.319C846.25 430.923 846.122 431.534 846.122 432.152C846.122 433.522 846.612 434.576 847.593 435.315C848.56 436.04 850.017 436.403 851.965 436.403L853.838 436.403L853.838 436.584C853.073 436.49 852.414 436.262 851.864 435.899C851.3 435.523 850.87 435.033 850.574 434.429C850.279 433.824 850.131 433.153 850.131 432.414C850.131 431.554 850.319 430.796 850.695 430.137C851.071 429.479 851.602 428.962 852.287 428.586C852.958 428.21 853.731 428.022 854.604 428.022C855.49 428.022 856.283 428.217 856.981 428.606C857.679 428.996 858.23 429.54 858.633 430.238C859.022 430.937 859.217 431.736 859.217 432.636ZM857.807 432.756C857.807 432.139 857.679 431.595 857.424 431.125C857.156 430.641 856.786 430.272 856.316 430.017C855.833 429.748 855.282 429.614 854.664 429.614C854.046 429.614 853.502 429.748 853.032 430.017C852.562 430.272 852.193 430.641 851.924 431.125C851.656 431.595 851.521 432.139 851.521 432.756C851.521 433.374 851.656 433.918 851.924 434.388C852.193 434.858 852.562 435.228 853.032 435.496C853.502 435.752 854.046 435.879 854.664 435.879C855.282 435.879 855.833 435.752 856.316 435.496C856.786 435.228 857.156 434.858 857.424 434.388C857.679 433.918 857.807 433.374 857.807 432.756ZM859.036 424.504L857.605 424.504L857.605 421.16L846.263 421.16L846.263 420.274L848.701 424.182L847.029 424.182L844.833 420.697L844.833 419.488L857.605 419.488L857.605 416.345L859.036 416.345L859.036 424.504ZM859.036 414.62L844.833 408.355L844.833 406.904L859.036 400.538L859.036 402.271L854.986 404.043L855.41 403.298L855.41 411.981L854.986 411.175L859.036 412.908L859.036 414.62ZM846.747 407.65L854.402 410.913L854.04 411.397L854.04 403.902L854.402 404.265L846.747 407.609L846.747 407.65ZM859.036 399.806L844.833 393.54L844.833 392.09L859.036 385.723L859.036 387.456L854.986 389.229L855.41 388.483L855.41 397.166L854.986 396.361L859.036 398.093L859.036 399.806ZM846.747 392.835L854.402 396.099L854.04 396.582L854.04 389.088L854.402 389.45L846.747 392.795L846.747 392.835Z" fill="#F5F5F5"/>
</g>
<defs>
<clipPath id="clip0_221_1047">
<rect width="1250" height="351" fill="white" transform="translate(0 146)"/>
</clipPath>
</defs>
</svg>
